<?xml version="1.0" encoding="utf-8"?>
<!-- Generator: Adobe Illustrator 27.5.0, SVG Export Plug-In . SVG Version: 6.00 Build 0)  -->
<svg version="1.1" id="Ebene_1" xmlns="http://www.w3.org/2000/svg" xmlns:xlink="http://www.w3.org/1999/xlink" x="0px" y="0px"
	 viewBox="0 0 655 550" style="enable-background:new 0 0 655 550;" xml:space="preserve">
<style type="text/css">
	.st0{clip-path:url(#SVGID_00000108284512581947420550000008877517590756958127_);}
	.st1{clip-path:url(#SVGID_00000169554700014286105190000010081660889423326109_);}
	.st2{clip-path:url(#SVGID_00000029044859186259432200000016753260229247377794_);fill:#FADCDA;}
	.st3{clip-path:url(#SVGID_00000016043226371912680280000003986090289994039996_);fill:#ED726A;}
	.st4{clip-path:url(#SVGID_00000121982815035176732370000007518320145584122029_);fill:none;stroke:#FFFFFF;stroke-width:16.875;}
	.st5{clip-path:url(#SVGID_00000145764782039449532350000008375868257769805228_);fill:none;stroke:#FFFFFF;stroke-width:11.25;}
	.st6{clip-path:url(#SVGID_00000134227727866309957230000003749553189089003453_);fill:none;stroke:#FFFFFF;stroke-width:11.25;}
	.st7{clip-path:url(#SVGID_00000016794007838757144600000011177418581044257410_);fill:none;stroke:#FFFFFF;stroke-width:11.25;}
	.st8{clip-path:url(#SVGID_00000093142566646765865330000012717760619790528142_);fill:none;stroke:#FFFFFF;stroke-width:5.625;}
	.st9{clip-path:url(#SVGID_00000089531633482591649620000012890418218826598561_);fill:none;stroke:#FFFFFF;stroke-width:5.625;}
	.st10{clip-path:url(#SVGID_00000182494527790950153790000013196371449831139475_);fill:none;stroke:#FFFFFF;stroke-width:5.625;}
	.st11{clip-path:url(#SVGID_00000008858195402483180650000009154827646774111886_);fill:none;stroke:#FFFFFF;stroke-width:5.625;}
	.st12{clip-path:url(#SVGID_00000065043204380815191920000006956222851708976003_);fill:none;stroke:#FFFFFF;stroke-width:5.625;}
	.st13{clip-path:url(#SVGID_00000106860280274443136330000013768272040886459319_);}
	.st14{clip-path:url(#SVGID_00000057123312653618006740000004691889434749848983_);fill:none;stroke:#FFFFFF;stroke-width:5.625;}
	.st15{clip-path:url(#SVGID_00000158738761097483054800000001747014461958268072_);fill:none;stroke:#FFFFFF;stroke-width:5.625;}
	.st16{clip-path:url(#SVGID_00000047039477100293509930000013127517856693059243_);}
	.st17{enable-background:new    ;}
	.st18{fill:#50545D;}
	.st19{clip-path:url(#SVGID_00000073716381166622002590000014881337440943784876_);}
	.st20{clip-path:url(#SVGID_00000082351805486406363460000015230399712791229835_);}
	.st21{clip-path:url(#SVGID_00000089557880628891091490000006363007407383244936_);}
	.st22{clip-path:url(#SVGID_00000065793046491338796590000007041159246658077365_);}
	.st23{clip-path:url(#SVGID_00000171719574992852538070000010210683521617916071_);}
	.st24{clip-path:url(#SVGID_00000083065722935287963980000011746101354952637068_);}
	.st25{clip-path:url(#SVGID_00000047033414828572568100000018230204153360653993_);}
	.st26{clip-path:url(#SVGID_00000008139163671573659440000000432718421133627298_);}
	.st27{clip-path:url(#SVGID_00000121254707962478465110000001880833269606224015_);}
	.st28{clip-path:url(#SVGID_00000088819882603302925420000000576659099249866407_);}
	.st29{clip-path:url(#SVGID_00000066506712870745990380000000050212319035270810_);}
	.st30{clip-path:url(#SVGID_00000059300565570750889710000005258069692029737093_);fill:#ED726A;}
	.st31{clip-path:url(#SVGID_00000089561900812495742770000017485661914450050190_);fill:#FFFFFF;}
	.st32{clip-path:url(#SVGID_00000028287730961704197740000003414280448141326217_);fill:#ED726A;}
	.st33{clip-path:url(#SVGID_00000024704455787143830950000002906478515530210975_);fill:#FFFFFF;}
	.st34{clip-path:url(#SVGID_00000119099120066255664890000014280520116124989098_);fill:#ED726A;}
	.st35{clip-path:url(#SVGID_00000172425069266396125570000015198822309730238396_);fill:#FFFFFF;}
	.st36{clip-path:url(#SVGID_00000047030116759442742780000010443833413710715833_);fill:#ED726A;}
	.st37{clip-path:url(#SVGID_00000027590266373567544500000013078613681324418458_);}
	.st38{fill:#FFFFFF;}
	.st39{clip-path:url(#SVGID_00000039122503621477855600000004091793487943001514_);fill:#ED726A;}
	.st40{clip-path:url(#SVGID_00000160173154141972076630000009667541905480245922_);}
	.st41{clip-path:url(#SVGID_00000081619041213118197370000000573382676852627128_);}
	.st42{clip-path:url(#SVGID_00000116918229659299339480000003269506621187440568_);}
	.st43{clip-path:url(#SVGID_00000166664967064934884050000011578032394971797932_);}
	.st44{clip-path:url(#SVGID_00000039831297559043615850000010273971853437062305_);fill:none;stroke:#FFFFFF;stroke-width:5.625;}
	.st45{clip-path:url(#SVGID_00000125570223038656665150000013909920518265301408_);}
	.st46{clip-path:url(#SVGID_00000119082911530925335970000002868796937746218665_);fill:none;stroke:#FFFFFF;stroke-width:3;}
	.st47{clip-path:url(#SVGID_00000001632754117666884640000014018200946472150934_);fill:none;stroke:#FFFFFF;stroke-width:3;}
	.st48{clip-path:url(#SVGID_00000027562711384637046000000006026766161927819424_);fill:none;stroke:#FFFFFF;stroke-width:3;}
	.st49{clip-path:url(#SVGID_00000158713641828040064640000000219926588586742691_);fill:none;stroke:#FFFFFF;stroke-width:3;}
	.st50{clip-path:url(#SVGID_00000072276261152313684520000014813394954286896261_);fill:none;stroke:#FFFFFF;stroke-width:3;}
	.st51{clip-path:url(#SVGID_00000104686194555940262790000011619114594672980615_);}
	.st52{clip-path:url(#SVGID_00000052075814510865249660000014029253796403042455_);fill:none;stroke:#FFFFFF;stroke-width:5.625;}
	.st53{clip-path:url(#SVGID_00000012455877224407654040000007947795810237619074_);fill:none;stroke:#FFFFFF;stroke-width:3;}
	.st54{clip-path:url(#SVGID_00000059988713966678159030000018298823847174125445_);}
	.st55{clip-path:url(#SVGID_00000094598425951858791670000016487165844003215789_);fill:#ED726A;}
	.st56{clip-path:url(#SVGID_00000124843633075250997770000012229490031381005753_);}
	.st57{clip-path:url(#SVGID_00000003063346137567508840000002568097978615135910_);}
	.st58{clip-path:url(#SVGID_00000052070557287915282780000000793538897235174329_);fill:none;stroke:#FFFFFF;stroke-width:5.625;}
	.st59{clip-path:url(#SVGID_00000066504315931896519180000008588315820099964554_);fill:none;stroke:#FFFFFF;stroke-width:5.625;}
	.st60{clip-path:url(#SVGID_00000119821536077904493670000017721510845200495777_);fill:none;stroke:#FFFFFF;stroke-width:5.625;}
</style>
<g>
	<g>
		<defs>
			<rect id="SVGID_1_" width="655" height="550"/>
		</defs>
		<clipPath id="SVGID_00000112629907949592516560000010315567898300780470_">
			<use xlink:href="#SVGID_1_"  style="overflow:visible;"/>
		</clipPath>
		<g style="clip-path:url(#SVGID_00000112629907949592516560000010315567898300780470_);">
			<g>
				<defs>
					<rect id="SVGID_00000163787235089299370560000017020145020571175094_" width="655" height="550"/>
				</defs>
				<clipPath id="SVGID_00000114772435381183675740000014939732455351649930_">
					<use xlink:href="#SVGID_00000163787235089299370560000017020145020571175094_"  style="overflow:visible;"/>
				</clipPath>
				<g style="clip-path:url(#SVGID_00000114772435381183675740000014939732455351649930_);">
					<g>
						<g>
							<defs>
								<rect id="SVGID_00000063595418049159006460000009392180782207126199_" x="272.9" y="117.4" width="129.6" height="119.6"/>
							</defs>
							<clipPath id="SVGID_00000088825737271559361460000017462780984964864677_">
								<use xlink:href="#SVGID_00000063595418049159006460000009392180782207126199_"  style="overflow:visible;"/>
							</clipPath>
							<path style="clip-path:url(#SVGID_00000088825737271559361460000017462780984964864677_);fill:#FADCDA;" d="M337.7,236
								c30.8,0,55.8-25,55.8-55.8s-25-55.8-55.8-55.8s-55.8,25-55.8,55.8S306.9,236,337.7,236"/>
						</g>
					</g>
				</g>
			</g>
			<g>
				<defs>
					<rect id="SVGID_00000046337579950360267670000015854176899212195479_" width="655" height="550"/>
				</defs>
				<clipPath id="SVGID_00000034806978459047430930000002495914247130136980_">
					<use xlink:href="#SVGID_00000046337579950360267670000015854176899212195479_"  style="overflow:visible;"/>
				</clipPath>
				<path style="clip-path:url(#SVGID_00000034806978459047430930000002495914247130136980_);fill:#ED726A;" d="M337.7,192.2
					c6.6,0,12-5.4,12-12s-5.4-12-12-12s-12,5.4-12,12S331.1,192.2,337.7,192.2"/>
			</g>
			<g>
				<defs>
					<rect id="SVGID_00000078737649801780905610000010718547918801508765_" width="655" height="550"/>
				</defs>
				<clipPath id="SVGID_00000077303601922200307690000001662672461145082550_">
					<use xlink:href="#SVGID_00000078737649801780905610000010718547918801508765_"  style="overflow:visible;"/>
				</clipPath>
				
					<path style="clip-path:url(#SVGID_00000077303601922200307690000001662672461145082550_);fill:none;stroke:#FFFFFF;stroke-width:16.875;" d="
					M609.7-35.7l8.8,245.6L577,491.3c0,0-10.4,89.3-114.8,89.3"/>
			</g>
			<g>
				<defs>
					<rect id="SVGID_00000120549717340911039510000014392882720584756405_" width="655" height="550"/>
				</defs>
				<clipPath id="SVGID_00000036967086641834422930000017481242080624312251_">
					<use xlink:href="#SVGID_00000120549717340911039510000014392882720584756405_"  style="overflow:visible;"/>
				</clipPath>
				
					<polyline style="clip-path:url(#SVGID_00000036967086641834422930000017481242080624312251_);fill:none;stroke:#FFFFFF;stroke-width:11.25;" points="
					544.6,-30.1 544.6,191.6 500.5,482.6 446.3,498.5 446.3,508.9 355.4,524 75.6,515.2 -4.9,495.9 				"/>
			</g>
			<g>
				<defs>
					<rect id="SVGID_00000121266373177501293740000018179499842717162932_" width="655" height="550"/>
				</defs>
				<clipPath id="SVGID_00000003092113656272102350000017171949716335316370_">
					<use xlink:href="#SVGID_00000121266373177501293740000018179499842717162932_"  style="overflow:visible;"/>
				</clipPath>
				
					<polyline style="clip-path:url(#SVGID_00000003092113656272102350000017171949716335316370_);fill:none;stroke:#FFFFFF;stroke-width:11.25;" points="
					412.8,-26.1 412,72 188,72 191.2,156.5 152.9,237.8 156.9,260.1 239,292.8 253.3,441.1 344.2,485.7 367.3,558.3 412.8,581.4 
									"/>
			</g>
			<g>
				<defs>
					<rect id="SVGID_00000054962931570984605940000009318563046918454932_" width="655" height="550"/>
				</defs>
				<clipPath id="SVGID_00000116914426080844152340000015841300828287226026_">
					<use xlink:href="#SVGID_00000054962931570984605940000009318563046918454932_"  style="overflow:visible;"/>
				</clipPath>
				
					<polyline style="clip-path:url(#SVGID_00000116914426080844152340000015841300828287226026_);fill:none;stroke:#FFFFFF;stroke-width:11.25;" points="
					-6.2,425 253.3,441.9 253.3,425.1 462.2,386.9 513.2,395.7 				"/>
			</g>
			<g>
				<defs>
					<rect id="SVGID_00000100355174928054463660000017314320300338546059_" width="655" height="550"/>
				</defs>
				<clipPath id="SVGID_00000101816525727822846360000018228541397010949536_">
					<use xlink:href="#SVGID_00000100355174928054463660000017314320300338546059_"  style="overflow:visible;"/>
				</clipPath>
				
					<polyline style="clip-path:url(#SVGID_00000101816525727822846360000018228541397010949536_);fill:none;stroke:#FFFFFF;stroke-width:5.625;" points="
					184.8,166 306.8,157.3 403.2,166 541.1,190 760.8,225 				"/>
			</g>
		</g>
	</g>
	<g>
		<defs>
			<rect id="SVGID_00000159439103338761980530000005657057249155662224_" width="655" height="550"/>
		</defs>
		<clipPath id="SVGID_00000040533850525168205930000016392844702280803725_">
			<use xlink:href="#SVGID_00000159439103338761980530000005657057249155662224_"  style="overflow:visible;"/>
		</clipPath>
		
			<polyline style="clip-path:url(#SVGID_00000040533850525168205930000016392844702280803725_);fill:none;stroke:#FFFFFF;stroke-width:5.625;" points="
			241.8,292.2 237,198.9 229.3,198.7 		"/>
	</g>
	<g>
		<defs>
			<rect id="SVGID_00000160884077559734538390000012523209913400251830_" width="655" height="550"/>
		</defs>
		<clipPath id="SVGID_00000076571430206240156500000011576937974194907266_">
			<use xlink:href="#SVGID_00000160884077559734538390000012523209913400251830_"  style="overflow:visible;"/>
		</clipPath>
		
			<line style="clip-path:url(#SVGID_00000076571430206240156500000011576937974194907266_);fill:none;stroke:#FFFFFF;stroke-width:5.625;" x1="155.3" y1="260.1" x2="121.8" y2="432.3"/>
	</g>
	<g>
		<defs>
			<rect id="SVGID_00000106834586765233076670000015283568393214152336_" width="655" height="550"/>
		</defs>
		<clipPath id="SVGID_00000037662272062600196980000006575205060425082042_">
			<use xlink:href="#SVGID_00000106834586765233076670000015283568393214152336_"  style="overflow:visible;"/>
		</clipPath>
		
			<polyline style="clip-path:url(#SVGID_00000037662272062600196980000006575205060425082042_);fill:none;stroke:#FFFFFF;stroke-width:5.625;" points="
			441.5,506.9 462.2,387.7 475.8,180.4 		"/>
	</g>
	<g>
		<defs>
			<rect id="SVGID_00000027580785287232604370000002036404449258491054_" width="655" height="550"/>
		</defs>
		<clipPath id="SVGID_00000015340463794351283920000009205568452283133091_">
			<use xlink:href="#SVGID_00000027580785287232604370000002036404449258491054_"  style="overflow:visible;"/>
		</clipPath>
		
			<polyline style="clip-path:url(#SVGID_00000015340463794351283920000009205568452283133091_);fill:none;stroke:#FFFFFF;stroke-width:5.625;" points="
			396.8,398.8 404,166.8 411.2,123.3 404,72.7 		"/>
	</g>
	<g>
		<defs>
			<rect id="SVGID_00000170272266657163243900000006849179622722404997_" width="655" height="550"/>
		</defs>
		<clipPath id="SVGID_00000147214943046605301050000015947885851026695819_">
			<use xlink:href="#SVGID_00000170272266657163243900000006849179622722404997_"  style="overflow:visible;"/>
		</clipPath>
		<g style="clip-path:url(#SVGID_00000147214943046605301050000015947885851026695819_);">
			<g>
				<defs>
					<rect id="SVGID_00000141415314672766459140000001541871941494502837_" width="655" height="550"/>
				</defs>
				<clipPath id="SVGID_00000174586641202862818590000012344878586159921581_">
					<use xlink:href="#SVGID_00000141415314672766459140000001541871941494502837_"  style="overflow:visible;"/>
				</clipPath>
				
					<polyline style="clip-path:url(#SVGID_00000174586641202862818590000012344878586159921581_);fill:none;stroke:#FFFFFF;stroke-width:5.625;" points="
					290.6,-20.2 260.5,73.6 267.7,162.9 				"/>
			</g>
		</g>
	</g>
	<g>
		<defs>
			<rect id="SVGID_00000084490592062097521740000008636226669625266066_" width="655" height="550"/>
		</defs>
		<clipPath id="SVGID_00000090287767827633548290000003928597799671677063_">
			<use xlink:href="#SVGID_00000084490592062097521740000008636226669625266066_"  style="overflow:visible;"/>
		</clipPath>
		
			<line style="clip-path:url(#SVGID_00000090287767827633548290000003928597799671677063_);fill:none;stroke:#FFFFFF;stroke-width:5.625;" x1="326.7" y1="73.3" x2="308.5" y2="157.8"/>
	</g>
	<g>
		<defs>
			<rect id="SVGID_00000102515021240259637000000011417814593074875579_" width="655" height="550"/>
		</defs>
		<clipPath id="SVGID_00000052078989701573120840000013067089679348559488_">
			<use xlink:href="#SVGID_00000102515021240259637000000011417814593074875579_"  style="overflow:visible;"/>
		</clipPath>
		<g style="clip-path:url(#SVGID_00000052078989701573120840000013067089679348559488_);">
			<g class="st17">
				<path class="st18" d="M575.3,378.1l-0.2,1.6l-9.5-0.2l7.5,5l-0.2,1.4l-8.6,2.8l9.2,2.4l-0.2,1.6l-12.1-3.2l0.2-1.5l9.7-3.1
					l-8.5-5.6l0.2-1.5L575.3,378.1z"/>
			</g>
			<g class="st17">
				<path class="st18" d="M568.2,368.1l0.2-1.6l8.3,1.2l-0.2,1.6l-1.5-0.2c0.9,0.7,1.5,2,1.3,3.3c-0.3,2.2-2.4,3.8-5,3.5
					c-2.5-0.3-4.1-2.4-3.8-4.8c0.2-1.2,0.9-2.3,1.9-2.8L568.2,368.1z M572.3,368.7c-1.7-0.2-3.1,1-3.3,2.4c-0.2,1.5,1,2.9,2.5,3.1
					c1.6,0.2,3.1-0.8,3.3-2.3C575.1,370.4,574,368.9,572.3,368.7z"/>
				<path class="st18" d="M569.6,358.5l1.4,0.5c-0.3,0.4-0.4,0.9-0.5,1.2c-0.2,1.7,1.5,2.6,3.7,2.9l3,0.4l-0.2,1.6l-8.3-1.2l0.2-1.6
					l1.9,0.3c-1.4-0.6-1.9-1.5-1.8-2.6C569.2,359.3,569.4,358.7,569.6,358.5z"/>
				<path class="st18" d="M566.6,356.8c-0.6-0.1-1-0.6-0.9-1.2c0.1-0.6,0.6-1,1.2-1c0.6,0.1,1,0.6,0.9,1.2
					C567.7,356.5,567.2,356.9,566.6,356.8z M578.1,358.1l-8.3-1.2l0.2-1.6l8.3,1.2L578.1,358.1z"/>
				<path class="st18" d="M576.3,345.6l-1,6.8c1.5,0,2.4-1,2.6-2.4c0.1-1-0.2-2-1-2.6l0.7-1.3c1.3,0.9,1.9,2.5,1.7,4.1
					c-0.3,2.4-2.4,4-5,3.7c-2.6-0.4-4.1-2.5-3.7-4.9c0.3-2.4,2.3-3.9,4.9-3.5C575.8,345.5,576,345.5,576.3,345.6z M574.7,346.9
					c-1.5,0-2.4,0.9-2.6,2.3c-0.2,1.4,0.4,2.5,1.9,3L574.7,346.9z"/>
				<path class="st18" d="M576.3,335.5l4.8,0.7l-0.2,1.6l-4.7-0.7c-1.4-0.2-2.4,0.5-2.6,1.7c-0.2,1.2,0.3,2.6,2.1,2.9l4.5,0.6
					l-0.2,1.6l-8.3-1.2l0.2-1.6l1.3,0.2c-0.9-0.6-1.2-2.1-1.1-3C572.4,336.3,574,335.2,576.3,335.5z"/>
				<path class="st18" d="M574,327.1l1.4,0.5c-0.3,0.4-0.4,0.9-0.5,1.2c-0.2,1.7,1.5,2.6,3.7,2.9l3,0.4l-0.2,1.6l-8.3-1.2l0.2-1.6
					l1.9,0.3c-1.4-0.6-1.9-1.5-1.8-2.6C573.6,328,573.9,327.4,574,327.1z"/>
				<path class="st18" d="M571,325.5c-0.6-0.1-1-0.6-0.9-1.2c0.1-0.6,0.6-1,1.2-1c0.6,0.1,1,0.6,0.9,1.3
					C572.1,325.1,571.6,325.5,571,325.5z M582.5,326.7l-8.3-1.2l0.2-1.6l8.3,1.2L582.5,326.7z"/>
				<path class="st18" d="M579.3,314.2l4.8,0.7l-0.2,1.6l-4.7-0.7c-1.4-0.2-2.4,0.5-2.6,1.7c-0.2,1.2,0.3,2.6,2.1,2.9l4.5,0.6
					l-0.2,1.6l-8.3-1.2l0.2-1.6l1.3,0.2c-0.9-0.6-1.2-2.1-1.1-3C575.4,314.9,577,313.8,579.3,314.2z"/>
				<path class="st18" d="M577.1,304.5l0.2-1.6l7.2,1c3.9,0.6,5.2,2.5,4.8,5.3c-0.2,1.5-1.2,2.8-2.8,3.4l-0.5-1.4
					c1-0.4,1.7-1.3,1.8-2.2c0.3-1.8-0.6-3.1-3.4-3.5l-0.2,0c0.9,0.7,1.3,2,1.1,3.2c-0.3,2.3-2.4,3.9-5,3.6c-2.6-0.4-4.1-2.5-3.8-4.8
					c0.2-1.2,0.9-2.3,1.9-2.8L577.1,304.5z M581.3,305.1c-1.8-0.3-3.1,1.1-3.3,2.4c-0.2,1.5,0.8,2.9,2.5,3.1
					c1.7,0.2,3.1-0.8,3.3-2.3C584,306.8,583,305.3,581.3,305.1z"/>
			</g>
		</g>
	</g>
	<g>
		<defs>
			<rect id="SVGID_00000071545635208562673010000006285819271614535593_" width="655" height="550"/>
		</defs>
		<clipPath id="SVGID_00000029022288095950159460000016519335934202811272_">
			<use xlink:href="#SVGID_00000071545635208562673010000006285819271614535593_"  style="overflow:visible;"/>
		</clipPath>
		<g style="clip-path:url(#SVGID_00000029022288095950159460000016519335934202811272_);">
			<g class="st17">
				<path class="st18" d="M387.6,333l-1.5-0.2c0.1-0.3,0.2-1,0.2-1.1c0.1-1.6-1-2.2-2.4-2.3l-12.6-0.4l0.1-1.6l12.6,0.4
					c2.2,0.1,4,1.2,3.9,4C387.9,332,387.7,332.6,387.6,333z"/>
			</g>
			<g class="st17">
				<path class="st18" d="M375.7,318l0.1-1.6l8.4,0.3l-0.1,1.6l-1.5-0.1c1,0.6,1.6,1.8,1.6,3.1c-0.1,2.2-2,4.1-4.6,4
					c-2.5-0.1-4.3-2-4.3-4.3c0-1.3,0.6-2.4,1.6-3L375.7,318z M379.9,318.1c-1.7-0.1-3,1.4-3,2.8c-0.1,1.5,1.3,2.8,2.8,2.9
					c1.6,0.1,3-1.1,3-2.7C382.8,319.6,381.6,318.2,379.9,318.1z"/>
			</g>
			<g class="st17">
				<path class="st18" d="M384.6,306.4l-0.1,2.1l-4.2,3.7l4.1,0.1l-0.1,1.6l-13-0.5l0.1-1.6l7.5,0.3l-2.9-3l0.1-2.2l3.5,3.7
					L384.6,306.4z"/>
			</g>
			<g class="st17">
				<path class="st18" d="M380.4,306.1c-2.7-0.1-4.3-2.2-4.3-4.5s1.9-4.3,4.6-4.3c2.7,0.1,4.4,2.2,4.3,4.6
					C384.9,304.3,383,306.2,380.4,306.1z M380.6,298.9c-1.7-0.1-3,1.2-3,2.7c-0.1,1.5,1.1,2.8,2.8,2.9c1.7,0.1,3-1.2,3-2.7
					C383.5,300.3,382.4,299,380.6,298.9z"/>
				<path class="st18" d="M381,286.4c2.6,0.1,4.4,2.1,4.3,4.4c0,1.2-0.7,2.4-1.6,2.9l1.3,0l-0.1,1.6l-13-0.5l0.1-1.6l5.9,0.2
					c-1-0.6-1.5-1.8-1.4-3.1C376.6,288.1,378.4,286.3,381,286.4z M381,288c-1.7-0.1-3,1.1-3,2.7c0,1.4,1,2.9,2.8,2.9
					c1.8,0.1,3-1.2,3.1-2.7C383.9,289.3,382.6,288,381,288z"/>
				<path class="st18" d="M382.8,284.9l0.1-1.5c0.7,0,1.3-0.6,1.4-1.6c0-1.1-0.5-1.7-1.1-1.7c-0.6,0-1,0.5-1.1,1.1l-0.3,1.1
					c-0.4,1.4-1.1,2.2-2.5,2.1c-1.4,0-2.4-1.3-2.4-3c0-1.4,0.9-2.9,2.5-2.8l-0.1,1.5c-0.6,0-1.1,0.6-1.1,1.3c0,0.8,0.5,1.4,1.1,1.4
					c0.6,0,0.9-0.5,1-1l0.3-1.2c0.5-1.7,1.6-2.1,2.5-2.1c1.6,0.1,2.5,1.6,2.4,3.3C385.6,283.4,384.6,284.9,382.8,284.9z"/>
				<path class="st18" d="M377.4,269.6l0.1-1.6l7.2,0.3c4,0.1,5.4,2,5.3,4.8c-0.1,1.5-0.9,2.9-2.4,3.7l-0.7-1.4
					c1-0.5,1.5-1.5,1.6-2.4c0.1-1.9-0.9-3-3.8-3.1l-0.3,0c0.9,0.6,1.5,1.8,1.4,3c-0.1,2.3-1.9,4.1-4.6,4.1c-2.7-0.1-4.3-2-4.3-4.3
					c0-1.3,0.6-2.4,1.6-3L377.4,269.6z M381.6,269.8c-1.8-0.1-3,1.4-3,2.8c-0.1,1.5,1.1,2.8,2.8,2.9c1.7,0.1,3-1.1,3.1-2.6
					C384.5,271.2,383.4,269.8,381.6,269.8z"/>
				<path class="st18" d="M377.8,258.7l0.1-1.6l8.4,0.3l-0.1,1.6l-1.5-0.1c1,0.6,1.6,1.8,1.6,3.1c-0.1,2.2-2,4.1-4.6,4
					c-2.5-0.1-4.3-2-4.3-4.3c0-1.3,0.6-2.4,1.6-3L377.8,258.7z M382,258.8c-1.7-0.1-3,1.4-3,2.8c-0.1,1.5,1.3,2.8,2.8,2.9
					c1.6,0.1,3-1.1,3-2.7C384.9,260.3,383.7,258.9,382,258.8z"/>
				<path class="st18" d="M383.9,255.3l0.1-1.5c0.7,0,1.3-0.6,1.4-1.6c0-1.1-0.5-1.7-1.1-1.7c-0.6,0-1,0.5-1.1,1.1l-0.3,1.1
					c-0.4,1.4-1.1,2.2-2.5,2.1c-1.4,0-2.4-1.3-2.4-3c0-1.4,0.9-2.9,2.5-2.8l-0.1,1.5c-0.6,0-1.1,0.6-1.1,1.3c0,0.8,0.5,1.4,1.1,1.4
					c0.6,0,0.9-0.5,1-1l0.3-1.2c0.5-1.7,1.6-2.1,2.5-2.1c1.6,0.1,2.5,1.6,2.4,3.3C386.6,253.7,385.6,255.3,383.9,255.3z"/>
				<path class="st18" d="M384.2,247.4l0.1-1.5c0.7,0,1.3-0.6,1.4-1.6c0-1.1-0.5-1.7-1.1-1.7c-0.6,0-1,0.5-1.1,1.1l-0.3,1.1
					c-0.4,1.4-1.1,2.2-2.5,2.1c-1.4,0-2.4-1.3-2.4-3c0-1.4,0.9-2.9,2.5-2.8l-0.1,1.5c-0.6,0-1.1,0.6-1.1,1.3c0,0.8,0.5,1.4,1.1,1.4
					c0.6,0,0.9-0.5,1-1l0.3-1.2c0.5-1.7,1.6-2.1,2.5-2.1c1.6,0.1,2.5,1.6,2.4,3.3C386.9,245.9,385.9,247.4,384.2,247.4z"/>
				<path class="st18" d="M383.7,231l-0.2,6.8c1.5-0.2,2.3-1.2,2.4-2.7c0-1-0.4-2-1.2-2.5l0.6-1.3c1.4,0.8,2.2,2.3,2.1,3.9
					c-0.1,2.4-1.9,4.3-4.6,4.2c-2.7-0.1-4.3-2.1-4.2-4.5c0.1-2.4,1.9-4.1,4.5-4C383.2,231,383.4,231,383.7,231z M382.3,232.5
					c-1.4,0.1-2.3,1.1-2.4,2.5c0,1.4,0.7,2.5,2.2,2.8L382.3,232.5z"/>
			</g>
		</g>
	</g>
	<g>
		<defs>
			<rect id="SVGID_00000023266030316883433210000018144142220293058213_" width="655" height="550"/>
		</defs>
		<clipPath id="SVGID_00000121979565489763364620000011055381352887826578_">
			<use xlink:href="#SVGID_00000023266030316883433210000018144142220293058213_"  style="overflow:visible;"/>
		</clipPath>
		<g style="clip-path:url(#SVGID_00000121979565489763364620000011055381352887826578_);">
			<g class="st17">
				<path class="st18" d="M216,127.5l0.1,1.6l-9.4,1.6l8.3,3.5l0.1,1.4l-7.9,4.4l9.5,0.6l0.1,1.6l-12.5-0.9l-0.1-1.5l9-4.9l-9.4-3.9
					l-0.1-1.5L216,127.5z"/>
			</g>
			<g class="st17">
				<path class="st18" d="M207.1,119l-0.1-1.6l8.4-0.4l0.1,1.6l-1.5,0.1c1,0.5,1.8,1.6,1.9,3c0.1,2.2-1.6,4.2-4.2,4.3
					c-2.5,0.1-4.5-1.6-4.6-4c-0.1-1.3,0.4-2.5,1.4-3.1L207.1,119z M211.3,118.8c-1.7,0.1-2.9,1.6-2.8,3c0.1,1.5,1.5,2.7,3.1,2.6
					c1.6-0.1,2.9-1.4,2.8-2.9C214.3,120,213,118.7,211.3,118.8z"/>
				<path class="st18" d="M206.7,109.3l1.5,0.2c-0.2,0.5-0.2,0.9-0.2,1.2c0.1,1.7,1.9,2.2,4.1,2.1l3.1-0.2l0.1,1.6l-8.4,0.4
					l-0.1-1.6l1.9-0.1c-1.5-0.4-2.2-1.1-2.2-2.2C206.4,110.2,206.6,109.6,206.7,109.3z"/>
				<path class="st18" d="M214.5,99.8l0.1,2.1l-3.9,4.1l4.1-0.2l0.1,1.6l-13,0.7l-0.1-1.6l7.5-0.4l-3.1-2.8l-0.1-2.2l3.8,3.4
					L214.5,99.8z"/>
				<path class="st18" d="M205.9,95l1.3-0.1l0.1,1.8l7-0.4l0.1,1.6l-7,0.4l0.1,1.5l-1.3,0.1l-0.1-1.5l-3.2,0.2l-0.1-1.6l3.2-0.2
					L205.9,95z"/>
			</g>
		</g>
	</g>
	<g>
		<defs>
			<rect id="SVGID_00000134222174967407990450000010518582251060492437_" width="655" height="550"/>
		</defs>
		<clipPath id="SVGID_00000113355076945272194000000013040977866348514447_">
			<use xlink:href="#SVGID_00000134222174967407990450000010518582251060492437_"  style="overflow:visible;"/>
		</clipPath>
		<g style="clip-path:url(#SVGID_00000113355076945272194000000013040977866348514447_);">
			<g class="st17">
				<path class="st18" d="M297.8,56.7l-1.6,0l-1.1-9.5l-4,8.1l-1.4,0l-3.9-8.1l-1.2,9.4l-1.6,0l1.6-12.4l1.5,0l4.3,9.2l4.5-9.2
					l1.5,0L297.8,56.7z"/>
			</g>
			<g class="st17">
				<path class="st18" d="M306.8,48.4l1.6,0l-0.1,8.4l-1.6,0l0-1.5c-0.6,1-1.7,1.7-3.1,1.7c-2.2,0-4.1-1.9-4.1-4.5
					c0-2.5,1.9-4.4,4.2-4.4c1.3,0,2.4,0.6,3,1.6L306.8,48.4z M306.7,52.6c0-1.7-1.4-2.9-2.8-3c-1.5,0-2.8,1.3-2.8,2.9
					c0,1.6,1.2,3,2.7,3C305.4,55.5,306.7,54.3,306.7,52.6z"/>
				<path class="st18" d="M316.5,48.6l-0.3,1.5c-0.4-0.2-0.9-0.3-1.2-0.3c-1.7,0-2.4,1.8-2.4,4l0,3.1l-1.6,0l0.1-8.4l1.6,0l0,1.9
					c0.4-1.5,1.3-2.1,2.4-2.1C315.6,48.2,316.2,48.4,316.5,48.6z"/>
				<path class="st18" d="M317.7,45.4c0-0.6,0.5-1,1.1-1c0.6,0,1.1,0.5,1.1,1.1c0,0.6-0.5,1-1.1,1C318.2,46.4,317.7,46,317.7,45.4z
					 M318,56.9l0.1-8.4l1.6,0l-0.1,8.4L318,56.9z"/>
				<path class="st18" d="M330.2,53.5l-6.8-0.1c0.2,1.5,1.3,2.3,2.7,2.3c1,0,2-0.5,2.5-1.3l1.3,0.6c-0.7,1.5-2.3,2.2-3.9,2.2
					c-2.4,0-4.3-1.8-4.3-4.5c0-2.7,2-4.4,4.4-4.4c2.4,0,4.2,1.8,4.1,4.4C330.2,53,330.2,53.2,330.2,53.5z M328.7,52.1
					c-0.2-1.4-1.2-2.3-2.6-2.3c-1.4,0-2.4,0.7-2.7,2.2L328.7,52.1z"/>
				<path class="st18" d="M340.1,52.2l0,4.9l-1.6,0l0-4.8c0-1.4-0.8-2.3-2-2.3c-1.2,0-2.6,0.7-2.6,2.5l0,4.6l-1.6,0l0.1-8.4l1.6,0
					l0,1.3c0.5-1,1.9-1.5,2.8-1.5C338.9,48.4,340.2,49.9,340.1,52.2z"/>
				<path class="st18" d="M342,54.6l1.5,0c0,0.7,0.6,1.3,1.7,1.3c1.1,0,1.7-0.5,1.7-1.2c0-0.6-0.5-1-1.1-1.1l-1.1-0.3
					c-1.4-0.4-2.2-1.1-2.2-2.4c0-1.4,1.2-2.5,2.9-2.5c1.4,0,2.9,0.8,2.9,2.5l-1.5,0c0-0.6-0.7-1.1-1.3-1.1c-0.8,0-1.4,0.5-1.4,1.2
					c0,0.6,0.5,0.9,1.1,1l1.2,0.3c1.7,0.4,2.2,1.5,2.2,2.5c0,1.6-1.5,2.5-3.3,2.5C343.6,57.3,342.1,56.4,342,54.6z"/>
				<path class="st18" d="M354.6,48.8l0,1.4l-1.8,0l-0.1,7.1l-1.6,0l0.1-7.1l-1.5,0l0-1.4l1.5,0l0-3.2l1.6,0l0,3.2L354.6,48.8z"/>
			</g>
			<g class="st17">
				<path class="st18" d="M361.8,49l-0.3,1.5c-0.4-0.2-0.9-0.3-1.2-0.3c-1.7,0-2.4,1.8-2.4,4l0,3.1l-1.6,0l0.1-8.4l1.6,0l0,1.9
					c0.4-1.5,1.3-2.1,2.4-2.1C360.9,48.6,361.5,48.8,361.8,49z"/>
			</g>
			<g class="st17">
				<path class="st18" d="M369.7,48.9l1.6,0l-0.1,8.4l-1.6,0l0-1.5c-0.6,1-1.7,1.7-3.1,1.7c-2.2,0-4.1-1.9-4.1-4.5
					c0-2.5,1.9-4.4,4.2-4.4c1.3,0,2.4,0.6,3,1.6L369.7,48.9z M369.6,53.1c0-1.7-1.4-2.9-2.8-3c-1.5,0-2.8,1.3-2.8,2.9
					c0,1.6,1.2,3,2.7,3C368.3,56.1,369.6,54.8,369.6,53.1z"/>
				<path class="st18" d="M382.3,53.6c0,2.4-1.8,4.1-4.3,4c-0.4,0-1.1-0.1-1.7-0.3l0.3-1.4c0.4,0.1,0.9,0.2,1.3,0.2
					c1.6,0,2.7-1.1,2.7-2.7c0-1.6-1.2-2.7-2.8-2.7l-0.7,0l0-1.3l0.5,0c1.1,0,1.8-0.9,1.9-2c0-1.1-0.7-1.8-1.9-1.8
					c-1.3,0-2.1,0.7-2.2,2.6l-0.1,9.1l-1.6,0l0.1-9.1c0-2.7,1.5-4.1,3.7-4c2.1,0,3.5,1.3,3.4,3.1c0,1.1-0.5,2.1-1.4,2.7
					C381.3,50.5,382.3,51.9,382.3,53.6z"/>
				<path class="st18" d="M392.3,54l-6.8-0.1c0.2,1.5,1.3,2.3,2.7,2.3c1,0,2-0.5,2.5-1.3l1.3,0.6c-0.7,1.5-2.3,2.2-3.9,2.2
					c-2.4,0-4.3-1.8-4.3-4.5c0-2.7,2-4.4,4.4-4.4c2.4,0,4.2,1.8,4.1,4.4C392.4,53.5,392.4,53.8,392.3,54z M390.8,52.6
					c-0.2-1.4-1.2-2.3-2.6-2.3c-1.4,0-2.4,0.7-2.7,2.2L390.8,52.6z"/>
			</g>
		</g>
	</g>
	<g>
		<defs>
			<rect id="SVGID_00000000203869994953567500000016636945698287049621_" width="655" height="550"/>
		</defs>
		<clipPath id="SVGID_00000042733682969257565060000016527656148988753081_">
			<use xlink:href="#SVGID_00000000203869994953567500000016636945698287049621_"  style="overflow:visible;"/>
		</clipPath>
		<g style="clip-path:url(#SVGID_00000042733682969257565060000016527656148988753081_);">
			<g class="st17">
				<path class="st18" d="M171.8,489.7l1.7,0.1L169,502l-1.4,0l-2-7.9l-2.5,7.8l-1.4,0l-3.8-12.5l1.7,0.1l2.8,9.9l2.6-8l1.2,0l2,8.2
					L171.8,489.7z"/>
			</g>
			<g class="st17">
				<path class="st18" d="M182,498.9l-6.8-0.2c0.2,1.5,1.2,2.3,2.7,2.4c1,0,2-0.4,2.5-1.2l1.3,0.6c-0.8,1.4-2.3,2.2-3.9,2.1
					c-2.4-0.1-4.3-1.9-4.2-4.6c0.1-2.7,2.1-4.3,4.5-4.2c2.4,0.1,4.1,1.9,4,4.5C182,498.5,182,498.7,182,498.9z M180.5,497.5
					c-0.1-1.4-1.1-2.3-2.5-2.4c-1.4,0-2.5,0.7-2.8,2.2L180.5,497.5z"/>
				<path class="st18" d="M191.9,497.9l-0.2,4.9l-1.6-0.1l0.2-4.8c0-1.4-0.8-2.3-2-2.4c-1.2,0-2.6,0.6-2.7,2.4l-0.2,4.6l-1.6-0.1
					l0.3-8.4l1.6,0.1l0,1.3c0.5-1,1.9-1.4,2.8-1.4C190.8,494.1,192,495.6,191.9,497.9z"/>
			</g>
			<g class="st17">
				<path class="st18" d="M201.5,494.7l0,1.3l-5.4,5.5l5.2,0.2l-0.1,1.5l-7.4-0.3l0-1.3l5.3-5.5l-4.8-0.2l0.1-1.5L201.5,494.7z"/>
			</g>
			<g class="st17">
				<path class="st18" d="M211.2,500l-6.8-0.2c0.2,1.5,1.2,2.3,2.7,2.4c1,0,2-0.4,2.5-1.2l1.3,0.6c-0.8,1.4-2.3,2.2-3.9,2.1
					c-2.4-0.1-4.3-1.9-4.2-4.6c0.1-2.7,2.1-4.3,4.5-4.2c2.4,0.1,4.1,1.9,4,4.5C211.3,499.5,211.3,499.7,211.2,500z M209.8,498.6
					c-0.1-1.4-1.1-2.3-2.5-2.4c-1.4,0-2.5,0.7-2.8,2.2L209.8,498.6z"/>
				<path class="st18" d="M213.3,503.6l0.5-13l1.6,0.1l-0.5,13L213.3,503.6z"/>
				<path class="st18" d="M217,501.2l1.5,0.1c0,0.7,0.6,1.3,1.6,1.4c1.1,0,1.7-0.5,1.7-1.1c0-0.6-0.5-1-1.1-1.1l-1.1-0.3
					c-1.4-0.4-2.2-1.1-2.1-2.5c0-1.4,1.3-2.4,3-2.4c1.4,0,2.9,0.9,2.8,2.5l-1.5-0.1c0-0.6-0.6-1.1-1.3-1.1c-0.8,0-1.4,0.5-1.4,1.1
					c0,0.6,0.5,0.9,1,1l1.2,0.3c1.7,0.5,2.1,1.6,2.1,2.5c-0.1,1.6-1.6,2.5-3.3,2.4C218.5,504,217,503,217,501.2z"/>
				<path class="st18" d="M238.8,499.6l-0.2,4.9l-1.6-0.1l0.2-4.8c0-1.4-0.7-2.4-1.9-2.4c-1.5-0.1-2.3,0.9-2.4,2.8l-0.1,4.2
					l-1.6-0.1l0.2-4.8c0-1.4-0.7-2.4-1.8-2.4c-1.2,0-2.4,0.7-2.5,2.5L227,504l-1.6-0.1l0.3-8.4l1.6,0.1l0,1.3
					c0.4-0.9,1.6-1.5,2.8-1.4c1.2,0,2.3,0.7,2.7,1.9c0.8-1.5,2.1-1.7,3-1.7C237.8,495.8,238.9,497.2,238.8,499.6z"/>
				<path class="st18" d="M248.2,496.4l1.6,0.1l-0.3,8.4l-1.6-0.1l0.1-1.5c-0.6,1-1.8,1.6-3.1,1.6c-2.2-0.1-4.1-2-4-4.6
					c0.1-2.5,2-4.3,4.3-4.3c1.3,0,2.4,0.6,3,1.6L248.2,496.4z M248,500.6c0.1-1.7-1.4-3-2.8-3c-1.5-0.1-2.8,1.3-2.9,2.8
					c-0.1,1.6,1.1,3,2.7,3C246.6,503.5,247.9,502.3,248,500.6z"/>
				<path class="st18" d="M258.5,496.7l1.6,0.1l-0.3,8.4l-1.6-0.1l0-1.3c-0.5,1-1.9,1.5-2.8,1.4c-2.1-0.1-3.4-1.5-3.3-3.9l0.2-4.9
					l1.6,0.1l-0.2,4.8c0,1.4,0.8,2.4,1.9,2.4c1.2,0,2.6-0.6,2.7-2.4L258.5,496.7z"/>
				<path class="st18" d="M270.5,502l-6.8-0.2c0.2,1.5,1.2,2.3,2.7,2.4c1,0,2-0.4,2.5-1.2l1.3,0.6c-0.8,1.4-2.3,2.2-3.9,2.1
					c-2.4-0.1-4.3-1.9-4.2-4.6c0.1-2.7,2.1-4.3,4.5-4.2c2.4,0.1,4.1,1.9,4,4.5C270.6,501.6,270.5,501.8,270.5,502z M269,500.6
					c-0.1-1.4-1.1-2.3-2.5-2.4c-1.4,0-2.5,0.7-2.8,2.2L269,500.6z"/>
				<path class="st18" d="M278.3,497.5L278,499c-0.4-0.2-0.9-0.3-1.2-0.3c-1.7-0.1-2.4,1.7-2.5,3.9l-0.1,3.1l-1.6-0.1l0.3-8.4
					l1.6,0.1l-0.1,1.9c0.5-1.5,1.3-2.1,2.4-2C277.4,497.2,278,497.3,278.3,497.5z"/>
			</g>
		</g>
	</g>
	<g>
		<defs>
			<rect id="SVGID_00000069386726178388212870000012484375678957361086_" width="655" height="550"/>
		</defs>
		<clipPath id="SVGID_00000178165015965160250550000017887589195523259784_">
			<use xlink:href="#SVGID_00000069386726178388212870000012484375678957361086_"  style="overflow:visible;"/>
		</clipPath>
		<g style="clip-path:url(#SVGID_00000178165015965160250550000017887589195523259784_);">
			<g class="st17">
				<path class="st18" d="M283.3,390.8l1.7-0.3l-1.9,13l-1.4,0.3l-3.6-7.3l-0.8,8.1l-1.4,0.3l-6.4-11.4l1.7-0.3l4.9,9.1l0.8-8.4
					l1.2-0.2l3.8,7.5L283.3,390.8z"/>
			</g>
			<g class="st17">
				<path class="st18" d="M295.2,397.7l-6.7,1.2c0.5,1.4,1.7,2,3.1,1.7c1-0.2,1.8-0.8,2.2-1.7l1.4,0.3c-0.4,1.6-1.8,2.6-3.4,2.9
					c-2.4,0.4-4.6-1-5.1-3.6c-0.5-2.6,1.1-4.7,3.4-5.1c2.4-0.4,4.4,0.9,4.9,3.6C295.2,397.2,295.2,397.4,295.2,397.7z M293.5,396.6
					c-0.5-1.4-1.6-2-3-1.8c-1.4,0.3-2.3,1.2-2.2,2.7L293.5,396.6z"/>
				<path class="st18" d="M304.7,394.6l0.9,4.8l-1.5,0.3l-0.9-4.7c-0.3-1.4-1.3-2.1-2.4-1.9c-1.2,0.2-2.4,1.2-2.1,2.9l0.8,4.5
					l-1.5,0.3l-1.5-8.3l1.5-0.3l0.2,1.3c0.3-1.1,1.6-1.8,2.5-2C302.8,391.1,304.3,392.2,304.7,394.6z"/>
			</g>
			<g class="st17">
				<path class="st18" d="M313.3,389.4l0.2,1.3l-4.1,6.5l5.1-0.9l0.3,1.5l-7.3,1.3l-0.2-1.3l4-6.5l-4.7,0.9l-0.3-1.5L313.3,389.4z"
					/>
			</g>
			<g class="st17">
				<path class="st18" d="M324,392.3l-6.7,1.2c0.5,1.4,1.7,2,3.1,1.7c1-0.2,1.8-0.8,2.2-1.7l1.4,0.3c-0.4,1.6-1.8,2.6-3.4,2.9
					c-2.4,0.4-4.6-1-5.1-3.6c-0.5-2.6,1.1-4.7,3.4-5.1c2.4-0.4,4.4,0.9,4.9,3.6C324,391.9,324,392.1,324,392.3z M322.3,391.3
					c-0.5-1.4-1.6-2-3-1.8c-1.4,0.3-2.3,1.2-2.2,2.7L322.3,391.3z"/>
				<path class="st18" d="M326.8,395.4l-2.4-12.8l1.5-0.3l2.4,12.8L326.8,395.4z"/>
				<path class="st18" d="M329.9,392.3l1.4-0.3c0.1,0.7,0.9,1.2,1.9,1c1-0.2,1.6-0.8,1.4-1.5c-0.1-0.6-0.7-0.9-1.3-0.9l-1.2-0.1
					c-1.5-0.1-2.4-0.6-2.6-2c-0.3-1.4,0.7-2.7,2.4-3c1.4-0.3,3,0.2,3.3,1.9l-1.5,0.3c-0.1-0.6-0.9-0.9-1.5-0.8
					c-0.8,0.1-1.2,0.8-1.1,1.4c0.1,0.6,0.7,0.8,1.2,0.8l1.3,0.1c1.8,0.1,2.4,1.1,2.6,2c0.3,1.5-1,2.8-2.7,3.1
					C332,394.7,330.3,394,329.9,392.3z"/>
				<path class="st18" d="M343.7,383.7l1.5-0.3l1.3,7.1c0.7,3.9-0.8,5.7-3.5,6.2c-1.5,0.3-3-0.2-4.1-1.5l1.2-0.9
					c0.7,0.8,1.8,1.2,2.7,1c1.8-0.3,2.8-1.6,2.2-4.4l0-0.2c-0.4,1-1.5,1.8-2.7,2c-2.3,0.4-4.5-1-5-3.6c-0.5-2.6,1.1-4.7,3.3-5.1
					c1.2-0.2,2.5,0.1,3.2,1L343.7,383.7z M344.5,387.8c-0.3-1.8-2-2.6-3.3-2.3c-1.5,0.3-2.5,1.7-2.2,3.4c0.3,1.6,1.7,2.7,3.2,2.4
					C343.7,391,344.8,389.6,344.5,387.8z"/>
				<path class="st18" d="M354.5,381.7l1.5-0.3l1.5,8.3L356,390l-0.3-1.5c-0.4,1.1-1.4,2-2.7,2.2c-2.2,0.4-4.4-1.1-4.9-3.6
					c-0.5-2.4,1-4.7,3.3-5.1c1.2-0.2,2.5,0.1,3.2,1L354.5,381.7z M355.2,385.9c-0.3-1.7-2-2.6-3.3-2.4c-1.5,0.3-2.5,1.8-2.2,3.4
					c0.3,1.6,1.7,2.7,3.3,2.4C354.5,389,355.6,387.5,355.2,385.9z"/>
				<path class="st18" d="M359.1,386.9l1.4-0.3c0.1,0.7,0.9,1.2,1.9,1c1-0.2,1.6-0.8,1.4-1.5c-0.1-0.6-0.7-0.9-1.3-0.9l-1.2-0.1
					c-1.5-0.1-2.4-0.6-2.6-2c-0.3-1.4,0.7-2.7,2.4-3c1.4-0.3,3,0.2,3.3,1.9l-1.5,0.3c-0.1-0.6-0.9-0.9-1.5-0.8
					c-0.8,0.1-1.2,0.8-1.1,1.4c0.1,0.6,0.7,0.8,1.2,0.8l1.3,0.1c1.8,0.1,2.4,1.1,2.6,2c0.3,1.5-1,2.8-2.7,3.1
					C361.2,389.3,359.5,388.6,359.1,386.9z"/>
				<path class="st18" d="M366.8,385.5l1.4-0.3c0.1,0.7,0.9,1.2,1.9,1c1-0.2,1.6-0.8,1.4-1.5c-0.1-0.6-0.7-0.9-1.3-0.9l-1.2-0.1
					c-1.5-0.1-2.4-0.6-2.6-2c-0.3-1.4,0.7-2.7,2.4-3c1.4-0.3,3,0.2,3.3,1.9l-1.5,0.3c-0.1-0.6-0.9-0.9-1.5-0.8
					c-0.8,0.1-1.2,0.8-1.1,1.4c0.1,0.6,0.7,0.8,1.2,0.8l1.3,0.1c1.8,0.1,2.4,1.1,2.6,2c0.3,1.5-1,2.8-2.7,3.1
					C368.9,387.8,367.2,387.2,366.8,385.5z"/>
				<path class="st18" d="M382.8,381.5l-6.7,1.2c0.5,1.4,1.7,2,3.1,1.7c1-0.2,1.8-0.8,2.2-1.7l1.4,0.3c-0.4,1.6-1.8,2.6-3.4,2.9
					c-2.4,0.4-4.6-1-5.1-3.6s1.1-4.7,3.4-5.1c2.4-0.4,4.4,0.9,4.9,3.6C382.7,381,382.7,381.2,382.8,381.5z M381,380.4
					c-0.5-1.4-1.6-2-3-1.8c-1.4,0.3-2.3,1.2-2.2,2.7L381,380.4z"/>
			</g>
		</g>
	</g>
	<g>
		<defs>
			<rect id="SVGID_00000019636269648138611730000008874432587540432274_" width="655" height="550"/>
		</defs>
		<clipPath id="SVGID_00000090252702938940296920000016770059182709987238_">
			<use xlink:href="#SVGID_00000019636269648138611730000008874432587540432274_"  style="overflow:visible;"/>
		</clipPath>
		<g style="clip-path:url(#SVGID_00000090252702938940296920000016770059182709987238_);">
			<g class="st17">
				<path class="st18" d="M201.7,193.4l0.1-1.5c0.3,0.1,1,0.1,1.2,0.1c1.6-0.1,2.1-1.3,2-2.6l-0.9-12.6l1.6-0.1l0.9,12.6
					c0.2,2.2-0.8,4.1-3.5,4.3C202.7,193.5,202.1,193.4,201.7,193.4z"/>
			</g>
			<g class="st17">
				<path class="st18" d="M215.4,180l1.6-0.1l0.6,8.4l-1.6,0.1l-0.1-1.5c-0.5,1-1.6,1.8-3,1.9c-2.2,0.2-4.2-1.6-4.4-4.1
					c-0.2-2.5,1.5-4.5,3.9-4.7c1.3-0.1,2.5,0.4,3.1,1.3L215.4,180z M215.7,184.1c-0.1-1.7-1.7-2.8-3.1-2.7c-1.5,0.1-2.7,1.5-2.5,3.1
					c0.1,1.6,1.4,2.9,3,2.8C214.6,187.2,215.8,185.8,215.7,184.1z"/>
			</g>
			<g class="st17">
				<path class="st18" d="M227.9,187.5l-2.1,0.1l-4.1-3.8l0.3,4.1l-1.6,0.1l-0.9-12.9l1.6-0.1l0.5,7.5l2.7-3.2l2.2-0.2l-3.3,3.9
					L227.9,187.5z"/>
			</g>
			<g class="st17">
				<path class="st18" d="M227.7,183.3c-0.2-2.7,1.7-4.5,4.1-4.7s4.5,1.4,4.7,4.1c0.2,2.7-1.7,4.6-4.1,4.7S227.9,186,227.7,183.3z
					 M234.9,182.8c-0.1-1.7-1.5-2.8-3-2.7c-1.5,0.1-2.7,1.4-2.6,3.1c0.1,1.7,1.5,2.9,3,2.7C233.8,185.8,235,184.5,234.9,182.8z"/>
				<path class="st18" d="M247.4,181.9c0.2,2.6-1.6,4.6-3.9,4.7c-1.2,0.1-2.5-0.4-3.1-1.3l0.1,1.3l-1.6,0.1l-0.9-13l1.6-0.1l0.4,5.9
					c0.5-1,1.6-1.7,2.9-1.7C245.2,177.7,247.2,179.3,247.4,181.9z M245.8,182c-0.1-1.7-1.4-2.8-3-2.7c-1.4,0.1-2.8,1.3-2.6,3.1
					c0.1,1.8,1.6,2.9,3,2.8C244.8,185.1,245.9,183.7,245.8,182z"/>
				<path class="st18" d="M249,183.6l1.5-0.1c0.1,0.7,0.7,1.3,1.8,1.2c1.1-0.1,1.7-0.6,1.6-1.3c0-0.6-0.6-0.9-1.2-1l-1.2-0.2
					c-1.4-0.3-2.3-0.9-2.4-2.3c-0.1-1.4,1-2.6,2.7-2.7c1.4-0.1,2.9,0.6,3.1,2.2l-1.5,0.1c-0.1-0.6-0.8-1-1.4-1
					c-0.8,0.1-1.3,0.6-1.3,1.3c0,0.6,0.6,0.8,1.1,0.9l1.3,0.2c1.8,0.3,2.3,1.3,2.4,2.3c0.1,1.6-1.3,2.7-3.1,2.8
					C250.8,186.1,249.2,185.3,249,183.6z"/>
				<path class="st18" d="M256.8,183l1.5-0.1c0.1,0.7,0.7,1.3,1.8,1.2c1.1-0.1,1.7-0.6,1.6-1.3c0-0.6-0.6-0.9-1.2-1l-1.2-0.2
					c-1.4-0.3-2.3-0.9-2.4-2.3c-0.1-1.4,1-2.6,2.7-2.7c1.4-0.1,2.9,0.6,3.1,2.2l-1.5,0.1c-0.1-0.6-0.8-1-1.4-1
					c-0.8,0.1-1.3,0.6-1.3,1.3c0,0.6,0.6,0.8,1.1,0.9l1.3,0.2c1.8,0.3,2.3,1.3,2.4,2.3c0.1,1.6-1.3,2.7-3.1,2.8
					C258.6,185.6,257,184.7,256.8,183z"/>
				<path class="st18" d="M268.9,176.2l0.1,1.3l-1.8,0.1l0.5,7l-1.6,0.1l-0.5-7l-1.5,0.1l-0.1-1.3l1.5-0.1l-0.2-3.2l1.6-0.1l0.2,3.2
					L268.9,176.2z"/>
			</g>
			<g class="st17">
				<path class="st18" d="M276,175.8l-0.1,1.5c-0.5-0.2-0.9-0.2-1.2-0.2c-1.7,0.1-2.2,2-2.1,4.2l0.2,3.1l-1.6,0.1l-0.6-8.4l1.6-0.1
					l0.1,1.9c0.3-1.5,1.1-2.2,2.2-2.3C275.2,175.6,275.8,175.7,276,175.8z"/>
			</g>
			<g class="st17">
				<path class="st18" d="M283.9,175.2l1.6-0.1l0.6,8.4l-1.6,0.1l-0.1-1.5c-0.5,1-1.6,1.8-3,1.9c-2.2,0.2-4.2-1.6-4.4-4.1
					c-0.2-2.5,1.5-4.5,3.9-4.7c1.3-0.1,2.5,0.4,3.1,1.3L283.9,175.2z M284.2,179.4c-0.1-1.7-1.7-2.8-3.1-2.7
					c-1.5,0.1-2.7,1.5-2.5,3.1c0.1,1.6,1.4,2.9,3,2.8C283.1,182.4,284.4,181.1,284.2,179.4z"/>
				<path class="st18" d="M296.9,178.8c0.2,2.4-1.5,4.2-4,4.4c-0.4,0-1.1,0-1.7-0.1l0.2-1.4c0.4,0.1,0.9,0.1,1.4,0.1
					c1.6-0.1,2.6-1.3,2.5-2.9c-0.1-1.6-1.4-2.6-3-2.5l-0.7,0l-0.1-1.3l0.5,0c1.1-0.1,1.8-1.1,1.7-2.2c-0.1-1.1-0.9-1.7-2-1.6
					c-1.3,0.1-2.1,0.9-2,2.7l0.6,9.1l-1.6,0.1l-0.6-9.1c-0.2-2.7,1.2-4.2,3.4-4.3c2.1-0.1,3.6,1,3.7,2.8c0.1,1.1-0.4,2.2-1.1,2.8
					C295.6,175.8,296.7,177.1,296.9,178.8z"/>
				<path class="st18" d="M306.9,178.5l-6.8,0.5c0.3,1.5,1.5,2.2,2.9,2.1c1-0.1,1.9-0.6,2.4-1.5l1.4,0.4c-0.6,1.5-2.1,2.4-3.7,2.5
					c-2.4,0.2-4.4-1.5-4.6-4.1c-0.2-2.7,1.6-4.5,4-4.7c2.4-0.2,4.3,1.4,4.5,4.1C306.9,178,306.9,178.2,306.9,178.5z M305.3,177.2
					c-0.3-1.4-1.4-2.2-2.8-2.1c-1.4,0.1-2.4,0.9-2.5,2.5L305.3,177.2z"/>
			</g>
		</g>
	</g>
	<g>
		<defs>
			<rect id="SVGID_00000061445041345679336680000014070208472013577405_" width="655" height="550"/>
		</defs>
		<clipPath id="SVGID_00000016041601608560446160000015138291291391794603_">
			<use xlink:href="#SVGID_00000061445041345679336680000014070208472013577405_"  style="overflow:visible;"/>
		</clipPath>
		<g style="clip-path:url(#SVGID_00000016041601608560446160000015138291291391794603_);">
			<g class="st17">
				<path class="st18" d="M418.8,157.8l0.4-1.5c0.3,0.1,1,0.3,1.1,0.3c1.6,0.3,2.4-0.7,2.6-2l2.2-12.4l1.6,0.3l-2.2,12.4
					c-0.4,2.1-1.7,3.8-4.5,3.3C419.7,158.2,419.2,158,418.8,157.8z"/>
			</g>
			<g class="st17">
				<path class="st18" d="M435.4,148.2l1.5,0.3l-1.5,8.3l-1.5-0.3l0.3-1.5c-0.7,0.9-2,1.4-3.3,1.1c-2.2-0.4-3.7-2.5-3.3-5.1
					c0.4-2.4,2.6-4,4.9-3.6c1.2,0.2,2.3,1,2.7,2L435.4,148.2z M434.6,152.3c0.3-1.7-0.9-3.1-2.3-3.4c-1.5-0.3-2.9,0.9-3.2,2.4
					c-0.3,1.6,0.7,3.1,2.2,3.4C432.8,155,434.3,154,434.6,152.3z"/>
			</g>
			<g class="st17">
				<path class="st18" d="M445.6,158.5l-2.1-0.4l-3.1-4.7l-0.7,4l-1.5-0.3l2.3-12.8l1.5,0.3l-1.3,7.4l3.4-2.4l2.1,0.4l-4.2,3
					L445.6,158.5z"/>
			</g>
			<g class="st17">
				<path class="st18" d="M446.4,154.4c0.5-2.6,2.7-4,5.1-3.6s4,2.5,3.6,5.1c-0.5,2.6-2.8,4-5.1,3.6
					C447.6,159.1,446,157,446.4,154.4z M453.6,155.6c0.3-1.7-0.8-3.1-2.3-3.4c-1.5-0.3-3,0.7-3.3,2.4c-0.3,1.7,0.7,3.1,2.3,3.4
					C451.8,158.3,453.3,157.4,453.6,155.6z"/>
				<path class="st18" d="M465.9,157.8c-0.5,2.6-2.6,4-4.9,3.6c-1.2-0.2-2.3-1-2.7-2l-0.2,1.3l-1.5-0.3l2.3-12.8l1.5,0.3l-1,5.8
					c0.7-0.9,2-1.2,3.2-1C464.8,153.1,466.3,155.2,465.9,157.8z M464.3,157.5c0.3-1.7-0.7-3.1-2.2-3.4c-1.3-0.2-3,0.6-3.3,2.4
					c-0.3,1.8,0.8,3.2,2.3,3.4C462.6,160.2,464,159.2,464.3,157.5z"/>
				<path class="st18" d="M467.1,159.8l1.4,0.3c-0.1,0.7,0.4,1.4,1.4,1.6c1,0.2,1.8-0.2,1.9-0.9c0.1-0.6-0.3-1-0.9-1.3l-1.1-0.5
					c-1.3-0.6-2-1.4-1.8-2.8c0.2-1.4,1.6-2.2,3.3-1.9c1.4,0.2,2.7,1.2,2.4,2.9l-1.5-0.3c0.1-0.6-0.5-1.2-1.1-1.3
					c-0.8-0.1-1.4,0.3-1.5,0.9c-0.1,0.6,0.4,1,0.9,1.2l1.2,0.5c1.6,0.7,1.9,1.8,1.7,2.8c-0.3,1.5-1.9,2.3-3.7,2
					C468.2,162.7,466.8,161.5,467.1,159.8z"/>
				<path class="st18" d="M474.8,161.2l1.4,0.3c-0.1,0.7,0.4,1.4,1.4,1.6c1,0.2,1.8-0.2,1.9-0.9c0.1-0.6-0.3-1-0.9-1.3l-1.1-0.5
					c-1.3-0.6-2-1.4-1.8-2.8c0.2-1.4,1.6-2.2,3.3-1.9c1.4,0.2,2.7,1.2,2.4,2.9l-1.5-0.3c0.1-0.6-0.5-1.2-1.1-1.3
					c-0.8-0.1-1.4,0.3-1.5,0.9c-0.1,0.6,0.4,1,0.9,1.2l1.2,0.5c1.6,0.7,1.9,1.8,1.7,2.8c-0.3,1.5-1.9,2.3-3.7,2
					C475.9,164.1,474.5,162.9,474.8,161.2z"/>
				<path class="st18" d="M488.2,157.5l-0.2,1.3l-1.8-0.3l-1.2,7l-1.5-0.3l1.2-7l-1.5-0.3l0.2-1.3l1.5,0.3l0.6-3.1l1.5,0.3l-0.5,3.1
					L488.2,157.5z"/>
			</g>
			<g class="st17">
				<path class="st18" d="M495.2,158.8l-0.5,1.4c-0.4-0.3-0.8-0.4-1.2-0.5c-1.6-0.3-2.6,1.4-3,3.6l-0.5,3l-1.6-0.3l1.5-8.3l1.6,0.3
					l-0.3,1.9c0.7-1.4,1.6-1.9,2.7-1.7C494.4,158.4,495,158.6,495.2,158.8z"/>
			</g>
			<g class="st17">
				<path class="st18" d="M503,160.1l1.5,0.3l-1.5,8.3l-1.5-0.3l0.3-1.5c-0.7,0.9-2,1.4-3.3,1.1c-2.2-0.4-3.7-2.5-3.3-5.1
					c0.4-2.4,2.6-4,4.9-3.6c1.2,0.2,2.3,1,2.7,2L503,160.1z M502.3,164.2c0.3-1.7-0.9-3.1-2.3-3.4c-1.5-0.3-2.9,0.9-3.2,2.4
					c-0.3,1.6,0.7,3.1,2.2,3.4C500.4,166.9,502,165.9,502.3,164.2z"/>
				<path class="st18" d="M514.7,166.8c-0.4,2.3-2.4,3.7-4.9,3.3c-0.4-0.1-1.1-0.3-1.6-0.5l0.6-1.3c0.4,0.2,0.9,0.4,1.3,0.4
					c1.5,0.3,2.8-0.6,3.1-2.2c0.3-1.6-0.8-2.9-2.3-3.2l-0.7-0.1l0.2-1.3l0.5,0.1c1.1,0.2,2-0.6,2.2-1.7c0.2-1.1-0.4-1.8-1.6-2
					c-1.3-0.2-2.2,0.4-2.6,2.2l-1.6,9l-1.5-0.3l1.6-9c0.5-2.7,2.2-3.7,4.3-3.4c2.1,0.4,3.2,1.8,2.9,3.6c-0.2,1.1-0.9,2-1.8,2.4
					C514.2,163.5,515,165.1,514.7,166.8z"/>
				<path class="st18" d="M524.5,168.8l-6.7-1.2c0,1.5,0.9,2.5,2.3,2.7c1,0.2,2-0.1,2.6-0.9l1.2,0.8c-1,1.3-2.6,1.8-4.2,1.5
					c-2.4-0.4-3.9-2.5-3.5-5.1c0.5-2.6,2.7-4,5-3.6c2.4,0.4,3.8,2.4,3.4,5.1C524.6,168.4,524.6,168.6,524.5,168.8z M523.2,167.2
					c0.1-1.5-0.8-2.4-2.2-2.7c-1.4-0.2-2.5,0.3-3,1.8L523.2,167.2z"/>
			</g>
		</g>
	</g>
	<g>
		<defs>
			<rect id="SVGID_00000034809599304227162710000018139114402117533836_" width="655" height="550"/>
		</defs>
		<clipPath id="SVGID_00000060012700608236290220000007734807488520269997_">
			<use xlink:href="#SVGID_00000034809599304227162710000018139114402117533836_"  style="overflow:visible;"/>
		</clipPath>
		<g style="clip-path:url(#SVGID_00000060012700608236290220000007734807488520269997_);">
			<g class="st17">
				<path class="st18" d="M441.2,321.3l0.1-1.6l12.4,0.9l-0.1,1.6l-5.4-0.4l-0.4,6.1l5.4,0.4l-0.1,1.6l-12.4-0.9l0.1-1.6l5.5,0.4
					l0.4-6.1L441.2,321.3z"/>
			</g>
			<g class="st17">
				<path class="st18" d="M449.7,318c-2.7-0.2-4.3-2.3-4.1-4.7s2.1-4.3,4.7-4.1c2.7,0.2,4.3,2.3,4.1,4.7S452.3,318.2,449.7,318z
					 M450.2,310.8c-1.7-0.1-3,1.1-3.1,2.6c-0.1,1.5,1,2.9,2.7,3c1.7,0.1,3-1.1,3.1-2.6C453,312.3,451.9,310.9,450.2,310.8z"/>
				<path class="st18" d="M454.7,307.3l-13-0.9l0.1-1.6l13,0.9L454.7,307.3z"/>
				<path class="st18" d="M447,295.7l1.3,0.1l5.3,5.6l0.4-5.2l1.5,0.1l-0.5,7.4l-1.3-0.1l-5.3-5.5l-0.3,4.8l-1.5-0.1L447,295.7z"/>
				<path class="st18" d="M451.7,280.6l4.8,0.3l-0.1,1.6l-4.8-0.3c-1.4-0.1-2.4,0.6-2.5,1.8c-0.1,1.5,0.9,2.3,2.7,2.5l4.2,0.3
					l-0.1,1.6l-4.8-0.3c-1.4-0.1-2.4,0.6-2.5,1.7c-0.1,1.2,0.6,2.4,2.4,2.5l4.5,0.3l-0.1,1.6l-8.4-0.6l0.1-1.6l1.3,0.1
					c-0.9-0.5-1.4-1.6-1.3-2.8c0.1-1.2,0.8-2.2,2-2.6c-1.5-0.9-1.7-2.2-1.6-3.1C447.8,281.5,449.3,280.4,451.7,280.6z"/>
				<path class="st18" d="M448.8,271.1l0.1-1.6l8.4,0.6l-0.1,1.6l-1.5-0.1c1,0.6,1.6,1.8,1.5,3.2c-0.2,2.2-2.1,4-4.7,3.8
					c-2.5-0.2-4.3-2.1-4.1-4.5c0.1-1.3,0.7-2.4,1.7-2.9L448.8,271.1z M452.9,271.4c-1.7-0.1-3,1.2-3.1,2.7c-0.1,1.5,1.2,2.8,2.7,3
					c1.6,0.1,3-1,3.1-2.6C455.8,273,454.7,271.6,452.9,271.4z"/>
				<path class="st18" d="M449.5,261.5l1.5,0.4c-0.2,0.4-0.4,0.9-0.4,1.2c-0.1,1.7,1.7,2.5,3.9,2.6l3.1,0.2l-0.1,1.6l-8.4-0.6
					l0.1-1.6l1.9,0.1c-1.4-0.5-2-1.4-2-2.5C449.2,262.3,449.4,261.7,449.5,261.5z"/>
				<path class="st18" d="M458.5,253l-0.1,2.1l-4.4,3.6l4.1,0.3l-0.1,1.6l-13-0.9l0.1-1.6l7.5,0.5l-2.8-3.1l0.2-2.2l3.4,3.8
					L458.5,253z"/>
				<path class="st18" d="M450.4,247.2l1.3,0.1l-0.1,1.8l7,0.5l-0.1,1.6l-7-0.5l-0.1,1.5l-1.3-0.1l0.1-1.5l-3.2-0.2l0.1-1.6l3.2,0.2
					L450.4,247.2z"/>
			</g>
		</g>
	</g>
	<g>
		<defs>
			<rect id="SVGID_00000180363510550266205200000001817412524903005059_" width="655" height="550"/>
		</defs>
		<clipPath id="SVGID_00000137100339156715143890000013724374308595900577_">
			<use xlink:href="#SVGID_00000180363510550266205200000001817412524903005059_"  style="overflow:visible;"/>
		</clipPath>
		<g style="clip-path:url(#SVGID_00000137100339156715143890000013724374308595900577_);">
			<g class="st17">
				<path class="st18" d="M419.2,483.9l0.3-1.7l11.5,6.2l-0.2,1.4l-8.1,0.9l7.4,3.5l-0.2,1.4l-12.9,2.1l0.3-1.7l10.2-1.5l-7.6-3.6
					l0.2-1.2l8.4-1L419.2,483.9z"/>
			</g>
			<g class="st17">
				<path class="st18" d="M429.7,475l-1.1,6.7c1.5,0,2.5-0.9,2.7-2.3c0.2-1-0.1-2-0.9-2.6l0.8-1.2c1.3,1,1.9,2.6,1.6,4.2
					c-0.4,2.4-2.5,4-5.1,3.5c-2.6-0.4-4-2.6-3.6-5s2.4-3.8,5-3.4C429.3,474.9,429.5,475,429.7,475z M428.1,476.3
					c-1.5,0-2.4,0.8-2.7,2.2c-0.2,1.4,0.3,2.5,1.8,3L428.1,476.3z"/>
				<path class="st18" d="M422.2,471.9c-0.6-0.1-0.9-0.7-0.8-1.3c0.1-0.6,0.6-1,1.2-0.9c0.6,0.1,0.9,0.7,0.8,1.3
					C423.3,471.6,422.7,472,422.2,471.9z M433.6,473.5l-8.3-1.4l0.3-1.5l8.3,1.4L433.6,473.5z"/>
				<path class="st18" d="M430.7,460.8l4.8,0.8l-0.3,1.5l-4.7-0.8c-1.4-0.2-2.4,0.5-2.6,1.6c-0.2,1.2,0.3,2.7,2.1,3l4.5,0.8
					l-0.3,1.5l-8.3-1.4l0.3-1.5l1.3,0.2c-0.9-0.7-1.2-2.1-1-3C426.8,461.5,428.4,460.4,430.7,460.8z"/>
				<path class="st18" d="M428.8,451.1l0.3-1.5l7.1,1.2c3.9,0.7,5.1,2.7,4.6,5.4c-0.3,1.5-1.3,2.8-2.8,3.4l-0.5-1.4
					c1-0.4,1.7-1.2,1.9-2.2c0.3-1.8-0.5-3.1-3.3-3.6l-0.2,0c0.8,0.7,1.2,2,1,3.2c-0.4,2.3-2.5,3.9-5.1,3.4c-2.6-0.4-4-2.6-3.7-4.9
					c0.2-1.2,1-2.3,2-2.7L428.8,451.1z M432.9,451.8c-1.8-0.3-3.1,1-3.3,2.3c-0.3,1.5,0.8,2.9,2.4,3.2c1.7,0.3,3.1-0.7,3.4-2.2
					C435.6,453.6,434.7,452.1,432.9,451.8z"/>
				<path class="st18" d="M430.6,440.3l0.3-1.5l8.3,1.4l-0.3,1.5l-1.5-0.2c0.9,0.7,1.4,2,1.2,3.3c-0.4,2.2-2.5,3.8-5,3.3
					c-2.5-0.4-4.1-2.5-3.7-4.9c0.2-1.2,0.9-2.3,2-2.7L430.6,440.3z M434.7,441c-1.7-0.3-3.1,1-3.4,2.3c-0.3,1.5,0.9,2.9,2.4,3.2
					c1.6,0.3,3.1-0.7,3.4-2.2C437.4,442.8,436.4,441.3,434.7,441z"/>
				<path class="st18" d="M432.3,430.8l1.4,0.5c-0.3,0.4-0.4,0.8-0.5,1.2c-0.3,1.7,1.4,2.6,3.6,3l3,0.5l-0.3,1.6l-8.3-1.4l0.3-1.6
					l1.9,0.3c-1.4-0.7-1.9-1.6-1.7-2.7C431.8,431.6,432.1,431,432.3,430.8z"/>
			</g>
			<g class="st17">
				<path class="st18" d="M433.1,425.2l1.3,0.2l-0.3,1.8l7,1.2l-0.3,1.5l-7-1.2l-0.2,1.5l-1.3-0.2l0.2-1.5l-3.1-0.5l0.3-1.5l3.1,0.5
					L433.1,425.2z"/>
			</g>
			<g class="st17">
				<path class="st18" d="M439.5,416.6l-1.1,6.7c1.5,0,2.5-0.9,2.7-2.3c0.2-1-0.1-2-0.9-2.6l0.8-1.2c1.3,1,1.8,2.6,1.6,4.2
					c-0.4,2.4-2.5,4-5.1,3.5c-2.6-0.4-4-2.6-3.6-5c0.4-2.4,2.4-3.8,5-3.4C439,416.5,439.3,416.6,439.5,416.6z M437.9,417.9
					c-1.5,0-2.4,0.8-2.7,2.2c-0.2,1.4,0.3,2.5,1.8,3L437.9,417.9z"/>
				<path class="st18" d="M439.8,406.6l4.8,0.8l-0.3,1.5l-4.7-0.8c-1.4-0.2-2.4,0.5-2.6,1.6s0.3,2.7,2.1,3l4.5,0.8l-0.3,1.5
					l-8.3-1.4l0.3-1.5l1.3,0.2c-0.9-0.7-1.2-2.1-1-3C435.9,407.3,437.5,406.2,439.8,406.6z"/>
			</g>
		</g>
	</g>
	<g>
		<defs>
			<rect id="SVGID_00000081609147716827801860000007186802196333623434_" width="655" height="550"/>
		</defs>
		<clipPath id="SVGID_00000022520914134513517080000014361784302812084902_">
			<use xlink:href="#SVGID_00000081609147716827801860000007186802196333623434_"  style="overflow:visible;"/>
		</clipPath>
		<g style="clip-path:url(#SVGID_00000022520914134513517080000014361784302812084902_);">
			<g class="st17">
				<path class="st18" d="M214.2,56.9l-1.6,0l-1.1-9.5l-4,8.1l-1.4,0l-3.9-8.1l-1.2,9.4l-1.6,0l1.6-12.4l1.5,0l4.3,9.2l4.5-9.2
					l1.5,0L214.2,56.9z"/>
			</g>
			<g class="st17">
				<path class="st18" d="M223.2,48.6l1.6,0l-0.1,8.4l-1.6,0l0-1.5c-0.6,1-1.7,1.7-3.1,1.7c-2.2,0-4.1-1.9-4.1-4.5
					c0-2.5,1.9-4.4,4.2-4.4c1.3,0,2.4,0.6,3,1.6L223.2,48.6z M223.1,52.8c0-1.7-1.4-2.9-2.8-3c-1.5,0-2.8,1.3-2.8,2.9
					c0,1.6,1.2,3,2.7,3C221.8,55.7,223.1,54.5,223.1,52.8z"/>
				<path class="st18" d="M232.9,48.8l-0.3,1.5c-0.4-0.2-0.9-0.3-1.2-0.3c-1.7,0-2.4,1.8-2.4,4l0,3.1l-1.6,0l0.1-8.4l1.6,0l0,1.9
					c0.4-1.5,1.3-2.1,2.4-2.1C232,48.4,232.6,48.6,232.9,48.8z"/>
				<path class="st18" d="M241.9,57.1l-2.1,0L236,53l0,4.1l-1.6,0l0.1-13l1.6,0l-0.1,7.5l2.9-2.9l2.2,0l-3.6,3.6L241.9,57.1z"/>
				<path class="st18" d="M247.2,48.8l0,1.4l-1.8,0l-0.1,7.1l-1.6,0l0.1-7.1l-1.5,0l0-1.4l1.5,0l0-3.2l1.6,0l0,3.2L247.2,48.8z"/>
			</g>
		</g>
	</g>
	<g>
		<defs>
			<rect id="SVGID_00000052105526694751569860000016323632129872260502_" width="655" height="550"/>
		</defs>
		<clipPath id="SVGID_00000173138884361883283500000008302840564450056847_">
			<use xlink:href="#SVGID_00000052105526694751569860000016323632129872260502_"  style="overflow:visible;"/>
		</clipPath>
		<g style="clip-path:url(#SVGID_00000173138884361883283500000008302840564450056847_);">
			<g>
				<defs>
					<rect id="SVGID_00000101823216307054008710000001240028404460780731_" width="655" height="550"/>
				</defs>
				<clipPath id="SVGID_00000041288572706779928580000014835194302910822588_">
					<use xlink:href="#SVGID_00000101823216307054008710000001240028404460780731_"  style="overflow:visible;"/>
				</clipPath>
				<path style="clip-path:url(#SVGID_00000041288572706779928580000014835194302910822588_);fill:#ED726A;" d="M514.5,76.2
					c9.7,0,17.5-7.8,17.5-17.5s-7.8-17.5-17.5-17.5S497,49,497,58.7C497,68.3,504.8,76.2,514.5,76.2"/>
			</g>
			<g>
				<defs>
					<rect id="SVGID_00000029724782812484470480000016046288820190908579_" width="655" height="550"/>
				</defs>
				<clipPath id="SVGID_00000178202504732053366430000009960748236589295504_">
					<use xlink:href="#SVGID_00000029724782812484470480000016046288820190908579_"  style="overflow:visible;"/>
				</clipPath>
				<path style="clip-path:url(#SVGID_00000178202504732053366430000009960748236589295504_);fill:#FFFFFF;" d="M512.6,58.2v-5.1
					h3.5c1.6,0,2.3,1.3,2.3,2.6c0,1.2-0.6,2.5-2.3,2.5H512.6z M509.1,50v17.4h3.5v-6.1h3.6c3.9,0,5.7-2.8,5.7-5.6s-1.7-5.7-5.7-5.7
					C516.2,50,509.1,50,509.1,50z"/>
			</g>
			<g>
				<defs>
					<rect id="SVGID_00000088133222809696369400000018371159972872667050_" width="655" height="550"/>
				</defs>
				<clipPath id="SVGID_00000080893147572358053290000014491652841798878084_">
					<use xlink:href="#SVGID_00000088133222809696369400000018371159972872667050_"  style="overflow:visible;"/>
				</clipPath>
				<path style="clip-path:url(#SVGID_00000080893147572358053290000014491652841798878084_);fill:#ED726A;" d="M602.7,550.1
					c9.7,0,17.5-7.8,17.5-17.5s-7.8-17.5-17.5-17.5s-17.5,7.8-17.5,17.5S593,550.1,602.7,550.1"/>
			</g>
			<g>
				<defs>
					<rect id="SVGID_00000108269988467737233410000014136985327718903693_" width="655" height="550"/>
				</defs>
				<clipPath id="SVGID_00000154421876382475082340000002378798122344647594_">
					<use xlink:href="#SVGID_00000108269988467737233410000014136985327718903693_"  style="overflow:visible;"/>
				</clipPath>
				<path style="clip-path:url(#SVGID_00000154421876382475082340000002378798122344647594_);fill:#FFFFFF;" d="M600.8,532.1V527
					h3.5c1.6,0,2.3,1.3,2.3,2.6c0,1.2-0.6,2.5-2.3,2.5H600.8z M597.3,523.9v17.4h3.5v-6.1h3.6c3.9,0,5.7-2.8,5.7-5.6
					s-1.7-5.7-5.7-5.7L597.3,523.9L597.3,523.9z"/>
			</g>
			<g>
				<defs>
					<rect id="SVGID_00000094617946386859217690000010389523274675526018_" width="655" height="550"/>
				</defs>
				<clipPath id="SVGID_00000065044638838820576600000009050392327550633634_">
					<use xlink:href="#SVGID_00000094617946386859217690000010389523274675526018_"  style="overflow:visible;"/>
				</clipPath>
				<path style="clip-path:url(#SVGID_00000065044638838820576600000009050392327550633634_);fill:#ED726A;" d="M17.7,319.3
					c9.7,0,17.5-7.8,17.5-17.5s-7.8-17.5-17.5-17.5s-17.5,7.8-17.5,17.5C0.2,311.5,8,319.3,17.7,319.3"/>
			</g>
			<g>
				<defs>
					<rect id="SVGID_00000120556428061540996780000003534875890711069627_" width="655" height="550"/>
				</defs>
				<clipPath id="SVGID_00000023980392855699540880000011979614275639047345_">
					<use xlink:href="#SVGID_00000120556428061540996780000003534875890711069627_"  style="overflow:visible;"/>
				</clipPath>
				<path style="clip-path:url(#SVGID_00000023980392855699540880000011979614275639047345_);fill:#FFFFFF;" d="M15.8,301.4v-5.1
					h3.5c1.6,0,2.3,1.3,2.3,2.6c0,1.2-0.6,2.5-2.3,2.5H15.8z M12.3,293.2v17.4h3.5v-6.1h3.6c3.9,0,5.7-2.8,5.7-5.6
					c0-2.8-1.7-5.7-5.7-5.7L12.3,293.2L12.3,293.2z"/>
			</g>
		</g>
	</g>
	<g>
		<defs>
			<rect id="SVGID_00000096766188861915011890000000466463156739512452_" width="655" height="550"/>
		</defs>
		<clipPath id="SVGID_00000150824446876863788120000001546006745732650426_">
			<use xlink:href="#SVGID_00000096766188861915011890000000466463156739512452_"  style="overflow:visible;"/>
		</clipPath>
		
			<rect x="463.1" y="518.4" style="clip-path:url(#SVGID_00000150824446876863788120000001546006745732650426_);fill:#ED726A;" width="115" height="29.8"/>
	</g>
	<g>
		<defs>
			<rect id="SVGID_00000088112801775184251380000012030840536665267592_" width="655" height="550"/>
		</defs>
		<clipPath id="SVGID_00000108310778982842924580000011849193476599267756_">
			<use xlink:href="#SVGID_00000088112801775184251380000012030840536665267592_"  style="overflow:visible;"/>
		</clipPath>
		<g style="clip-path:url(#SVGID_00000108310778982842924580000011849193476599267756_);">
			<g class="st17">
				<path class="st38" d="M483,526.1l1.7,0l-3.8,12.4l-1.6,0l-3.6-12.4l1.7,0l2.8,9.7L483,526.1z"/>
			</g>
			<g class="st17">
				<path class="st38" d="M485.1,534.3c0-2.7,2-4.4,4.4-4.4c2.4,0,4.4,1.8,4.4,4.4c0,2.7-2.1,4.4-4.5,4.4
					C487,538.8,485,537,485.1,534.3z M492.3,534.4c0-1.7-1.3-2.9-2.8-3c-1.5,0-2.8,1.2-2.8,2.9c0,1.7,1.3,3,2.8,3
					C491,537.4,492.3,536.2,492.3,534.4z"/>
				<path class="st38" d="M502.7,530.3l1.6,0l-0.1,7.2c0,4-1.8,5.5-4.6,5.4c-1.5,0-2.9-0.8-3.8-2.3l1.3-0.7c0.5,1,1.5,1.5,2.4,1.5
					c1.9,0,3-1,3-3.9l0-0.3c-0.6,0.9-1.8,1.5-3,1.5c-2.3,0-4.2-1.8-4.2-4.5c0-2.7,1.9-4.4,4.2-4.4c1.3,0,2.4,0.6,3,1.6L502.7,530.3z
					 M502.7,534.5c0-1.8-1.5-2.9-2.8-2.9c-1.5,0-2.8,1.2-2.8,2.9c0,1.7,1.2,3,2.7,3C501.3,537.4,502.7,536.3,502.7,534.5z"/>
				<path class="st38" d="M514.9,535.3l-6.8-0.1c0.2,1.5,1.3,2.3,2.7,2.3c1,0,2-0.5,2.5-1.3l1.3,0.6c-0.7,1.5-2.3,2.2-3.9,2.2
					c-2.4,0-4.3-1.8-4.3-4.5c0-2.7,2-4.4,4.4-4.4c2.4,0,4.2,1.8,4.1,4.4C514.9,534.8,514.9,535.1,514.9,535.3z M513.4,533.9
					c-0.2-1.4-1.2-2.3-2.6-2.3c-1.4,0-2.4,0.7-2.7,2.2L513.4,533.9z"/>
				<path class="st38" d="M517,538.8l0.1-13l1.6,0l-0.1,13L517,538.8z"/>
				<path class="st38" d="M532.1,530.6l1.7,0l-3.2,8.4l-1.3,0l-2.3-6.3l-2.3,6.2l-1.3,0l-3.1-8.4l1.7,0l2.1,6l2.2-6l1.5,0l2.1,6
					L532.1,530.6z"/>
				<path class="st38" d="M535.1,527.5c0-0.6,0.5-1,1.1-1c0.6,0,1.1,0.5,1.1,1.1c0,0.6-0.5,1-1.1,1
					C535.6,528.5,535.1,528.1,535.1,527.5z M535.3,539l0.1-8.4l1.6,0l-0.1,8.4L535.3,539z"/>
				<path class="st38" d="M547.6,535.6l-6.8-0.1c0.2,1.5,1.3,2.3,2.7,2.3c1,0,2-0.5,2.5-1.3l1.3,0.6c-0.7,1.5-2.3,2.2-3.9,2.2
					c-2.4,0-4.3-1.8-4.3-4.5c0-2.7,2-4.4,4.4-4.4c2.4,0,4.2,1.8,4.1,4.4C547.6,535.1,547.6,535.3,547.6,535.6z M546,534.2
					c-0.2-1.4-1.2-2.3-2.6-2.3c-1.4,0-2.4,0.7-2.7,2.2L546,534.2z"/>
				<path class="st38" d="M549.1,536.7l1.5,0c0,0.7,0.6,1.3,1.7,1.3c1.1,0,1.7-0.5,1.7-1.2c0-0.6-0.5-1-1.1-1.1l-1.2-0.3
					c-1.4-0.4-2.2-1.1-2.2-2.4c0-1.4,1.2-2.5,2.9-2.5c1.4,0,2.9,0.8,2.9,2.5l-1.5,0c0-0.6-0.7-1.1-1.3-1.1c-0.8,0-1.4,0.5-1.4,1.2
					c0,0.6,0.5,0.9,1.1,1l1.2,0.3c1.7,0.4,2.2,1.5,2.2,2.5c0,1.6-1.5,2.5-3.3,2.5C550.7,539.4,549.1,538.4,549.1,536.7z"/>
				<path class="st38" d="M565.5,535.7l-6.8-0.1c0.2,1.5,1.3,2.3,2.7,2.3c1,0,2-0.5,2.5-1.3l1.3,0.6c-0.7,1.5-2.3,2.2-3.9,2.2
					c-2.4,0-4.3-1.8-4.3-4.5c0-2.7,2-4.4,4.4-4.4s4.2,1.8,4.1,4.4C565.5,535.3,565.5,535.5,565.5,535.7z M564,534.4
					c-0.2-1.4-1.2-2.3-2.6-2.3c-1.4,0-2.4,0.7-2.7,2.2L564,534.4z"/>
			</g>
		</g>
	</g>
	<g>
		<defs>
			<rect id="SVGID_00000003092568759337392990000011194009330032523951_" width="655" height="550"/>
		</defs>
		<clipPath id="SVGID_00000172420594184812702940000014885883361269958846_">
			<use xlink:href="#SVGID_00000003092568759337392990000011194009330032523951_"  style="overflow:visible;"/>
		</clipPath>
		
			<rect x="446.3" y="83.3" style="clip-path:url(#SVGID_00000172420594184812702940000014885883361269958846_);fill:#ED726A;" width="135" height="29.8"/>
	</g>
	<g>
		<defs>
			<rect id="SVGID_00000096018151754790459530000012264379684938775720_" width="655" height="550"/>
		</defs>
		<clipPath id="SVGID_00000015329243780485449340000007482552604661981879_">
			<use xlink:href="#SVGID_00000096018151754790459530000012264379684938775720_"  style="overflow:visible;"/>
		</clipPath>
		<g style="clip-path:url(#SVGID_00000015329243780485449340000007482552604661981879_);">
			<g class="st17">
				<path class="st38" d="M473.2,103.3l-1.6,0l-1.1-9.5l-4,8.1l-1.4,0l-3.9-8.1l-1.2,9.4l-1.6,0l1.6-12.4l1.5,0l4.3,9.2l4.5-9.2
					l1.5,0L473.2,103.3z"/>
			</g>
			<g class="st17">
				<path class="st38" d="M482.2,95l1.6,0l-0.1,8.4l-1.6,0l0-1.5c-0.6,1-1.7,1.7-3.1,1.7c-2.2,0-4.1-1.9-4.1-4.5
					c0-2.5,1.9-4.4,4.2-4.4c1.3,0,2.4,0.6,3,1.6L482.2,95z M482.1,99.2c0-1.7-1.4-2.9-2.8-3c-1.5,0-2.8,1.3-2.8,2.9
					c0,1.6,1.2,3,2.7,3C480.8,102.2,482.1,100.9,482.1,99.2z"/>
				<path class="st38" d="M491.9,95.2l-0.3,1.5c-0.4-0.2-0.9-0.3-1.2-0.3c-1.7,0-2.4,1.8-2.4,4l0,3.1l-1.6,0l0.1-8.4l1.6,0l0,1.9
					c0.4-1.5,1.3-2.1,2.4-2.1C491,94.9,491.6,95,491.9,95.2z"/>
				<path class="st38" d="M493.1,92c0-0.6,0.5-1,1.1-1c0.6,0,1.1,0.5,1.1,1.1c0,0.6-0.5,1-1.1,1C493.6,93.1,493.1,92.6,493.1,92z
					 M493.4,103.5l0.1-8.4l1.6,0l-0.1,8.4L493.4,103.5z"/>
				<path class="st38" d="M505.6,100.1l-6.8-0.1c0.2,1.5,1.3,2.3,2.7,2.3c1,0,2-0.5,2.5-1.3l1.3,0.6c-0.7,1.5-2.3,2.2-3.9,2.2
					c-2.4,0-4.3-1.8-4.3-4.5s2-4.4,4.4-4.4c2.4,0,4.2,1.8,4.1,4.4C505.6,99.6,505.6,99.9,505.6,100.1z M504.1,98.7
					c-0.2-1.4-1.2-2.3-2.6-2.3c-1.4,0-2.4,0.7-2.7,2.2L504.1,98.7z"/>
				<path class="st38" d="M515.5,98.9l0,4.9l-1.6,0l0-4.8c0-1.4-0.8-2.3-2-2.3c-1.2,0-2.6,0.7-2.6,2.5l0,4.6l-1.6,0l0.1-8.4l1.6,0
					l0,1.3c0.5-1,1.9-1.5,2.8-1.5C514.2,95.1,515.5,96.5,515.5,98.9z"/>
				<path class="st38" d="M531.3,99l0,4.9l-1.6,0l0-4.8c0-1.4-0.8-2.3-2-2.4c-1.5,0-2.3,1-2.3,2.9l0,4.2l-1.6,0l0-4.8
					c0-1.4-0.8-2.3-1.9-2.4c-1.2,0-2.4,0.8-2.4,2.5l0,4.6l-1.6,0l0.1-8.4l1.6,0l0,1.3c0.4-0.9,1.5-1.5,2.7-1.5
					c1.2,0,2.3,0.7,2.8,1.8c0.8-1.5,2.1-1.8,3-1.8C530.2,95.2,531.4,96.6,531.3,99z"/>
				<path class="st38" d="M540.6,95.5l1.6,0l-0.1,8.4l-1.6,0l0-1.5c-0.6,1-1.7,1.7-3.1,1.7c-2.2,0-4.1-1.9-4.1-4.5
					c0-2.5,1.9-4.4,4.2-4.4c1.3,0,2.4,0.6,3,1.6L540.6,95.5z M540.6,99.7c0-1.7-1.4-2.9-2.8-3c-1.5,0-2.8,1.3-2.8,2.9
					c0,1.6,1.2,3,2.7,3C539.2,102.7,540.6,101.4,540.6,99.7z"/>
				<path class="st38" d="M551,95.6l1.6,0l-0.1,8.4l-1.6,0l0-1.3c-0.5,1.1-1.9,1.5-2.8,1.5c-2.1,0-3.4-1.4-3.4-3.8l0-4.9l1.6,0
					l0,4.8c0,1.4,0.8,2.3,2,2.3c1.2,0,2.6-0.7,2.6-2.5L551,95.6z"/>
				<path class="st38" d="M563.1,100.6l-6.8-0.1c0.2,1.5,1.3,2.3,2.7,2.3c1,0,2-0.5,2.5-1.3l1.3,0.6c-0.7,1.5-2.3,2.2-3.9,2.2
					c-2.4,0-4.3-1.8-4.3-4.5c0-2.7,2-4.4,4.4-4.4c2.4,0,4.2,1.8,4.1,4.4C563.2,100.1,563.1,100.4,563.1,100.6z M561.6,99.2
					c-0.2-1.4-1.2-2.3-2.6-2.3c-1.4,0-2.4,0.7-2.7,2.2L561.6,99.2z"/>
				<path class="st38" d="M570.7,95.9l-0.3,1.5c-0.4-0.2-0.9-0.3-1.2-0.3c-1.7,0-2.4,1.8-2.4,4l0,3.1l-1.6,0l0.1-8.4l1.6,0l0,1.9
					c0.4-1.5,1.3-2.1,2.4-2.1C569.9,95.6,570.5,95.7,570.7,95.9z"/>
			</g>
		</g>
	</g>
	<g>
		<defs>
			<rect id="SVGID_00000016778301483615728300000012647420901405463198_" width="655" height="550"/>
		</defs>
		<clipPath id="SVGID_00000155838387279822313120000015565344330769697683_">
			<use xlink:href="#SVGID_00000016778301483615728300000012647420901405463198_"  style="overflow:visible;"/>
		</clipPath>
		<g style="clip-path:url(#SVGID_00000155838387279822313120000015565344330769697683_);">
			<g class="st17">
				<path class="st18" d="M510,349.5l-1.5-0.4c0.1-0.3,0.3-1,0.3-1.1c0.3-1.6-0.8-2.3-2.1-2.5l-12.4-2l0.3-1.6l12.4,2
					c2.1,0.3,3.8,1.7,3.4,4.4C510.3,348.5,510.1,349.1,510,349.5z"/>
			</g>
			<g class="st17">
				<path class="st18" d="M500,333.1l0.2-1.5l8.3,1.3l-0.2,1.5l-1.5-0.2c0.9,0.7,1.4,2,1.2,3.3c-0.3,2.2-2.5,3.8-5,3.4
					c-2.5-0.4-4.1-2.5-3.7-4.8c0.2-1.2,0.9-2.3,2-2.7L500,333.1z M504.1,333.7c-1.7-0.3-3.1,1-3.3,2.4c-0.2,1.5,0.9,2.9,2.5,3.2
					c1.6,0.3,3.1-0.7,3.3-2.3C506.8,335.5,505.8,334,504.1,333.7z"/>
			</g>
			<g class="st17">
				<path class="st18" d="M510.1,322.7l-0.3,2.1l-4.7,3.2l4.1,0.6l-0.2,1.5l-12.8-2l0.2-1.5l7.5,1.2l-2.5-3.3l0.3-2.2l3,4.1
					L510.1,322.7z"/>
			</g>
			<g class="st17">
				<path class="st18" d="M506,321.9c-2.6-0.4-4-2.7-3.7-5c0.4-2.4,2.4-4.1,5-3.7c2.6,0.4,4.1,2.7,3.7,5
					C510.7,320.6,508.6,322.3,506,321.9z M507.1,314.7c-1.7-0.3-3.1,0.8-3.3,2.4c-0.2,1.5,0.8,3,2.5,3.2c1.7,0.3,3.1-0.8,3.4-2.3
					C509.9,316.5,508.9,315,507.1,314.7z"/>
				<path class="st18" d="M509.1,302.4c2.6,0.4,4.1,2.6,3.7,4.9c-0.2,1.2-0.9,2.3-2,2.7l1.3,0.2l-0.2,1.5l-12.8-2l0.2-1.5l5.8,0.9
					c-0.9-0.7-1.2-2-1-3.2C504.4,303.6,506.5,302,509.1,302.4z M508.8,303.9c-1.7-0.3-3.1,0.8-3.3,2.3c-0.2,1.4,0.6,3,2.4,3.3
					c1.8,0.3,3.1-0.9,3.4-2.3C511.6,305.6,510.5,304.2,508.8,303.9z"/>
				<path class="st18" d="M511.1,301.2l0.2-1.4c0.7,0.1,1.4-0.4,1.6-1.4c0.2-1-0.3-1.8-0.9-1.9c-0.6-0.1-1,0.3-1.3,1l-0.4,1.1
					c-0.6,1.3-1.4,2-2.7,1.8c-1.4-0.2-2.3-1.6-2-3.2c0.2-1.4,1.2-2.7,2.9-2.5l-0.2,1.5c-0.6-0.1-1.2,0.5-1.3,1.2
					c-0.1,0.8,0.3,1.4,0.9,1.5c0.6,0.1,1-0.4,1.2-0.9l0.5-1.2c0.7-1.7,1.8-1.9,2.7-1.8c1.5,0.2,2.3,1.9,2,3.6
					C514,300,512.8,301.4,511.1,301.2z"/>
				<path class="st18" d="M512.1,279.3l4.8,0.8l-0.2,1.5l-4.7-0.7c-1.4-0.2-2.4,0.4-2.6,1.6c-0.3,1.5,0.7,2.4,2.5,2.7l4.2,0.7
					l-0.2,1.5l-4.7-0.7c-1.4-0.2-2.4,0.4-2.6,1.5c-0.2,1.2,0.4,2.5,2.2,2.7l4.5,0.7l-0.2,1.5l-8.3-1.3l0.2-1.5l1.3,0.2
					c-0.8-0.6-1.3-1.7-1.1-2.9c0.2-1.2,1-2.2,2.2-2.5c-1.4-1-1.5-2.3-1.3-3.2C508.2,279.9,509.8,279,512.1,279.3z"/>
				<path class="st18" d="M510,269.7l0.2-1.5l8.3,1.3l-0.2,1.5l-1.5-0.2c0.9,0.7,1.4,2,1.2,3.3c-0.3,2.2-2.5,3.8-5,3.4
					c-2.5-0.4-4.1-2.5-3.7-4.8c0.2-1.2,0.9-2.3,2-2.7L510,269.7z M514.2,270.3c-1.7-0.3-3.1,1-3.3,2.4c-0.2,1.5,0.9,2.9,2.5,3.2
					c1.6,0.2,3.1-0.7,3.3-2.3C516.9,272.1,515.9,270.6,514.2,270.3z"/>
				<path class="st18" d="M511.7,259.4l0.2-1.5l8.3,1.3l-0.2,1.5l-1.3-0.2c1,0.7,1.2,2.1,1.1,3c-0.3,2.1-1.9,3.1-4.2,2.8l-4.8-0.8
					l0.2-1.5l4.8,0.8c1.4,0.2,2.4-0.5,2.6-1.6c0.2-1.2-0.3-2.7-2.1-3L511.7,259.4z"/>
				<path class="st18" d="M518.4,248.1l-1.1,6.8c1.5,0,2.4-0.9,2.7-2.4c0.2-1-0.2-2-0.9-2.6l0.7-1.2c1.3,0.9,1.9,2.6,1.6,4.2
					c-0.4,2.4-2.4,4-5.1,3.6c-2.6-0.4-4-2.6-3.7-5c0.4-2.4,2.4-3.9,5-3.4C517.9,248,518.2,248.1,518.4,248.1z M516.8,249.4
					c-1.5,0-2.4,0.9-2.6,2.2c-0.2,1.4,0.4,2.5,1.8,3L516.8,249.4z"/>
				<path class="st18" d="M514.9,239.9l1.4,0.5c-0.3,0.4-0.4,0.8-0.5,1.2c-0.3,1.7,1.4,2.6,3.6,2.9l3,0.5l-0.2,1.6l-8.3-1.3l0.2-1.6
					l1.9,0.3c-1.4-0.7-1.9-1.6-1.7-2.7C514.4,240.7,514.7,240.1,514.9,239.9z"/>
			</g>
		</g>
	</g>
	<g>
		<defs>
			<rect id="SVGID_00000114036008516349001780000002788463284516795794_" width="655" height="550"/>
		</defs>
		<clipPath id="SVGID_00000052825116174014397140000014600633300841207207_">
			<use xlink:href="#SVGID_00000114036008516349001780000002788463284516795794_"  style="overflow:visible;"/>
		</clipPath>
		<g style="clip-path:url(#SVGID_00000052825116174014397140000014600633300841207207_);">
			<g class="st17">
				<path class="st18" d="M167.4,280.4l-0.6,1.4l-3.5-1.4l-4,10.1l-1.5-0.6l4-10.1l-3.5-1.4l0.6-1.4L167.4,280.4z"/>
			</g>
			<g class="st17">
				<path class="st18" d="M163.9,287.8c1-2.5,3.5-3.4,5.7-2.5c2.2,0.9,3.5,3.2,2.5,5.7c-1,2.5-3.5,3.4-5.7,2.5
					C164.2,292.7,163,290.3,163.9,287.8z M170.7,290.5c0.6-1.6-0.1-3.2-1.6-3.8c-1.4-0.6-3.1,0.1-3.7,1.7c-0.6,1.6,0.1,3.2,1.5,3.8
					C168.4,292.7,170,292.1,170.7,290.5z"/>
			</g>
			<g class="st17">
				<path class="st18" d="M182.3,295.1c-1,2.5-3.4,3.4-5.5,2.6c-1.2-0.5-2.1-1.4-2.2-2.5l-2,5l-1.5-0.6l4.6-11.6l1.5,0.6l-0.5,1.2
					c0.9-0.7,2.2-0.8,3.3-0.3C182.2,290.2,183.3,292.6,182.3,295.1z M180.8,294.5c0.6-1.6,0-3.2-1.5-3.8c-1.4-0.5-3.1,0-3.7,1.7
					c-0.7,1.7,0.3,3.3,1.6,3.8C178.6,296.8,180.2,296.1,180.8,294.5z"/>
			</g>
			<g class="st17">
				<path class="st18" d="M190.7,290.5c-1.4-0.5-2.1,0.2-2.5,1.2l-0.4,1l1.8,0.7l-0.5,1.3l-1.8-0.7l-2.6,6.6l-1.5-0.6l2.6-6.6
					l-1.5-0.6l0.5-1.3l1.5,0.6l0.3-0.8c0.8-2,2.2-3.1,4.3-2.3l0.8,0.3l-0.5,1.4L190.7,290.5z"/>
				<path class="st18" d="M202.3,302.2l-1.8,4.5l-1.5-0.6l1.7-4.4c0.5-1.3,0.1-2.5-1-2.9c-1.4-0.6-2.5,0.1-3.2,1.9l-1.5,3.9
					l-1.5-0.6l1.7-4.4c0.5-1.3,0.1-2.5-0.9-2.9c-1.1-0.4-2.5-0.2-3.1,1.5l-1.7,4.2l-1.5-0.6l3.1-7.8l1.5,0.6l-0.5,1.2
					c0.7-0.7,2-0.9,3.1-0.4c1.1,0.4,1.9,1.4,1.9,2.7c1.3-1.1,2.6-0.9,3.4-0.6C202.6,298.3,203.1,300,202.3,302.2z"/>
				<path class="st18" d="M212.2,302.3l1.5,0.6l-3.1,7.8l-1.5-0.6l0.5-1.4c-0.9,0.7-2.2,1-3.5,0.5c-2-0.8-3.2-3.2-2.2-5.6
					c0.9-2.3,3.3-3.4,5.5-2.6c1.2,0.5,2.1,1.4,2.2,2.5L212.2,302.3z M210.6,306.2c0.6-1.6-0.3-3.3-1.6-3.8c-1.4-0.6-3.1,0.2-3.6,1.7
					c-0.6,1.5,0.1,3.2,1.5,3.8C208.3,308.4,210,307.8,210.6,306.2z"/>
				<path class="st18" d="M221.1,305.9l-0.8,1.3c-0.3-0.4-0.7-0.6-1-0.7c-1.6-0.6-2.8,0.8-3.7,2.9l-1.1,2.9l-1.5-0.6l3.1-7.8
					l1.5,0.6l-0.7,1.8c0.9-1.2,1.9-1.5,3-1.1C220.5,305.3,221,305.7,221.1,305.9z"/>
				<path class="st18" d="M226.6,317l-2-0.8l-2.1-5.2l-1.5,3.8l-1.5-0.6l4.8-12.1l1.5,0.6l-2.8,7l3.8-1.7l2,0.8l-4.7,2.1L226.6,317z
					"/>
				<path class="st18" d="M234.5,311.1l-0.5,1.3l-1.7-0.7l-2.6,6.6l-1.5-0.6l2.6-6.6l-1.4-0.6l0.5-1.3l1.4,0.6l1.2-2.9l1.5,0.6
					l-1.2,2.9L234.5,311.1z"/>
			</g>
		</g>
	</g>
	<g>
		<defs>
			<rect id="SVGID_00000124145962986731475350000007298814907226209459_" width="655" height="550"/>
		</defs>
		<clipPath id="SVGID_00000134240308335475436810000009888711560370312114_">
			<use xlink:href="#SVGID_00000124145962986731475350000007298814907226209459_"  style="overflow:visible;"/>
		</clipPath>
		<g style="clip-path:url(#SVGID_00000134240308335475436810000009888711560370312114_);">
			<g class="st17">
				<path class="st18" d="M152.2,406.3l1.6,0.1l-0.9,12.4l-1.6-0.1l-5.1-9.8l-0.7,9.4l-1.6-0.1l0.9-12.4l1.6,0.1l5,9.8L152.2,406.3z
					"/>
			</g>
			<g class="st17">
				<path class="st18" d="M164,416.1l-6.8-0.5c0.1,1.5,1.2,2.4,2.6,2.5c1,0.1,2-0.3,2.5-1.1l1.3,0.6c-0.8,1.4-2.4,2.1-4,2
					c-2.4-0.2-4.2-2.1-4-4.7s2.2-4.2,4.6-4.1c2.4,0.2,4,2,3.9,4.7C164.1,415.6,164.1,415.8,164,416.1z M162.6,414.6
					c-0.1-1.5-1.1-2.3-2.4-2.4c-1.4-0.1-2.5,0.6-2.8,2.1L162.6,414.6z"/>
				<path class="st18" d="M172.6,411.8l1.6,0.1l-0.6,8.4l-1.6-0.1l0.1-1.3c-0.6,1-2,1.4-2.9,1.3c-2.1-0.1-3.3-1.6-3.1-4l0.3-4.8
					l1.6,0.1l-0.3,4.8c-0.1,1.4,0.7,2.4,1.9,2.5c1.2,0.1,2.6-0.5,2.8-2.3L172.6,411.8z"/>
				<path class="st18" d="M175.8,418l1.5,0.1c0,0.7,0.6,1.4,1.6,1.4c1.1,0.1,1.7-0.4,1.8-1.1c0-0.6-0.4-1-1.1-1.2l-1.1-0.3
					c-1.4-0.5-2.1-1.2-2-2.6c0.1-1.4,1.4-2.4,3-2.3c1.4,0.1,2.8,1,2.7,2.6l-1.5-0.1c0-0.6-0.6-1.1-1.3-1.2c-0.8-0.1-1.4,0.4-1.4,1.1
					c0,0.6,0.5,0.9,1,1.1l1.2,0.4c1.7,0.6,2.1,1.6,2,2.6c-0.1,1.6-1.7,2.4-3.4,2.3C177.2,420.7,175.7,419.7,175.8,418z"/>
				<path class="st18" d="M188.7,412.9l-0.1,1.3l-1.8-0.1l-0.5,7l-1.6-0.1l0.5-7l-1.5-0.1l0.1-1.3l1.5,0.1l0.2-3.2l1.6,0.1l-0.2,3.2
					L188.7,412.9z"/>
			</g>
			<g class="st17">
				<path class="st18" d="M195.8,413.5l-0.4,1.5c-0.4-0.2-0.9-0.3-1.2-0.4c-1.7-0.1-2.5,1.7-2.6,3.9l-0.2,3.1l-1.6-0.1l0.6-8.4
					l1.6,0.1l-0.1,1.9c0.5-1.4,1.4-2,2.5-2C194.9,413.1,195.5,413.3,195.8,413.5z"/>
			</g>
			<g class="st17">
				<path class="st18" d="M203.7,413.9l1.6,0.1l-0.6,8.4l-1.6-0.1l0.1-1.5c-0.6,1-1.8,1.6-3.2,1.5c-2.2-0.2-4-2.1-3.8-4.7
					c0.2-2.5,2.1-4.3,4.5-4.1c1.3,0.1,2.4,0.7,2.9,1.7L203.7,413.9z M203.4,418.1c0.1-1.7-1.2-3-2.7-3.1c-1.5-0.1-2.8,1.2-3,2.7
					c-0.1,1.6,1,3,2.6,3.1C201.8,421,203.3,419.8,203.4,418.1z"/>
				<path class="st18" d="M216,419.4c-0.2,2.4-2,3.9-4.6,3.8c-0.4,0-1.1-0.2-1.6-0.4l0.4-1.4c0.4,0.1,0.9,0.3,1.3,0.3
					c1.6,0.1,2.8-0.9,2.9-2.5c0.1-1.6-1.1-2.8-2.6-2.9l-0.7,0l0.1-1.3l0.5,0c1.1,0.1,1.9-0.8,2-1.9c0.1-1.1-0.6-1.8-1.8-1.9
					c-1.3-0.1-2.2,0.6-2.3,2.4l-0.6,9.1l-1.6-0.1l0.6-9.1c0.2-2.7,1.8-4,4-3.8c2.1,0.1,3.4,1.5,3.3,3.3c-0.1,1.1-0.7,2.1-1.5,2.6
					C215.2,416.2,216.1,417.7,216,419.4z"/>
				<path class="st18" d="M226,420.4l-6.8-0.5c0.1,1.5,1.2,2.4,2.6,2.5c1,0.1,2-0.3,2.5-1.1l1.3,0.6c-0.8,1.4-2.4,2.1-4,2
					c-2.4-0.2-4.2-2.1-4-4.7s2.2-4.2,4.6-4.1c2.4,0.2,4,2,3.9,4.7C226.1,419.9,226,420.2,226,420.4z M224.6,418.9
					c-0.1-1.5-1.1-2.3-2.4-2.4c-1.4-0.1-2.5,0.6-2.8,2.1L224.6,418.9z"/>
			</g>
		</g>
	</g>
	<g>
		<defs>
			<rect id="SVGID_00000101790159121903420770000017737176574533510281_" width="655" height="550"/>
		</defs>
		<clipPath id="SVGID_00000127762977114823728060000008541917247102974355_">
			<use xlink:href="#SVGID_00000101790159121903420770000017737176574533510281_"  style="overflow:visible;"/>
		</clipPath>
		
			<line style="clip-path:url(#SVGID_00000127762977114823728060000008541917247102974355_);fill:none;stroke:#FFFFFF;stroke-width:5.625;" x1="46.6" y1="275" x2="46.6" y2="427"/>
	</g>
	<g>
		<defs>
			<rect id="SVGID_00000085248845041443483360000012513876280361365428_" width="655" height="550"/>
		</defs>
		<clipPath id="SVGID_00000172441671564961408280000003884288418874164893_">
			<use xlink:href="#SVGID_00000085248845041443483360000012513876280361365428_"  style="overflow:visible;"/>
		</clipPath>
		<g style="clip-path:url(#SVGID_00000172441671564961408280000003884288418874164893_);">
			<g>
				<defs>
					<rect id="SVGID_00000034772047335166766680000003538457968005253773_" width="655" height="550"/>
				</defs>
				<clipPath id="SVGID_00000170249374932363577420000005716744661906472336_">
					<use xlink:href="#SVGID_00000034772047335166766680000003538457968005253773_"  style="overflow:visible;"/>
				</clipPath>
				
					<polyline style="clip-path:url(#SVGID_00000170249374932363577420000005716744661906472336_);fill:none;stroke:#FFFFFF;stroke-width:3;" points="
					160.3,217 114.6,226 75.1,265 46.6,275 -4.9,275 				"/>
			</g>
			<g>
				<defs>
					<rect id="SVGID_00000018233849976094067950000004445484450169730706_" width="655" height="550"/>
				</defs>
				<clipPath id="SVGID_00000028308958508625515050000014789681081171351434_">
					<use xlink:href="#SVGID_00000018233849976094067950000004445484450169730706_"  style="overflow:visible;"/>
				</clipPath>
				
					<polyline style="clip-path:url(#SVGID_00000028308958508625515050000014789681081171351434_);fill:none;stroke:#FFFFFF;stroke-width:3;" points="
					184.6,71 95.6,58.7 -4.9,17 				"/>
			</g>
		</g>
	</g>
	<g>
		<defs>
			<rect id="SVGID_00000137844489096857670840000012794653555190181050_" width="655" height="550"/>
		</defs>
		<clipPath id="SVGID_00000019643399567016057060000007965369382045944749_">
			<use xlink:href="#SVGID_00000137844489096857670840000012794653555190181050_"  style="overflow:visible;"/>
		</clipPath>
		
			<line style="clip-path:url(#SVGID_00000019643399567016057060000007965369382045944749_);fill:none;stroke:#FFFFFF;stroke-width:3;" x1="113.6" y1="226" x2="92.6" y2="58.7"/>
	</g>
	<g>
		<defs>
			<rect id="SVGID_00000053547697216222384750000014749691859179371953_" width="655" height="550"/>
		</defs>
		<clipPath id="SVGID_00000070805567622972291240000004617781981271401347_">
			<use xlink:href="#SVGID_00000053547697216222384750000014749691859179371953_"  style="overflow:visible;"/>
		</clipPath>
		
			<line style="clip-path:url(#SVGID_00000070805567622972291240000004617781981271401347_);fill:none;stroke:#FFFFFF;stroke-width:3;" x1="188.6" y1="128" x2="103.1" y2="137"/>
	</g>
	<g>
		<defs>
			<rect id="SVGID_00000134936793231332948430000000240257105344442302_" width="655" height="550"/>
		</defs>
		<clipPath id="SVGID_00000135655399149420270640000009059915881061879972_">
			<use xlink:href="#SVGID_00000134936793231332948430000000240257105344442302_"  style="overflow:visible;"/>
		</clipPath>
		
			<line style="clip-path:url(#SVGID_00000135655399149420270640000009059915881061879972_);fill:none;stroke:#FFFFFF;stroke-width:3;" x1="188.8" y1="98.1" x2="97.6" y2="87.9"/>
	</g>
	<g>
		<defs>
			<rect id="SVGID_00000160884819303168019450000008461864563342206092_" width="655" height="550"/>
		</defs>
		<clipPath id="SVGID_00000165234776598240619850000002570281045359389060_">
			<use xlink:href="#SVGID_00000160884819303168019450000008461864563342206092_"  style="overflow:visible;"/>
		</clipPath>
		<g style="clip-path:url(#SVGID_00000165234776598240619850000002570281045359389060_);">
			<g>
				<defs>
					<rect id="SVGID_00000026130734324122456220000004024714742748459952_" width="655" height="550"/>
				</defs>
				<clipPath id="SVGID_00000128480444957709364980000011374009322393476266_">
					<use xlink:href="#SVGID_00000026130734324122456220000004024714742748459952_"  style="overflow:visible;"/>
				</clipPath>
				
					<polyline style="clip-path:url(#SVGID_00000128480444957709364980000011374009322393476266_);fill:none;stroke:#FFFFFF;stroke-width:5.625;" points="
					-5.5,104 16.6,117 43.8,157 103.1,150 				"/>
			</g>
		</g>
	</g>
	<g>
		<defs>
			<rect id="SVGID_00000057865407363481178880000005064839326242434229_" width="655" height="550"/>
		</defs>
		<clipPath id="SVGID_00000173121980113179273200000008534624092460790956_">
			<use xlink:href="#SVGID_00000057865407363481178880000005064839326242434229_"  style="overflow:visible;"/>
		</clipPath>
		
			<line style="clip-path:url(#SVGID_00000173121980113179273200000008534624092460790956_);fill:none;stroke:#FFFFFF;stroke-width:3;" x1="92.6" y1="76.2" x2="17.6" y2="113"/>
	</g>
	<g>
		<defs>
			<rect id="SVGID_00000116194166646158986110000016012630256149965485_" width="655" height="550"/>
		</defs>
		<clipPath id="SVGID_00000068662114857761265710000012942999004473998498_">
			<use xlink:href="#SVGID_00000116194166646158986110000016012630256149965485_"  style="overflow:visible;"/>
		</clipPath>
		<g style="clip-path:url(#SVGID_00000068662114857761265710000012942999004473998498_);">
			<g class="st17">
				<path class="st18" d="M67.4,407.3v-1.6c1.1-0.1,2.2-1.1,2.2-2.8c0-1.6-1-2.5-2.1-2.5c-1.2,0-1.7,1.1-2,2.1l-0.4,1.6
					c-0.6,2.6-2.2,3-3.2,3c-2.1,0-3.6-1.9-3.6-4.1c0-2.2,1.4-3.9,3.6-3.9v1.6c-1.2,0-2.1,1-2.1,2.4c0,1.2,0.8,2.4,2.1,2.4
					c0.4,0,1.3-0.1,1.7-1.8l0.4-1.6c0.6-2.1,1.6-3.4,3.4-3.4c1.9,0,3.7,1.6,3.7,4.1C71.1,405.5,69.3,407.3,67.4,407.3z"/>
				<path class="st18" d="M62.5,390v-1.6h8.4v1.6h-1.5c1,0.6,1.7,1.7,1.7,3.1c0,2.2-1.9,4.1-4.4,4.1c-2.5,0-4.4-1.8-4.4-4.2
					c0-1.3,0.5-2.4,1.5-3H62.5z M66.7,390c-1.7,0-2.9,1.5-2.9,2.9c0,1.5,1.4,2.8,2.9,2.8c1.6,0,3-1.2,3-2.8
					C69.6,391.3,68.4,390,66.7,390z"/>
				<path class="st18" d="M70.9,385.7h-13v-1.6h13V385.7z"/>
			</g>
			<g class="st17">
				<path class="st18" d="M62.5,374.6h1.3l5.6,5.2v-5.2h1.5v7.4h-1.3l-5.6-5.1v4.8h-1.5V374.6z"/>
			</g>
			<g class="st17">
				<path class="st18" d="M62.5,365.9v-1.6h7.2c4,0,5.5,1.8,5.5,4.6c0,1.5-0.8,3-2.3,3.8l-0.7-1.3c1-0.5,1.5-1.5,1.5-2.4
					c0-1.9-1-3-3.9-3h-0.3c1,0.6,1.5,1.8,1.5,3c0,2.3-1.8,4.2-4.4,4.2c-2.7,0-4.4-1.9-4.4-4.2c0-1.3,0.6-2.4,1.5-3H62.5z
					 M66.7,365.9c-1.8,0-2.9,1.5-2.9,2.9c0,1.5,1.2,2.8,2.9,2.8c1.7,0,3-1.2,3-2.8C69.6,367.2,68.5,365.9,66.7,365.9z"/>
				<path class="st18" d="M62.5,355v-1.6h8.4v1.6h-1.5c1,0.6,1.7,1.7,1.7,3.1c0,2.2-1.9,4.1-4.4,4.1c-2.5,0-4.4-1.8-4.4-4.2
					c0-1.3,0.5-2.4,1.5-3H62.5z M66.7,355c-1.7,0-2.9,1.5-2.9,2.9c0,1.5,1.4,2.8,2.9,2.8c1.6,0,3-1.2,3-2.8
					C69.6,356.3,68.4,355,66.7,355z"/>
				<path class="st18" d="M68.4,351.3v-1.5c0.7,0,1.3-0.6,1.3-1.7c0-1.1-0.5-1.7-1.2-1.7c-0.6,0-1,0.5-1.1,1.2l-0.3,1.2
					c-0.4,1.4-1.1,2.2-2.4,2.2c-1.4,0-2.5-1.2-2.5-2.9c0-1.4,0.8-2.9,2.4-2.9v1.5c-0.6,0-1.1,0.7-1.1,1.4c0,0.8,0.5,1.4,1.2,1.4
					c0.6,0,0.9-0.5,1-1.1l0.3-1.2c0.4-1.7,1.5-2.2,2.4-2.2c1.6,0,2.6,1.5,2.6,3.3C71.1,349.7,70.1,351.2,68.4,351.3z"/>
				<path class="st18" d="M68.4,343.5V342c0.7,0,1.3-0.6,1.3-1.7c0-1.1-0.5-1.7-1.2-1.7c-0.6,0-1,0.5-1.1,1.2l-0.3,1.2
					c-0.4,1.4-1.1,2.2-2.4,2.2c-1.4,0-2.5-1.2-2.5-2.9c0-1.4,0.8-2.9,2.4-2.9v1.5c-0.6,0-1.1,0.7-1.1,1.4c0,0.8,0.5,1.4,1.2,1.4
					c0.6,0,0.9-0.5,1-1.1l0.3-1.2c0.4-1.7,1.5-2.2,2.4-2.2c1.6,0,2.6,1.5,2.6,3.3C71.1,341.9,70.1,343.4,68.4,343.5z"/>
				<path class="st18" d="M67.4,327.1v6.8c1.5-0.2,2.3-1.3,2.3-2.8c0-1-0.5-2-1.3-2.4l0.5-1.4c1.5,0.7,2.2,2.2,2.2,3.9
					c0,2.4-1.8,4.3-4.4,4.3s-4.4-1.9-4.4-4.3s1.7-4.2,4.4-4.2C66.9,327.1,67.1,327.1,67.4,327.1z M66,328.6
					c-1.4,0.2-2.3,1.2-2.3,2.6c0,1.4,0.8,2.4,2.3,2.7V328.6z"/>
			</g>
		</g>
	</g>
	<g>
		<defs>
			<rect id="SVGID_00000060022862988773078230000011105345302941466544_" width="655" height="550"/>
		</defs>
		<clipPath id="SVGID_00000098927789794671869290000014969309740853939844_">
			<use xlink:href="#SVGID_00000060022862988773078230000011105345302941466544_"  style="overflow:visible;"/>
		</clipPath>
		
			<rect x="0.2" y="248.2" style="clip-path:url(#SVGID_00000098927789794671869290000014969309740853939844_);fill:#ED726A;" width="135" height="29.8"/>
	</g>
	<g>
		<defs>
			<rect id="SVGID_00000091702897442012037250000013537500557600597155_" width="655" height="550"/>
		</defs>
		<clipPath id="SVGID_00000020373481804797873480000016866806847775355018_">
			<use xlink:href="#SVGID_00000091702897442012037250000013537500557600597155_"  style="overflow:visible;"/>
		</clipPath>
		<g style="clip-path:url(#SVGID_00000020373481804797873480000016866806847775355018_);">
			<g class="st17">
				<path class="st38" d="M11.4,261.9c0-3.5,2.8-6.4,6.2-6.4c1.9,0,3.5,0.8,4.5,2.1l-1.2,1c-0.8-1-2-1.6-3.4-1.6
					c-2.6,0-4.6,2.2-4.6,4.9c0,2.6,2,4.9,4.5,4.9c1.4,0,2.6-0.6,3.4-1.6l1.2,1c-1.1,1.3-2.7,2.1-4.6,2.1
					C14.1,268.3,11.4,265.4,11.4,261.9z"/>
				<path class="st38" d="M23.8,256.7c0-0.6,0.5-1,1.1-1c0.6,0,1.1,0.5,1.1,1.1c0,0.6-0.5,1-1.1,1C24.3,257.8,23.8,257.3,23.8,256.7
					z M24,268.2l0.1-8.4l1.5,0l-0.1,8.4L24,268.2z"/>
				<path class="st38" d="M32.2,259.9l0,1.4l-1.8,0l-0.1,7.1l-1.5,0l0.1-7.1l-1.5,0l0-1.4l1.5,0l0-3.2l1.5,0l0,3.2L32.2,259.9z"/>
			</g>
			<g class="st17">
				<path class="st38" d="M39.6,259.9l1.7,0L36,272.4l-1.6,0l1.8-4.3l-3.2-8.2l1.7,0l2.4,6.2L39.6,259.9z"/>
			</g>
			<g class="st17">
				<path class="st38" d="M42.3,264.9l0-1.5l6.1,0.1l0,1.5L42.3,264.9z"/>
			</g>
			<g class="st17">
				<path class="st38" d="M56.3,256.1c2.6,0,3.6,2,3.6,3.9c0,2-1.1,3.9-3.6,3.8l-3.2,0l0,4.7l-1.6,0l0.1-12.4L56.3,256.1z
					 M56.1,262.3c1.5,0,2.1-1.1,2.1-2.3c0-1.2-0.6-2.4-2-2.4l-3.2,0l0,4.7L56.1,262.3z"/>
			</g>
			<g class="st17">
				<path class="st38" d="M67.9,260.2l1.5,0l-0.1,8.4l-1.5,0l0-1.5c-0.6,1-1.7,1.7-3,1.7c-2.2,0-4-1.9-4-4.5c0-2.5,1.8-4.4,4.1-4.4
					c1.2,0,2.4,0.6,2.9,1.6L67.9,260.2z M67.9,264.4c0-1.7-1.4-2.9-2.8-3c-1.5,0-2.7,1.3-2.7,2.9c0,1.6,1.2,3,2.7,3
					C66.5,267.3,67.9,266.1,67.9,264.4z"/>
				<path class="st38" d="M77.4,260.4l-0.3,1.5c-0.4-0.2-0.9-0.3-1.2-0.3c-1.6,0-2.3,1.8-2.3,4l0,3.1l-1.6,0l0.1-8.4l1.6,0l0,1.9
					c0.4-1.5,1.2-2.1,2.3-2.1C76.6,260,77.2,260.2,77.4,260.4z"/>
				<path class="st38" d="M86.3,268.8l-2.1,0l-3.8-4.1l0,4.1l-1.5,0l0.1-13l1.5,0l-0.1,7.5l2.9-2.9l2.1,0l-3.6,3.6L86.3,268.8z"/>
				<path class="st38" d="M95.1,264l0,4.9l-1.5,0l0-4.8c0-1.4-0.8-2.3-2-2.3c-1.1,0-2.5,0.7-2.5,2.5l0,4.6l-1.5,0l0.1-13l1.5,0
					l-0.1,5.9c0.5-1,1.8-1.5,2.7-1.5C93.9,260.2,95.1,261.6,95.1,264z"/>
				<path class="st38" d="M104.2,260.5l1.5,0l-0.1,8.4l-1.5,0l0-1.5c-0.6,1-1.7,1.7-3,1.7c-2.2,0-4-1.9-4-4.5c0-2.5,1.8-4.4,4.1-4.4
					c1.2,0,2.4,0.6,2.9,1.6L104.2,260.5z M104.1,264.7c0-1.7-1.4-2.9-2.8-3c-1.5,0-2.7,1.3-2.7,2.9c0,1.6,1.2,3,2.7,3
					C102.8,267.6,104.1,266.4,104.1,264.7z"/>
				<path class="st38" d="M114.3,260.6l1.5,0l-0.1,8.4l-1.5,0l0-1.3c-0.5,1.1-1.8,1.5-2.7,1.5c-2.1,0-3.3-1.4-3.3-3.8l0-4.9l1.5,0
					l0,4.8c0,1.4,0.8,2.3,2,2.3s2.5-0.7,2.6-2.5L114.3,260.6z"/>
				<path class="st38" d="M117.8,266.6l1.4,0c0,0.7,0.6,1.3,1.6,1.3c1,0,1.7-0.5,1.7-1.2c0-0.6-0.5-1-1.1-1.1l-1.1-0.3
					c-1.4-0.4-2.2-1.1-2.1-2.4c0-1.4,1.2-2.5,2.8-2.5c1.4,0,2.8,0.8,2.8,2.5l-1.5,0c0-0.6-0.7-1.1-1.3-1.1c-0.8,0-1.3,0.5-1.3,1.2
					c0,0.6,0.5,0.9,1,1l1.2,0.3c1.7,0.4,2.1,1.5,2.1,2.4c0,1.6-1.5,2.5-3.2,2.5C119.4,269.3,117.9,268.3,117.8,266.6z"/>
			</g>
		</g>
	</g>
	<g>
		<defs>
			<rect id="SVGID_00000037677840692168714710000006031142745059563451_" width="655" height="550"/>
		</defs>
		<clipPath id="SVGID_00000087409346174787183570000018423733101542057627_">
			<use xlink:href="#SVGID_00000037677840692168714710000006031142745059563451_"  style="overflow:visible;"/>
		</clipPath>
		<g style="clip-path:url(#SVGID_00000087409346174787183570000018423733101542057627_);">
			<g>
				<defs>
					<rect id="SVGID_00000170991876056281470070000017889322354154829454_" width="655" height="550"/>
				</defs>
				<clipPath id="SVGID_00000096033522777842540370000018119338203137716622_">
					<use xlink:href="#SVGID_00000170991876056281470070000017889322354154829454_"  style="overflow:visible;"/>
				</clipPath>
				
					<line style="clip-path:url(#SVGID_00000096033522777842540370000018119338203137716622_);fill:none;stroke:#FFFFFF;stroke-width:5.625;" x1="613.1" y1="161.8" x2="758.8" y2="111.9"/>
			</g>
			<g>
				<defs>
					<rect id="SVGID_00000074414004286654623670000007165858998036876458_" width="655" height="550"/>
				</defs>
				<clipPath id="SVGID_00000114038058070256705340000004120222208193364402_">
					<use xlink:href="#SVGID_00000074414004286654623670000007165858998036876458_"  style="overflow:visible;"/>
				</clipPath>
				
					<line style="clip-path:url(#SVGID_00000114038058070256705340000004120222208193364402_);fill:none;stroke:#FFFFFF;stroke-width:5.625;" x1="612.1" y1="251" x2="760.8" y2="303.9"/>
			</g>
			<g>
				<defs>
					<rect id="SVGID_00000160896252513700990700000013869820503317148603_" width="655" height="550"/>
				</defs>
				<clipPath id="SVGID_00000160882151003669833330000004159855506774939820_">
					<use xlink:href="#SVGID_00000160896252513700990700000013869820503317148603_"  style="overflow:visible;"/>
				</clipPath>
				
					<line style="clip-path:url(#SVGID_00000160882151003669833330000004159855506774939820_);fill:none;stroke:#FFFFFF;stroke-width:5.625;" x1="576.8" y1="499" x2="686.5" y2="499"/>
			</g>
		</g>
	</g>
</g>
</svg>
