<?xml version="1.0" encoding="utf-8"?>
<!-- Generator: Adobe Illustrator 27.5.0, SVG Export Plug-In . SVG Version: 6.00 Build 0)  -->
<svg version="1.1" id="Ebene_1" xmlns="http://www.w3.org/2000/svg" xmlns:xlink="http://www.w3.org/1999/xlink" x="0px" y="0px"
	 viewBox="0 0 375 520" style="enable-background:new 0 0 375 520;" xml:space="preserve">
<style type="text/css">
	.st0{clip-path:url(#SVGID_00000028308827232336397340000000330322333012100513_);}
	.st1{clip-path:url(#SVGID_00000131331586324953080760000014483087942131460262_);}
	.st2{clip-path:url(#SVGID_00000151515866363226249710000012234890734038258094_);fill:#FADCDA;}
	.st3{clip-path:url(#SVGID_00000032633712330347625130000003171834885530879138_);fill:#ED726A;}
	.st4{clip-path:url(#SVGID_00000095306919175094381710000016579729268603678904_);fill:none;stroke:#FFFFFF;stroke-width:16.875;}
	.st5{clip-path:url(#SVGID_00000168099778225945858730000004641304418116026535_);fill:none;stroke:#FFFFFF;stroke-width:11.25;}
	.st6{clip-path:url(#SVGID_00000067233801034077509040000008349909261884281747_);fill:none;stroke:#FFFFFF;stroke-width:11.25;}
	.st7{clip-path:url(#SVGID_00000065795219583534244270000004829765492314125729_);fill:none;stroke:#FFFFFF;stroke-width:11.25;}
	.st8{clip-path:url(#SVGID_00000005965086069658072010000010204504154069068699_);fill:none;stroke:#FFFFFF;stroke-width:5.625;}
	.st9{clip-path:url(#SVGID_00000042728371630178366860000002343420807565624749_);fill:none;stroke:#FFFFFF;stroke-width:5.625;}
	.st10{clip-path:url(#SVGID_00000019666838823641190200000011423991248007390126_);fill:none;stroke:#FFFFFF;stroke-width:5.625;}
	.st11{clip-path:url(#SVGID_00000047030713351209698920000014170206518543654062_);fill:none;stroke:#FFFFFF;stroke-width:5.625;}
	.st12{clip-path:url(#SVGID_00000158735600987801899740000008776506547899136664_);}
	.st13{clip-path:url(#SVGID_00000058557748365172952790000017543250952284893858_);fill:none;stroke:#FFFFFF;stroke-width:5.625;}
	.st14{clip-path:url(#SVGID_00000098918148061830701940000013720696491643698592_);fill:none;stroke:#FFFFFF;stroke-width:5.625;}
	.st15{clip-path:url(#SVGID_00000079460390874705351830000000614872496778810040_);}
	.st16{enable-background:new    ;}
	.st17{fill:#50545D;}
	.st18{clip-path:url(#SVGID_00000016049491372186568320000000259447695170610841_);}
	.st19{clip-path:url(#SVGID_00000150794158287905690780000003691320086817106342_);}
	.st20{clip-path:url(#SVGID_00000089547664056932591020000012648500335706279086_);}
	.st21{clip-path:url(#SVGID_00000181791579534224858140000008667758214742074029_);}
	.st22{clip-path:url(#SVGID_00000119799569739708127300000018414214605786358719_);}
	.st23{clip-path:url(#SVGID_00000176027036361864657930000011628096135387955615_);}
	.st24{clip-path:url(#SVGID_00000057870702349633393180000000406520650419671174_);}
	.st25{clip-path:url(#SVGID_00000101074990861942365980000004547629475994050981_);fill:#ED726A;}
	.st26{clip-path:url(#SVGID_00000147187873233693638660000003437045215599313295_);fill:#FFFFFF;}
	.st27{clip-path:url(#SVGID_00000125586708955907920690000008176452827564234370_);fill:#ED726A;}
	.st28{clip-path:url(#SVGID_00000085232728487557582580000004854618444972400027_);}
	.st29{fill:#FFFFFF;}
	.st30{clip-path:url(#SVGID_00000049221677254624755690000004142403702614539908_);fill:#ED726A;}
	.st31{clip-path:url(#SVGID_00000090288133241052732270000006459135129547356827_);}
	.st32{clip-path:url(#SVGID_00000005947226365044627820000002590147135732424112_);}
	.st33{clip-path:url(#SVGID_00000150790470757631235920000016258270191008436640_);}
	.st34{clip-path:url(#SVGID_00000042719541059217800920000007467179399893759931_);fill:none;stroke:#FFFFFF;stroke-width:5.625;}
</style>
<g>
	<g>
		<defs>
			<rect id="SVGID_1_" width="375" height="520"/>
		</defs>
		<clipPath id="SVGID_00000144312564649126214400000003132335718131989945_">
			<use xlink:href="#SVGID_1_"  style="overflow:visible;"/>
		</clipPath>
		<g style="clip-path:url(#SVGID_00000144312564649126214400000003132335718131989945_);">
			<g>
				<defs>
					<rect id="SVGID_00000047779301865850869440000012988000481803759490_" width="375" height="520"/>
				</defs>
				<clipPath id="SVGID_00000014624233830019713440000007305147280079559340_">
					<use xlink:href="#SVGID_00000047779301865850869440000012988000481803759490_"  style="overflow:visible;"/>
				</clipPath>
				<g style="clip-path:url(#SVGID_00000014624233830019713440000007305147280079559340_);">
					<g>
						<g>
							<defs>
								<rect id="SVGID_00000072990203967093058300000007042415821905336504_" x="70.5" y="89.2" width="129.6" height="119.6"/>
							</defs>
							<clipPath id="SVGID_00000181044752121824133390000002628196069026402196_">
								<use xlink:href="#SVGID_00000072990203967093058300000007042415821905336504_"  style="overflow:visible;"/>
							</clipPath>
							<path style="clip-path:url(#SVGID_00000181044752121824133390000002628196069026402196_);fill:#FADCDA;" d="M135.3,207.8
								c30.8,0,55.8-25,55.8-55.8s-25-55.8-55.8-55.8s-55.8,25-55.8,55.8S104.5,207.8,135.3,207.8"/>
						</g>
					</g>
				</g>
			</g>
			<g>
				<defs>
					<rect id="SVGID_00000145779808119625860490000012595096692942145944_" width="375" height="520"/>
				</defs>
				<clipPath id="SVGID_00000143611435789989959490000002953793068170073781_">
					<use xlink:href="#SVGID_00000145779808119625860490000012595096692942145944_"  style="overflow:visible;"/>
				</clipPath>
				<path style="clip-path:url(#SVGID_00000143611435789989959490000002953793068170073781_);fill:#ED726A;" d="M135.3,164
					c6.6,0,12-5.4,12-12s-5.4-12-12-12s-12,5.4-12,12C123.4,158.6,128.7,164,135.3,164"/>
			</g>
			<g>
				<defs>
					<rect id="SVGID_00000032619882264154864790000007066911562774753160_" width="375" height="520"/>
				</defs>
				<clipPath id="SVGID_00000037662097770971093170000013814143612494878382_">
					<use xlink:href="#SVGID_00000032619882264154864790000007066911562774753160_"  style="overflow:visible;"/>
				</clipPath>
				
					<path style="clip-path:url(#SVGID_00000037662097770971093170000013814143612494878382_);fill:none;stroke:#FFFFFF;stroke-width:16.875;" d="
					M407.3-63.9l8.8,245.6l-41.5,281.4c0,0-10.4,89.3-114.8,89.3"/>
			</g>
			<g>
				<defs>
					<rect id="SVGID_00000014600053745910391790000008152643984658823044_" width="375" height="520"/>
				</defs>
				<clipPath id="SVGID_00000130628409729078436570000008843078368371587983_">
					<use xlink:href="#SVGID_00000014600053745910391790000008152643984658823044_"  style="overflow:visible;"/>
				</clipPath>
				
					<polyline style="clip-path:url(#SVGID_00000130628409729078436570000008843078368371587983_);fill:none;stroke:#FFFFFF;stroke-width:11.25;" points="
					342.2,-58.3 342.2,163.3 298.1,454.3 243.9,470.3 243.9,480.6 153,495.8 -126.8,487 -207.3,467.7 				"/>
			</g>
			<g>
				<defs>
					<rect id="SVGID_00000044175974723180222370000018172057547978171283_" width="375" height="520"/>
				</defs>
				<clipPath id="SVGID_00000074435213285764620200000011889572279823755939_">
					<use xlink:href="#SVGID_00000044175974723180222370000018172057547978171283_"  style="overflow:visible;"/>
				</clipPath>
				
					<polyline style="clip-path:url(#SVGID_00000074435213285764620200000011889572279823755939_);fill:none;stroke:#FFFFFF;stroke-width:11.25;" points="
					210.4,-54.3 209.6,43.7 -14.4,43.7 -11.2,128.3 -49.5,209.6 -45.5,231.9 36.6,264.6 51,412.9 141.9,457.5 165,530.1 
					210.4,553.2 				"/>
			</g>
			<g>
				<defs>
					<rect id="SVGID_00000130629641091031796680000007250382612445163453_" width="375" height="520"/>
				</defs>
				<clipPath id="SVGID_00000034797469822147940720000004993626091607099268_">
					<use xlink:href="#SVGID_00000130629641091031796680000007250382612445163453_"  style="overflow:visible;"/>
				</clipPath>
				
					<polyline style="clip-path:url(#SVGID_00000034797469822147940720000004993626091607099268_);fill:none;stroke:#FFFFFF;stroke-width:11.25;" points="
					-208.6,396.8 51,413.7 51,396.9 259.9,358.7 310.9,367.4 				"/>
			</g>
			<g>
				<defs>
					<rect id="SVGID_00000127012853862233295060000014705652691459036349_" width="375" height="520"/>
				</defs>
				<clipPath id="SVGID_00000088846621906584928800000006293737943234990988_">
					<use xlink:href="#SVGID_00000127012853862233295060000014705652691459036349_"  style="overflow:visible;"/>
				</clipPath>
				
					<polyline style="clip-path:url(#SVGID_00000088846621906584928800000006293737943234990988_);fill:none;stroke:#FFFFFF;stroke-width:5.625;" points="
					-17.6,137.8 104.4,129 200.9,137.8 338.8,161.7 558.5,196.8 				"/>
			</g>
		</g>
	</g>
	<g>
		<defs>
			<rect id="SVGID_00000022544269646011919110000010636036863779905696_" width="375" height="520"/>
		</defs>
		<clipPath id="SVGID_00000026856866095570387880000017329528999085654409_">
			<use xlink:href="#SVGID_00000022544269646011919110000010636036863779905696_"  style="overflow:visible;"/>
		</clipPath>
		
			<polyline style="clip-path:url(#SVGID_00000026856866095570387880000017329528999085654409_);fill:none;stroke:#FFFFFF;stroke-width:5.625;" points="
			39.4,263.9 34.6,170.6 26.9,170.5 		"/>
	</g>
	<g>
		<defs>
			<rect id="SVGID_00000091734444941775003600000014746822331968543123_" width="375" height="520"/>
		</defs>
		<clipPath id="SVGID_00000164513832763776489070000015042604411771407523_">
			<use xlink:href="#SVGID_00000091734444941775003600000014746822331968543123_"  style="overflow:visible;"/>
		</clipPath>
		
			<polyline style="clip-path:url(#SVGID_00000164513832763776489070000015042604411771407523_);fill:none;stroke:#FFFFFF;stroke-width:5.625;" points="
			239.1,478.6 259.9,359.5 273.4,152.2 		"/>
	</g>
	<g>
		<defs>
			<rect id="SVGID_00000128487046050567592940000014180982151165219998_" width="375" height="520"/>
		</defs>
		<clipPath id="SVGID_00000041985449906194992250000002343181107814794633_">
			<use xlink:href="#SVGID_00000128487046050567592940000014180982151165219998_"  style="overflow:visible;"/>
		</clipPath>
		
			<polyline style="clip-path:url(#SVGID_00000041985449906194992250000002343181107814794633_);fill:none;stroke:#FFFFFF;stroke-width:5.625;" points="
			194.5,370.6 201.7,138.6 208.8,95.1 201.6,44.5 		"/>
	</g>
	<g>
		<defs>
			<rect id="SVGID_00000060738695260846883800000010193325364719546776_" width="375" height="520"/>
		</defs>
		<clipPath id="SVGID_00000000206622710929917320000013069418359477264536_">
			<use xlink:href="#SVGID_00000060738695260846883800000010193325364719546776_"  style="overflow:visible;"/>
		</clipPath>
		<g style="clip-path:url(#SVGID_00000000206622710929917320000013069418359477264536_);">
			<g>
				<defs>
					<rect id="SVGID_00000181800515461281007670000002483128465849318541_" width="375" height="520"/>
				</defs>
				<clipPath id="SVGID_00000062881345973863088330000007781550241471441849_">
					<use xlink:href="#SVGID_00000181800515461281007670000002483128465849318541_"  style="overflow:visible;"/>
				</clipPath>
				
					<polyline style="clip-path:url(#SVGID_00000062881345973863088330000007781550241471441849_);fill:none;stroke:#FFFFFF;stroke-width:5.625;" points="
					88.3,-48.4 58.1,45.3 65.3,134.6 				"/>
			</g>
		</g>
	</g>
	<g>
		<defs>
			<rect id="SVGID_00000131340462159815961140000013985818943416351617_" width="375" height="520"/>
		</defs>
		<clipPath id="SVGID_00000109016784295395600570000004241979213332525500_">
			<use xlink:href="#SVGID_00000131340462159815961140000013985818943416351617_"  style="overflow:visible;"/>
		</clipPath>
		
			<line style="clip-path:url(#SVGID_00000109016784295395600570000004241979213332525500_);fill:none;stroke:#FFFFFF;stroke-width:5.625;" x1="124.3" y1="45.1" x2="106.1" y2="129.5"/>
	</g>
	<g>
		<defs>
			<rect id="SVGID_00000057860449783295011030000000810998714687779775_" width="375" height="520"/>
		</defs>
		<clipPath id="SVGID_00000078016067871240127160000000852175963860735889_">
			<use xlink:href="#SVGID_00000057860449783295011030000000810998714687779775_"  style="overflow:visible;"/>
		</clipPath>
		<g style="clip-path:url(#SVGID_00000078016067871240127160000000852175963860735889_);">
			<g class="st16">
				<path class="st17" d="M185.3,304.8l-1.5-0.2c0.1-0.3,0.2-1,0.2-1.1c0.1-1.6-1-2.2-2.4-2.3l-12.6-0.4l0.1-1.6l12.6,0.4
					c2.2,0.1,4,1.2,3.9,4C185.5,303.8,185.4,304.4,185.3,304.8z"/>
			</g>
			<g class="st16">
				<path class="st17" d="M173.4,289.7l0.1-1.6l8.4,0.3l-0.1,1.6l-1.5-0.1c1,0.6,1.6,1.8,1.6,3.1c-0.1,2.2-2,4.1-4.6,4
					c-2.5-0.1-4.3-2-4.3-4.3c0-1.3,0.6-2.4,1.6-3L173.4,289.7z M177.6,289.9c-1.7-0.1-3,1.4-3,2.8c-0.1,1.5,1.3,2.8,2.8,2.9
					c1.6,0.1,3-1.1,3-2.7C180.5,291.3,179.3,290,177.6,289.9z"/>
			</g>
			<g class="st16">
				<path class="st17" d="M182.2,278.1l-0.1,2.1l-4.2,3.7l4.1,0.1l-0.1,1.6l-13-0.5l0.1-1.6l7.5,0.3l-2.9-3l0.1-2.2l3.5,3.7
					L182.2,278.1z"/>
			</g>
			<g class="st16">
				<path class="st17" d="M178,277.9c-2.7-0.1-4.3-2.2-4.3-4.5s1.9-4.3,4.6-4.3c2.7,0.1,4.4,2.2,4.3,4.6
					C182.5,276.1,180.7,278,178,277.9z M178.2,270.7c-1.7-0.1-3,1.2-3,2.7c-0.1,1.5,1.1,2.8,2.8,2.9c1.7,0.1,3-1.2,3-2.7
					C181.1,272.1,180,270.7,178.2,270.7z"/>
				<path class="st17" d="M178.7,258.2c2.6,0.1,4.4,2.1,4.3,4.4c0,1.2-0.7,2.4-1.6,2.9l1.3,0l-0.1,1.6l-13-0.5l0.1-1.6l5.9,0.2
					c-1-0.6-1.5-1.8-1.4-3.1C174.2,259.9,176,258.1,178.7,258.2z M178.6,259.7c-1.7-0.1-3,1.1-3,2.7c0,1.4,1,2.9,2.8,2.9
					c1.8,0.1,3-1.2,3.1-2.7C181.5,261.1,180.3,259.8,178.6,259.7z"/>
				<path class="st17" d="M180.5,256.7l0.1-1.5c0.7,0,1.3-0.6,1.4-1.6c0-1.1-0.5-1.7-1.1-1.7c-0.6,0-1,0.5-1.1,1.1l-0.3,1.1
					c-0.4,1.4-1.1,2.2-2.5,2.1c-1.4,0-2.4-1.3-2.4-3c0-1.4,0.9-2.9,2.5-2.8l-0.1,1.5c-0.6,0-1.1,0.6-1.1,1.3c0,0.8,0.5,1.4,1.1,1.4
					c0.6,0,0.9-0.5,1-1l0.3-1.2c0.5-1.7,1.6-2.1,2.5-2.1c1.6,0.1,2.5,1.6,2.4,3.3C183.2,255.2,182.2,256.7,180.5,256.7z"/>
				<path class="st17" d="M175.1,241.4l0.1-1.6l7.2,0.3c4,0.1,5.4,2,5.3,4.8c-0.1,1.5-0.9,2.9-2.4,3.7l-0.7-1.4
					c1-0.5,1.5-1.5,1.6-2.4c0.1-1.9-0.9-3-3.8-3.1l-0.3,0c0.9,0.6,1.5,1.8,1.4,3c-0.1,2.3-1.9,4.1-4.6,4.1c-2.7-0.1-4.3-2-4.3-4.3
					c0-1.3,0.6-2.4,1.6-3L175.1,241.4z M179.2,241.5c-1.8-0.1-3,1.4-3,2.8c-0.1,1.5,1.1,2.8,2.8,2.9c1.7,0.1,3-1.1,3.1-2.6
					C182.2,243,181,241.6,179.2,241.5z"/>
				<path class="st17" d="M175.5,230.5l0.1-1.6l8.4,0.3l-0.1,1.6l-1.5-0.1c1,0.6,1.6,1.8,1.6,3.1c-0.1,2.2-2,4.1-4.6,4
					c-2.5-0.1-4.3-2-4.3-4.3c0-1.3,0.6-2.4,1.6-3L175.5,230.5z M179.6,230.6c-1.7-0.1-3,1.4-3,2.8c-0.1,1.5,1.3,2.8,2.8,2.9
					c1.6,0.1,3-1.1,3-2.7C182.5,232.1,181.4,230.7,179.6,230.6z"/>
				<path class="st17" d="M181.5,227l0.1-1.5c0.7,0,1.3-0.6,1.4-1.6c0-1.1-0.5-1.7-1.1-1.7c-0.6,0-1,0.5-1.1,1.1l-0.3,1.1
					c-0.4,1.4-1.1,2.2-2.5,2.1c-1.4,0-2.4-1.3-2.4-3c0-1.4,0.9-2.9,2.5-2.8l-0.1,1.5c-0.6,0-1.1,0.6-1.1,1.3c0,0.8,0.5,1.4,1.1,1.4
					c0.6,0,0.9-0.5,1-1l0.3-1.2c0.5-1.7,1.6-2.1,2.5-2.1c1.6,0.1,2.5,1.6,2.4,3.3C184.3,225.5,183.2,227,181.5,227z"/>
				<path class="st17" d="M181.8,219.2l0.1-1.5c0.7,0,1.3-0.6,1.4-1.6c0-1.1-0.5-1.7-1.1-1.7c-0.6,0-1,0.5-1.1,1.1l-0.3,1.1
					c-0.4,1.4-1.1,2.2-2.5,2.1c-1.4,0-2.4-1.3-2.4-3c0-1.4,0.9-2.9,2.5-2.8l-0.1,1.5c-0.6,0-1.1,0.6-1.1,1.3c0,0.8,0.5,1.4,1.1,1.4
					c0.6,0,0.9-0.5,1-1l0.3-1.2c0.5-1.7,1.6-2.1,2.5-2.1c1.6,0.1,2.5,1.6,2.4,3.3C184.5,217.7,183.5,219.2,181.8,219.2z"/>
				<path class="st17" d="M181.3,202.8l-0.2,6.8c1.5-0.2,2.3-1.2,2.4-2.7c0-1-0.4-2-1.2-2.5l0.6-1.3c1.4,0.8,2.2,2.3,2.1,3.9
					c-0.1,2.4-1.9,4.3-4.6,4.2c-2.7-0.1-4.3-2.1-4.2-4.5c0.1-2.4,1.9-4.1,4.5-4C180.8,202.7,181.1,202.8,181.3,202.8z M179.9,204.3
					c-1.4,0.1-2.3,1.1-2.4,2.5c0,1.4,0.7,2.5,2.2,2.8L179.9,204.3z"/>
			</g>
		</g>
	</g>
	<g>
		<defs>
			<rect id="SVGID_00000023246414215166460390000001910373056786449542_" width="375" height="520"/>
		</defs>
		<clipPath id="SVGID_00000116225312014924070720000012884318130738381247_">
			<use xlink:href="#SVGID_00000023246414215166460390000001910373056786449542_"  style="overflow:visible;"/>
		</clipPath>
		<g style="clip-path:url(#SVGID_00000116225312014924070720000012884318130738381247_);">
			<g class="st16">
				<path class="st17" d="M95.4,28.5l-1.6,0L92.7,19l-4,8.1l-1.4,0l-3.9-8.1l-1.2,9.4l-1.6,0L82.2,16l1.5,0l4.3,9.2l4.5-9.2l1.5,0
					L95.4,28.5z"/>
			</g>
			<g class="st16">
				<path class="st17" d="M104.4,20.2l1.6,0l-0.1,8.4l-1.6,0l0-1.5c-0.6,1-1.7,1.7-3.1,1.7c-2.2,0-4.1-1.9-4.1-4.5
					c0-2.5,1.9-4.4,4.2-4.4c1.3,0,2.4,0.6,3,1.6L104.4,20.2z M104.4,24.3c0-1.7-1.4-2.9-2.8-3c-1.5,0-2.8,1.3-2.8,2.9
					c0,1.6,1.2,3,2.7,3C103,27.3,104.4,26.1,104.4,24.3z"/>
				<path class="st17" d="M114.1,20.3l-0.3,1.5c-0.4-0.2-0.9-0.3-1.2-0.3c-1.7,0-2.4,1.8-2.4,4l0,3.1l-1.6,0l0.1-8.4l1.6,0l0,1.9
					c0.4-1.5,1.3-2.1,2.4-2.1C113.3,20,113.9,20.2,114.1,20.3z"/>
				<path class="st17" d="M115.4,17.2c0-0.6,0.5-1,1.1-1c0.6,0,1.1,0.5,1.1,1.1c0,0.6-0.5,1-1.1,1C115.9,18.2,115.4,17.7,115.4,17.2
					z M115.6,28.7l0.1-8.4l1.6,0l-0.1,8.4L115.6,28.7z"/>
				<path class="st17" d="M127.8,25.2l-6.8-0.1c0.2,1.5,1.3,2.3,2.7,2.3c1,0,2-0.5,2.5-1.3l1.3,0.6c-0.7,1.5-2.3,2.2-3.9,2.2
					c-2.4,0-4.3-1.8-4.3-4.5c0-2.7,2-4.4,4.4-4.4c2.4,0,4.2,1.8,4.1,4.4C127.9,24.8,127.8,25,127.8,25.2z M126.3,23.9
					c-0.2-1.4-1.2-2.3-2.6-2.3c-1.4,0-2.4,0.7-2.7,2.2L126.3,23.9z"/>
				<path class="st17" d="M137.8,24l0,4.9l-1.6,0l0-4.8c0-1.4-0.8-2.3-2-2.3c-1.2,0-2.6,0.7-2.6,2.5l0,4.6l-1.6,0l0.1-8.4l1.6,0
					l0,1.3c0.5-1,1.9-1.5,2.8-1.5C136.5,20.2,137.8,21.6,137.8,24z"/>
				<path class="st17" d="M139.7,26.4l1.5,0c0,0.7,0.6,1.3,1.7,1.3c1.1,0,1.7-0.5,1.7-1.2c0-0.6-0.5-1-1.1-1.1l-1.1-0.3
					c-1.4-0.4-2.2-1.1-2.2-2.4c0-1.4,1.2-2.5,2.9-2.5c1.4,0,2.9,0.8,2.9,2.5l-1.5,0c0-0.6-0.7-1.1-1.3-1.1c-0.8,0-1.4,0.5-1.4,1.2
					c0,0.6,0.5,0.9,1.1,1l1.2,0.3c1.7,0.4,2.2,1.5,2.2,2.5c0,1.6-1.5,2.5-3.3,2.5C141.3,29.1,139.7,28.1,139.7,26.4z"/>
				<path class="st17" d="M152.3,20.6l0,1.4l-1.8,0l-0.1,7.1l-1.6,0l0.1-7.1l-1.5,0l0-1.4l1.5,0l0-3.2l1.6,0l0,3.2L152.3,20.6z"/>
			</g>
			<g class="st16">
				<path class="st17" d="M159.4,20.7l-0.3,1.5c-0.4-0.2-0.9-0.3-1.2-0.3c-1.7,0-2.4,1.8-2.4,4l0,3.1l-1.6,0l0.1-8.4l1.6,0l0,1.9
					c0.4-1.5,1.3-2.1,2.4-2.1C158.5,20.4,159.1,20.6,159.4,20.7z"/>
			</g>
			<g class="st16">
				<path class="st17" d="M167.3,20.7l1.6,0l-0.1,8.4l-1.6,0l0-1.5c-0.6,1-1.7,1.7-3.1,1.7c-2.2,0-4.1-1.9-4.1-4.5
					c0-2.5,1.9-4.4,4.2-4.4c1.3,0,2.4,0.6,3,1.6L167.3,20.7z M167.3,24.9c0-1.7-1.4-2.9-2.8-3c-1.5,0-2.8,1.3-2.8,2.9
					c0,1.6,1.2,3,2.7,3C165.9,27.8,167.3,26.6,167.3,24.9z"/>
				<path class="st17" d="M179.9,25.4c0,2.4-1.8,4.1-4.3,4c-0.4,0-1.1-0.1-1.7-0.3l0.3-1.4c0.4,0.1,0.9,0.2,1.3,0.2
					c1.6,0,2.7-1.1,2.7-2.7c0-1.6-1.2-2.7-2.8-2.7l-0.7,0l0-1.3l0.5,0c1.1,0,1.8-0.9,1.9-2c0-1.1-0.7-1.8-1.9-1.8
					c-1.3,0-2.1,0.7-2.2,2.6l-0.1,9.1l-1.6,0l0.1-9.1c0-2.7,1.5-4.1,3.7-4c2.1,0,3.5,1.3,3.4,3.1c0,1.1-0.5,2.1-1.4,2.7
					C178.9,22.3,179.9,23.7,179.9,25.4z"/>
				<path class="st17" d="M190,25.8l-6.8-0.1c0.2,1.5,1.3,2.3,2.7,2.3c1,0,2-0.5,2.5-1.3l1.3,0.6c-0.7,1.5-2.3,2.2-3.9,2.2
					c-2.4,0-4.3-1.8-4.3-4.5c0-2.7,2-4.4,4.4-4.4c2.4,0,4.2,1.8,4.1,4.4C190,25.3,190,25.5,190,25.8z M188.5,24.4
					c-0.2-1.4-1.2-2.3-2.6-2.3c-1.4,0-2.4,0.7-2.7,2.2L188.5,24.4z"/>
			</g>
		</g>
	</g>
	<g>
		<defs>
			<rect id="SVGID_00000054255689519174814090000005949484893688404155_" width="375" height="520"/>
		</defs>
		<clipPath id="SVGID_00000091732396516925460710000013362052275208375976_">
			<use xlink:href="#SVGID_00000054255689519174814090000005949484893688404155_"  style="overflow:visible;"/>
		</clipPath>
		<g style="clip-path:url(#SVGID_00000091732396516925460710000013362052275208375976_);">
			<g class="st16">
				<path class="st17" d="M26.2,464.3l1.7,0.1l-4.6,12.3l-1.4,0l-2-7.9l-2.5,7.8l-1.4,0l-3.8-12.5l1.7,0.1l2.8,9.9l2.6-8l1.2,0
					l2,8.2L26.2,464.3z"/>
			</g>
			<g class="st16">
				<path class="st17" d="M36.3,473.5l-6.8-0.2c0.2,1.5,1.2,2.3,2.7,2.4c1,0,2-0.4,2.5-1.2L36,475c-0.8,1.4-2.3,2.2-3.9,2.1
					c-2.4-0.1-4.3-1.9-4.2-4.6c0.1-2.7,2.1-4.3,4.5-4.2c2.4,0.1,4.1,1.9,4,4.5C36.3,473.1,36.3,473.3,36.3,473.5z M34.8,472.1
					c-0.1-1.4-1.1-2.3-2.5-2.4c-1.4,0-2.5,0.7-2.8,2.2L34.8,472.1z"/>
				<path class="st17" d="M46.3,472.6l-0.2,4.9l-1.6-0.1l0.2-4.8c0-1.4-0.8-2.3-2-2.4c-1.2,0-2.6,0.6-2.7,2.4l-0.2,4.6l-1.6-0.1
					l0.3-8.4l1.6,0.1l0,1.3c0.5-1,1.9-1.4,2.8-1.4C45.1,468.7,46.4,470.2,46.3,472.6z"/>
			</g>
			<g class="st16">
				<path class="st17" d="M55.8,469.3l0,1.3l-5.4,5.5l5.2,0.2l-0.1,1.5l-7.4-0.3l0-1.3l5.3-5.5l-4.8-0.2l0.1-1.5L55.8,469.3z"/>
			</g>
			<g class="st16">
				<path class="st17" d="M65.6,474.6l-6.8-0.2c0.2,1.5,1.2,2.3,2.7,2.4c1,0,2-0.4,2.5-1.2l1.3,0.6c-0.8,1.4-2.3,2.2-3.9,2.1
					c-2.4-0.1-4.3-1.9-4.2-4.6c0.1-2.7,2.1-4.3,4.5-4.2c2.4,0.1,4.1,1.9,4,4.5C65.6,474.1,65.6,474.3,65.6,474.6z M64.1,473.2
					c-0.1-1.4-1.1-2.3-2.5-2.4c-1.4,0-2.5,0.7-2.8,2.2L64.1,473.2z"/>
				<path class="st17" d="M67.6,478.2l0.5-13l1.6,0.1l-0.5,13L67.6,478.2z"/>
				<path class="st17" d="M71.3,475.8l1.5,0.1c0,0.7,0.6,1.3,1.6,1.4c1.1,0,1.7-0.5,1.7-1.1c0-0.6-0.5-1-1.1-1.1l-1.1-0.3
					c-1.4-0.4-2.2-1.1-2.1-2.5c0-1.4,1.3-2.4,3-2.4c1.4,0,2.9,0.9,2.8,2.5l-1.5-0.1c0-0.6-0.6-1.1-1.3-1.1c-0.8,0-1.4,0.5-1.4,1.1
					c0,0.6,0.5,0.9,1,1l1.2,0.3c1.7,0.5,2.1,1.6,2.1,2.5c-0.1,1.6-1.6,2.5-3.3,2.4C72.9,478.6,71.3,477.6,71.3,475.8z"/>
				<path class="st17" d="M93.1,474.2l-0.2,4.9l-1.6-0.1l0.2-4.8c0-1.4-0.7-2.4-1.9-2.4c-1.5-0.1-2.3,0.9-2.4,2.8l-0.1,4.2l-1.6-0.1
					l0.2-4.8c0-1.4-0.7-2.4-1.8-2.4c-1.2,0-2.4,0.7-2.5,2.5l-0.2,4.6l-1.6-0.1l0.3-8.4l1.6,0.1l0,1.3c0.4-0.9,1.6-1.5,2.8-1.4
					c1.2,0,2.3,0.7,2.7,1.9c0.8-1.5,2.1-1.7,3-1.7C92.1,470.4,93.2,471.8,93.1,474.2z"/>
				<path class="st17" d="M102.5,471l1.6,0.1l-0.3,8.4l-1.6-0.1l0.1-1.5c-0.6,1-1.8,1.6-3.1,1.6c-2.2-0.1-4.1-2-4-4.6
					c0.1-2.5,2-4.3,4.3-4.3c1.3,0,2.4,0.6,3,1.6L102.5,471z M102.3,475.2c0.1-1.7-1.4-3-2.8-3c-1.5-0.1-2.8,1.3-2.9,2.8
					c-0.1,1.6,1.1,3,2.7,3C100.9,478.1,102.3,476.9,102.3,475.2z"/>
				<path class="st17" d="M112.8,471.3l1.6,0.1l-0.3,8.4l-1.6-0.1l0-1.3c-0.5,1-1.9,1.5-2.8,1.4c-2.1-0.1-3.4-1.5-3.3-3.9l0.2-4.9
					l1.6,0.1l-0.2,4.8c0,1.4,0.8,2.4,1.9,2.4c1.2,0,2.6-0.6,2.7-2.4L112.8,471.3z"/>
				<path class="st17" d="M124.9,476.6l-6.8-0.2c0.2,1.5,1.2,2.3,2.7,2.4c1,0,2-0.4,2.5-1.2l1.3,0.6c-0.8,1.4-2.3,2.2-3.9,2.1
					c-2.4-0.1-4.3-1.9-4.2-4.6c0.1-2.7,2.1-4.3,4.5-4.2c2.4,0.1,4.1,1.9,4,4.5C124.9,476.2,124.9,476.4,124.9,476.6z M123.4,475.2
					c-0.1-1.4-1.1-2.3-2.5-2.4c-1.4,0-2.5,0.7-2.8,2.2L123.4,475.2z"/>
				<path class="st17" d="M132.6,472.1l-0.3,1.5c-0.4-0.2-0.9-0.3-1.2-0.3c-1.7-0.1-2.4,1.7-2.5,3.9l-0.1,3.1l-1.6-0.1l0.3-8.4
					l1.6,0.1l-0.1,1.9c0.5-1.5,1.3-2.1,2.4-2C131.7,471.8,132.3,472,132.6,472.1z"/>
			</g>
		</g>
	</g>
	<g>
		<defs>
			<rect id="SVGID_00000161614842340011279030000009991862015380637593_" width="375" height="520"/>
		</defs>
		<clipPath id="SVGID_00000167373322691245574920000002152896862734914464_">
			<use xlink:href="#SVGID_00000161614842340011279030000009991862015380637593_"  style="overflow:visible;"/>
		</clipPath>
		<g style="clip-path:url(#SVGID_00000167373322691245574920000002152896862734914464_);">
			<g class="st16">
				<path class="st17" d="M81,362.6l1.7-0.3l-1.9,13l-1.4,0.3l-3.6-7.3l-0.8,8.1l-1.4,0.3l-6.4-11.4l1.7-0.3l4.9,9.1l0.8-8.4
					l1.2-0.2l3.8,7.5L81,362.6z"/>
			</g>
			<g class="st16">
				<path class="st17" d="M92.9,369.4l-6.7,1.2c0.5,1.4,1.7,2,3.1,1.7c1-0.2,1.8-0.8,2.2-1.7l1.4,0.3c-0.4,1.6-1.8,2.6-3.4,2.9
					c-2.4,0.4-4.6-1-5.1-3.6c-0.5-2.6,1.1-4.7,3.4-5.1c2.4-0.4,4.4,0.9,4.9,3.6C92.8,369,92.8,369.2,92.9,369.4z M91.1,368.4
					c-0.5-1.4-1.6-2-3-1.8c-1.4,0.3-2.3,1.2-2.2,2.7L91.1,368.4z"/>
				<path class="st17" d="M102.4,366.3l0.9,4.8l-1.5,0.3l-0.9-4.7c-0.3-1.4-1.3-2.1-2.4-1.9c-1.2,0.2-2.4,1.2-2.1,2.9l0.8,4.5
					l-1.5,0.3l-1.5-8.3l1.5-0.3l0.2,1.3c0.3-1.1,1.6-1.8,2.5-2C100.4,362.9,102,364,102.4,366.3z"/>
			</g>
			<g class="st16">
				<path class="st17" d="M111,361.1l0.2,1.3l-4.1,6.5l5.1-0.9l0.3,1.5l-7.3,1.3l-0.2-1.3l4-6.5l-4.7,0.9l-0.3-1.5L111,361.1z"/>
			</g>
			<g class="st16">
				<path class="st17" d="M121.7,364.1l-6.7,1.2c0.5,1.4,1.7,2,3.1,1.7c1-0.2,1.8-0.8,2.2-1.7l1.4,0.3c-0.4,1.6-1.8,2.6-3.4,2.9
					c-2.4,0.4-4.6-1-5.1-3.6c-0.5-2.6,1.1-4.7,3.4-5.1c2.4-0.4,4.4,0.9,4.9,3.6C121.6,363.6,121.7,363.9,121.7,364.1z M119.9,363.1
					c-0.5-1.4-1.6-2-3-1.8c-1.4,0.3-2.3,1.2-2.2,2.7L119.9,363.1z"/>
				<path class="st17" d="M124.5,367.2l-2.4-12.8l1.5-0.3l2.4,12.8L124.5,367.2z"/>
				<path class="st17" d="M127.6,364.1l1.4-0.3c0.1,0.7,0.9,1.2,1.9,1c1-0.2,1.6-0.8,1.4-1.5c-0.1-0.6-0.7-0.8-1.3-0.9l-1.2-0.1
					c-1.5-0.1-2.4-0.6-2.6-2c-0.3-1.4,0.7-2.7,2.4-3c1.4-0.3,3,0.2,3.3,1.9l-1.5,0.3c-0.1-0.6-0.9-0.9-1.5-0.8
					c-0.8,0.1-1.2,0.8-1.1,1.4c0.1,0.6,0.7,0.8,1.2,0.8l1.3,0.1c1.8,0.1,2.4,1.1,2.6,2c0.3,1.5-1,2.8-2.7,3.1
					C129.7,366.4,128,365.8,127.6,364.1z"/>
				<path class="st17" d="M141.4,355.5l1.5-0.3l1.3,7.1c0.7,3.9-0.8,5.7-3.5,6.2c-1.5,0.3-3-0.2-4.1-1.5l1.2-0.9
					c0.7,0.8,1.8,1.2,2.7,1c1.8-0.3,2.8-1.6,2.2-4.4l0-0.2c-0.4,1-1.5,1.8-2.7,2c-2.3,0.4-4.5-1-5-3.6c-0.5-2.6,1.1-4.7,3.3-5.1
					c1.2-0.2,2.5,0.1,3.2,1L141.4,355.5z M142.1,359.6c-0.3-1.8-2-2.6-3.3-2.3c-1.5,0.3-2.5,1.7-2.2,3.4c0.3,1.6,1.7,2.7,3.2,2.4
					C141.4,362.8,142.5,361.4,142.1,359.6z"/>
				<path class="st17" d="M152.1,353.5l1.5-0.3l1.5,8.3l-1.5,0.3l-0.3-1.5c-0.4,1.1-1.4,2-2.7,2.2c-2.2,0.4-4.4-1.1-4.9-3.6
					c-0.5-2.4,1-4.7,3.3-5.1c1.2-0.2,2.5,0.1,3.2,1L152.1,353.5z M152.9,357.6c-0.3-1.7-2-2.6-3.3-2.4c-1.5,0.3-2.5,1.8-2.2,3.4
					c0.3,1.6,1.7,2.7,3.3,2.4C152.1,360.8,153.2,359.3,152.9,357.6z"/>
				<path class="st17" d="M156.8,358.7l1.4-0.3c0.1,0.7,0.9,1.2,1.9,1c1-0.2,1.6-0.8,1.4-1.5c-0.1-0.6-0.7-0.8-1.3-0.9L159,357
					c-1.5-0.1-2.4-0.6-2.6-2c-0.3-1.4,0.7-2.7,2.4-3c1.4-0.3,3,0.2,3.3,1.9l-1.5,0.3c-0.1-0.6-0.9-0.9-1.5-0.8
					c-0.8,0.1-1.2,0.8-1.1,1.4c0.1,0.6,0.7,0.8,1.2,0.8l1.3,0.1c1.8,0.1,2.4,1.1,2.6,2c0.3,1.5-1,2.8-2.7,3.1
					C158.9,361,157.2,360.4,156.8,358.7z"/>
				<path class="st17" d="M164.5,357.3l1.4-0.3c0.1,0.7,0.9,1.2,1.9,1c1-0.2,1.6-0.8,1.4-1.5c-0.1-0.6-0.7-0.8-1.3-0.9l-1.2-0.1
					c-1.5-0.1-2.4-0.6-2.6-2c-0.3-1.4,0.7-2.7,2.4-3c1.4-0.3,3,0.2,3.3,1.9l-1.5,0.3c-0.1-0.6-0.9-0.9-1.5-0.8
					c-0.8,0.1-1.2,0.8-1.1,1.4c0.1,0.6,0.7,0.8,1.2,0.8l1.3,0.1c1.8,0.1,2.4,1.1,2.6,2c0.3,1.5-1,2.8-2.7,3.1
					C166.6,359.6,164.9,358.9,164.5,357.3z"/>
				<path class="st17" d="M180.4,353.2l-6.7,1.2c0.5,1.4,1.7,2,3.1,1.7c1-0.2,1.8-0.8,2.2-1.7l1.4,0.3c-0.4,1.6-1.8,2.6-3.4,2.9
					c-2.4,0.4-4.6-1-5.1-3.6c-0.5-2.6,1.1-4.7,3.4-5.1s4.4,0.9,4.9,3.6C180.4,352.8,180.4,353,180.4,353.2z M178.7,352.2
					c-0.5-1.4-1.6-2-3-1.8c-1.4,0.3-2.3,1.2-2.2,2.7L178.7,352.2z"/>
			</g>
		</g>
	</g>
	<g>
		<defs>
			<rect id="SVGID_00000020393661774520739370000012539230969126006680_" width="375" height="520"/>
		</defs>
		<clipPath id="SVGID_00000075129160643439196080000001893838149642359217_">
			<use xlink:href="#SVGID_00000020393661774520739370000012539230969126006680_"  style="overflow:visible;"/>
		</clipPath>
		<g style="clip-path:url(#SVGID_00000075129160643439196080000001893838149642359217_);">
			<g class="st16">
				<path class="st17" d="M8.5,165.1l0.1-1.5c0.3,0.1,1,0.1,1.2,0.1c1.6-0.1,2.1-1.3,2-2.6l-0.9-12.6l1.6-0.1l0.9,12.6
					c0.2,2.2-0.8,4.1-3.5,4.3C9.5,165.3,8.9,165.2,8.5,165.1z"/>
			</g>
			<g class="st16">
				<path class="st17" d="M22.3,151.7l1.6-0.1l0.6,8.4l-1.6,0.1l-0.1-1.5c-0.5,1-1.6,1.8-3,1.9c-2.2,0.2-4.2-1.6-4.4-4.1
					c-0.2-2.5,1.5-4.5,3.9-4.7c1.3-0.1,2.5,0.4,3.1,1.3L22.3,151.7z M22.5,155.9c-0.1-1.7-1.7-2.8-3.1-2.7c-1.5,0.1-2.7,1.5-2.5,3.1
					c0.1,1.6,1.4,2.9,3,2.8C21.4,159,22.7,157.6,22.5,155.9z"/>
			</g>
			<g class="st16">
				<path class="st17" d="M34.7,159.3l-2.1,0.1l-4.1-3.8l0.3,4.1l-1.6,0.1l-0.9-13l1.6-0.1l0.5,7.5l2.7-3.2l2.2-0.2l-3.3,3.9
					L34.7,159.3z"/>
			</g>
			<g class="st16">
				<path class="st17" d="M34.5,155.1c-0.2-2.7,1.7-4.5,4.1-4.7s4.5,1.4,4.7,4.1c0.2,2.7-1.7,4.6-4.1,4.7S34.7,157.7,34.5,155.1z
					 M41.7,154.6c-0.1-1.7-1.5-2.8-3-2.7c-1.5,0.1-2.7,1.4-2.6,3.1c0.1,1.7,1.5,2.9,3,2.7C40.7,157.6,41.9,156.3,41.7,154.6z"/>
				<path class="st17" d="M54.2,153.7c0.2,2.6-1.6,4.6-3.9,4.7c-1.2,0.1-2.5-0.4-3.1-1.3l0.1,1.3l-1.6,0.1l-0.9-13l1.6-0.1l0.4,5.9
					c0.5-1,1.6-1.6,2.9-1.7C52,149.4,54,151,54.2,153.7z M52.6,153.8c-0.1-1.7-1.4-2.8-3-2.7c-1.4,0.1-2.8,1.3-2.6,3.1
					c0.1,1.8,1.6,2.9,3,2.8C51.6,156.8,52.8,155.5,52.6,153.8z"/>
				<path class="st17" d="M55.8,155.3l1.5-0.1c0.1,0.7,0.7,1.3,1.8,1.2c1.1-0.1,1.7-0.6,1.6-1.3c0-0.6-0.6-0.9-1.2-1l-1.2-0.2
					c-1.4-0.3-2.3-0.9-2.4-2.3c-0.1-1.4,1-2.6,2.7-2.7c1.4-0.1,2.9,0.6,3.1,2.2l-1.5,0.1c-0.1-0.6-0.8-1-1.4-1
					c-0.8,0.1-1.3,0.6-1.3,1.3c0,0.6,0.6,0.8,1.1,0.9l1.3,0.2c1.8,0.3,2.3,1.3,2.4,2.3c0.1,1.6-1.3,2.7-3.1,2.8
					C57.7,157.9,56,157.1,55.8,155.3z"/>
				<path class="st17" d="M63.7,154.8l1.5-0.1c0.1,0.7,0.7,1.3,1.8,1.2c1.1-0.1,1.7-0.6,1.6-1.3c0-0.6-0.6-0.9-1.2-1l-1.2-0.2
					c-1.4-0.3-2.3-0.9-2.4-2.3c-0.1-1.4,1-2.6,2.7-2.7c1.4-0.1,2.9,0.6,3.1,2.2l-1.5,0.1c-0.1-0.6-0.8-1-1.4-1
					c-0.8,0.1-1.3,0.6-1.3,1.3c0,0.6,0.6,0.8,1.1,0.9l1.3,0.2c1.8,0.3,2.3,1.3,2.4,2.3c0.1,1.6-1.3,2.7-3.1,2.8
					C65.5,157.4,63.9,156.5,63.7,154.8z"/>
				<path class="st17" d="M75.7,148l0.1,1.3l-1.8,0.1l0.5,7l-1.6,0.1l-0.5-7l-1.5,0.1l-0.1-1.3l1.5-0.1l-0.2-3.2l1.6-0.1l0.2,3.2
					L75.7,148z"/>
			</g>
			<g class="st16">
				<path class="st17" d="M82.9,147.6l-0.1,1.5c-0.5-0.2-0.9-0.2-1.2-0.2c-1.7,0.1-2.2,2-2.1,4.2l0.2,3.1l-1.6,0.1l-0.6-8.4l1.6-0.1
					l0.1,1.9c0.3-1.5,1.1-2.2,2.2-2.3C82,147.3,82.6,147.5,82.9,147.6z"/>
			</g>
			<g class="st16">
				<path class="st17" d="M90.8,146.9l1.6-0.1l0.6,8.4l-1.6,0.1l-0.1-1.5c-0.5,1-1.6,1.8-3,1.9c-2.2,0.2-4.2-1.6-4.4-4.1
					c-0.2-2.5,1.5-4.5,3.9-4.7c1.3-0.1,2.5,0.4,3.1,1.3L90.8,146.9z M91.1,151.1c-0.1-1.7-1.7-2.8-3.1-2.7c-1.5,0.1-2.7,1.5-2.5,3.1
					c0.1,1.6,1.4,2.9,3,2.8C89.9,154.2,91.2,152.8,91.1,151.1z"/>
				<path class="st17" d="M103.7,150.6c0.2,2.4-1.5,4.2-4,4.4c-0.4,0-1.1,0-1.7-0.1l0.2-1.4c0.4,0.1,0.9,0.1,1.4,0.1
					c1.6-0.1,2.6-1.3,2.5-2.9c-0.1-1.6-1.4-2.6-3-2.5l-0.7,0l-0.1-1.3l0.5,0c1.1-0.1,1.8-1.1,1.7-2.2c-0.1-1.1-0.9-1.7-2-1.6
					c-1.3,0.1-2.1,0.9-2,2.7l0.6,9.1l-1.6,0.1l-0.6-9.1c-0.2-2.7,1.2-4.2,3.4-4.3c2.1-0.1,3.6,1,3.7,2.8c0.1,1.1-0.4,2.2-1.1,2.8
					C102.5,147.6,103.6,148.9,103.7,150.6z"/>
				<path class="st17" d="M113.8,150.2l-6.8,0.5c0.3,1.5,1.5,2.2,2.9,2.1c1-0.1,1.9-0.6,2.4-1.5l1.4,0.4c-0.6,1.5-2.1,2.4-3.7,2.5
					c-2.4,0.2-4.4-1.5-4.6-4.1c-0.2-2.7,1.6-4.5,4-4.7c2.4-0.2,4.3,1.4,4.5,4.1C113.8,149.8,113.8,150,113.8,150.2z M112.2,149
					c-0.3-1.4-1.4-2.2-2.8-2.1c-1.4,0.1-2.4,0.9-2.5,2.5L112.2,149z"/>
			</g>
		</g>
	</g>
	<g>
		<defs>
			<rect id="SVGID_00000055698897867093413740000002526550006844618385_" width="375" height="520"/>
		</defs>
		<clipPath id="SVGID_00000183207284130298396880000001585098660689257856_">
			<use xlink:href="#SVGID_00000055698897867093413740000002526550006844618385_"  style="overflow:visible;"/>
		</clipPath>
		<g style="clip-path:url(#SVGID_00000183207284130298396880000001585098660689257856_);">
			<g class="st16">
				<path class="st17" d="M216.4,129.6l0.4-1.5c0.2,0.1,1,0.3,1.1,0.3c1.6,0.3,2.4-0.7,2.6-2l2.2-12.4l1.6,0.3l-2.2,12.4
					c-0.4,2.1-1.7,3.8-4.5,3.3C217.4,130,216.8,129.8,216.4,129.6z"/>
			</g>
			<g class="st16">
				<path class="st17" d="M233,119.9l1.5,0.3l-1.5,8.3l-1.5-0.3l0.3-1.5c-0.7,0.9-2,1.4-3.3,1.1c-2.2-0.4-3.7-2.5-3.3-5.1
					c0.4-2.4,2.6-4,4.9-3.6c1.2,0.2,2.3,1,2.7,2L233,119.9z M232.3,124.1c0.3-1.7-0.9-3.1-2.3-3.4c-1.5-0.3-2.9,0.9-3.2,2.4
					c-0.3,1.6,0.7,3.1,2.2,3.4C230.4,126.7,232,125.8,232.3,124.1z"/>
			</g>
			<g class="st16">
				<path class="st17" d="M243.2,130.3l-2.1-0.4l-3.1-4.7l-0.7,4l-1.5-0.3l2.3-12.8l1.5,0.3l-1.3,7.4l3.4-2.4l2.1,0.4l-4.2,3
					L243.2,130.3z"/>
			</g>
			<g class="st16">
				<path class="st17" d="M244.1,126.2c0.5-2.6,2.7-4,5.1-3.6c2.4,0.4,4,2.5,3.6,5.1c-0.5,2.6-2.8,4-5.1,3.6
					S243.6,128.8,244.1,126.2z M251.2,127.4c0.3-1.7-0.8-3.1-2.3-3.4c-1.5-0.3-3,0.7-3.3,2.4c-0.3,1.7,0.7,3.1,2.3,3.4
					C249.4,130.1,250.9,129.1,251.2,127.4z"/>
				<path class="st17" d="M263.5,129.6c-0.5,2.6-2.6,4-4.9,3.6c-1.2-0.2-2.3-1-2.7-2l-0.2,1.3l-1.5-0.3l2.3-12.8l1.5,0.3l-1,5.8
					c0.7-0.9,2-1.2,3.2-1C262.4,124.9,264,127,263.5,129.6z M262,129.3c0.3-1.7-0.7-3.1-2.2-3.4c-1.3-0.2-3,0.6-3.3,2.4
					c-0.3,1.8,0.8,3.2,2.3,3.4C260.2,132,261.7,130.9,262,129.3z"/>
				<path class="st17" d="M264.7,131.6l1.4,0.3c-0.1,0.7,0.4,1.4,1.4,1.6c1,0.2,1.8-0.2,1.9-0.9c0.1-0.6-0.3-1-0.9-1.3l-1.1-0.5
					c-1.3-0.6-2-1.4-1.8-2.8c0.2-1.4,1.6-2.2,3.3-1.9c1.4,0.2,2.7,1.2,2.4,2.9l-1.5-0.3c0.1-0.6-0.5-1.2-1.1-1.3
					c-0.8-0.1-1.4,0.3-1.5,0.9c-0.1,0.6,0.4,1,0.9,1.2l1.2,0.5c1.6,0.7,1.9,1.8,1.7,2.8c-0.3,1.5-1.9,2.3-3.7,2
					C265.8,134.5,264.5,133.3,264.7,131.6z"/>
				<path class="st17" d="M272.4,132.9l1.4,0.3c-0.1,0.7,0.4,1.4,1.4,1.6c1,0.2,1.8-0.2,1.9-0.9c0.1-0.6-0.3-1-0.9-1.3l-1.1-0.5
					c-1.3-0.6-2-1.4-1.8-2.8c0.2-1.4,1.6-2.2,3.3-1.9c1.4,0.2,2.7,1.2,2.4,2.9l-1.5-0.3c0.1-0.6-0.5-1.2-1.1-1.3
					c-0.8-0.1-1.4,0.3-1.5,0.9c-0.1,0.6,0.4,1,0.9,1.2l1.2,0.5c1.6,0.7,1.9,1.8,1.7,2.8c-0.3,1.5-1.9,2.3-3.7,2
					C273.5,135.8,272.2,134.6,272.4,132.9z"/>
				<path class="st17" d="M285.8,129.2l-0.2,1.3l-1.8-0.3l-1.2,7l-1.5-0.3l1.2-7l-1.5-0.3l0.2-1.3l1.5,0.3l0.5-3.1l1.5,0.3l-0.6,3.1
					L285.8,129.2z"/>
			</g>
			<g class="st16">
				<path class="st17" d="M292.8,130.6l-0.5,1.4c-0.4-0.3-0.8-0.4-1.2-0.5c-1.6-0.3-2.6,1.4-3,3.6l-0.5,3l-1.6-0.3l1.5-8.3l1.6,0.3
					l-0.3,1.9c0.7-1.4,1.6-1.9,2.7-1.7C292,130.1,292.6,130.4,292.8,130.6z"/>
			</g>
			<g class="st16">
				<path class="st17" d="M300.6,131.9l1.5,0.3l-1.5,8.3l-1.5-0.3l0.3-1.5c-0.7,0.9-2,1.4-3.3,1.1c-2.2-0.4-3.7-2.5-3.3-5.1
					c0.4-2.4,2.6-4,4.9-3.6c1.2,0.2,2.3,1,2.7,2L300.6,131.9z M299.9,136c0.3-1.7-0.9-3.1-2.3-3.4c-1.5-0.3-2.9,0.9-3.2,2.4
					c-0.3,1.6,0.7,3.1,2.2,3.4C298.1,138.7,299.6,137.7,299.9,136z"/>
				<path class="st17" d="M312.3,138.5c-0.4,2.3-2.4,3.7-4.9,3.3c-0.4-0.1-1.1-0.3-1.6-0.5l0.6-1.3c0.4,0.2,0.9,0.4,1.3,0.4
					c1.5,0.3,2.8-0.6,3.1-2.2c0.3-1.6-0.8-2.9-2.3-3.2l-0.7-0.1l0.2-1.3l0.5,0.1c1.1,0.2,2-0.6,2.2-1.7c0.2-1.1-0.4-1.8-1.6-2
					c-1.3-0.2-2.2,0.4-2.6,2.2l-1.6,9l-1.5-0.3l1.6-9c0.5-2.7,2.2-3.7,4.3-3.4c2.1,0.4,3.2,1.8,2.9,3.6c-0.2,1.1-0.9,2-1.8,2.4
					C311.8,135.3,312.6,136.9,312.3,138.5z"/>
				<path class="st17" d="M322.1,140.6l-6.7-1.2c0,1.5,0.9,2.5,2.3,2.7c1,0.2,2-0.1,2.6-0.9l1.2,0.8c-1,1.3-2.6,1.8-4.2,1.5
					c-2.4-0.4-3.9-2.5-3.5-5.1c0.5-2.6,2.7-4,5-3.6s3.8,2.4,3.4,5.1C322.3,140.2,322.2,140.4,322.1,140.6z M320.9,139
					c0.1-1.5-0.8-2.4-2.2-2.7c-1.4-0.2-2.5,0.3-3,1.8L320.9,139z"/>
			</g>
		</g>
	</g>
	<g>
		<defs>
			<rect id="SVGID_00000061461783310892003130000010255851694542236850_" width="375" height="520"/>
		</defs>
		<clipPath id="SVGID_00000157306259505984108190000004285098081932128918_">
			<use xlink:href="#SVGID_00000061461783310892003130000010255851694542236850_"  style="overflow:visible;"/>
		</clipPath>
		<g style="clip-path:url(#SVGID_00000157306259505984108190000004285098081932128918_);">
			<g class="st16">
				<path class="st17" d="M238.9,293.1l0.1-1.6l12.4,0.9l-0.1,1.6l-5.4-0.4l-0.4,6.1l5.4,0.4l-0.1,1.6l-12.4-0.9l0.1-1.6l5.5,0.4
					l0.4-6.1L238.9,293.1z"/>
			</g>
			<g class="st16">
				<path class="st17" d="M247.3,289.8c-2.7-0.2-4.3-2.3-4.1-4.7s2-4.3,4.7-4.1c2.7,0.2,4.3,2.3,4.1,4.7S250,289.9,247.3,289.8z
					 M247.8,282.5c-1.7-0.1-3,1.1-3.1,2.6c-0.1,1.5,1,2.9,2.7,3c1.7,0.1,3-1.1,3.1-2.6C250.7,284,249.6,282.7,247.8,282.5z"/>
				<path class="st17" d="M252.3,279.1l-13-0.9l0.1-1.6l13,0.9L252.3,279.1z"/>
				<path class="st17" d="M244.7,267.5l1.3,0.1l5.3,5.6l0.4-5.2l1.5,0.1l-0.5,7.4l-1.3-0.1l-5.3-5.5l-0.3,4.8l-1.5-0.1L244.7,267.5z
					"/>
				<path class="st17" d="M249.3,252.4l4.8,0.3l-0.1,1.6l-4.8-0.3c-1.4-0.1-2.4,0.6-2.5,1.8c-0.1,1.5,0.9,2.3,2.7,2.5l4.2,0.3
					l-0.1,1.6l-4.8-0.3c-1.4-0.1-2.4,0.6-2.5,1.7c-0.1,1.2,0.6,2.4,2.4,2.5l4.5,0.3l-0.1,1.6l-8.4-0.6l0.1-1.6l1.3,0.1
					c-0.9-0.5-1.4-1.6-1.3-2.8c0.1-1.2,0.8-2.2,2-2.6c-1.5-0.9-1.7-2.2-1.6-3.1C245.5,253.3,246.9,252.2,249.3,252.4z"/>
				<path class="st17" d="M246.4,242.9l0.1-1.6l8.4,0.6l-0.1,1.6l-1.5-0.1c1,0.6,1.6,1.8,1.5,3.2c-0.2,2.2-2.1,4-4.7,3.8
					c-2.5-0.2-4.3-2.1-4.1-4.5c0.1-1.3,0.7-2.4,1.7-2.9L246.4,242.9z M250.6,243.2c-1.7-0.1-3,1.2-3.1,2.7c-0.1,1.5,1.2,2.8,2.7,3
					c1.6,0.1,3-1,3.1-2.6C253.4,244.8,252.3,243.3,250.6,243.2z"/>
				<path class="st17" d="M247.2,233.2l1.5,0.4c-0.2,0.4-0.3,0.9-0.4,1.2c-0.1,1.7,1.7,2.5,3.9,2.6l3.1,0.2l-0.1,1.6l-8.4-0.6
					l0.1-1.6l1.9,0.1c-1.4-0.5-2-1.4-2-2.5C246.8,234.1,247,233.5,247.2,233.2z"/>
				<path class="st17" d="M256.1,224.7l-0.1,2.1l-4.4,3.6l4.1,0.3l-0.1,1.6l-12.9-0.9l0.1-1.6l7.5,0.5l-2.8-3.1l0.2-2.2l3.4,3.8
					L256.1,224.7z"/>
				<path class="st17" d="M248.1,218.9l1.3,0.1l-0.1,1.8l7,0.5l-0.1,1.6l-7-0.5l-0.1,1.5l-1.3-0.1l0.1-1.5l-3.2-0.2l0.1-1.6l3.2,0.2
					L248.1,218.9z"/>
			</g>
		</g>
	</g>
	<g>
		<defs>
			<rect id="SVGID_00000045607067085877344080000003762693037466874299_" width="375" height="520"/>
		</defs>
		<clipPath id="SVGID_00000121972284696232873650000001666587147412877466_">
			<use xlink:href="#SVGID_00000045607067085877344080000003762693037466874299_"  style="overflow:visible;"/>
		</clipPath>
		<g style="clip-path:url(#SVGID_00000121972284696232873650000001666587147412877466_);">
			<g>
				<defs>
					<rect id="SVGID_00000140008721188749885460000010336536856348728986_" width="375" height="520"/>
				</defs>
				<clipPath id="SVGID_00000162353590980590039310000001750333866028042632_">
					<use xlink:href="#SVGID_00000140008721188749885460000010336536856348728986_"  style="overflow:visible;"/>
				</clipPath>
				<path style="clip-path:url(#SVGID_00000162353590980590039310000001750333866028042632_);fill:#ED726A;" d="M312.1,48
					c9.7,0,17.5-7.8,17.5-17.5S321.8,13,312.1,13s-17.5,7.8-17.5,17.5C294.6,40.1,302.5,48,312.1,48"/>
			</g>
			<g>
				<defs>
					<rect id="SVGID_00000094575743849102304720000002540867590187325349_" width="375" height="520"/>
				</defs>
				<clipPath id="SVGID_00000049938200936453907270000016152041455354913955_">
					<use xlink:href="#SVGID_00000094575743849102304720000002540867590187325349_"  style="overflow:visible;"/>
				</clipPath>
				<path style="clip-path:url(#SVGID_00000049938200936453907270000016152041455354913955_);fill:#FFFFFF;" d="M310.2,30v-5.1h3.5
					c1.6,0,2.3,1.3,2.3,2.6c0,1.2-0.6,2.5-2.3,2.5H310.2z M306.7,21.8v17.4h3.5v-6.1h3.6c3.9,0,5.7-2.8,5.7-5.6s-1.7-5.7-5.7-5.7
					H306.7z"/>
			</g>
		</g>
	</g>
	<g>
		<defs>
			<rect id="SVGID_00000092444852100422329590000009106293322420497328_" width="375" height="520"/>
		</defs>
		<clipPath id="SVGID_00000178206138390993695160000011073238059875420303_">
			<use xlink:href="#SVGID_00000092444852100422329590000009106293322420497328_"  style="overflow:visible;"/>
		</clipPath>
		
			<rect x="260.8" y="490.2" style="clip-path:url(#SVGID_00000178206138390993695160000011073238059875420303_);fill:#ED726A;" width="114.2" height="29.8"/>
	</g>
	<g>
		<defs>
			<rect id="SVGID_00000047758206654913245770000005546845561982758334_" width="375" height="520"/>
		</defs>
		<clipPath id="SVGID_00000042015032897390289000000014463468669065594262_">
			<use xlink:href="#SVGID_00000047758206654913245770000005546845561982758334_"  style="overflow:visible;"/>
		</clipPath>
		<g style="clip-path:url(#SVGID_00000042015032897390289000000014463468669065594262_);">
			<g class="st16">
				<path class="st29" d="M280.6,497.9l1.7,0l-3.8,12.4l-1.6,0l-3.6-12.4l1.7,0l2.8,9.7L280.6,497.9z"/>
			</g>
			<g class="st16">
				<path class="st29" d="M282.7,506.1c0-2.7,2-4.4,4.4-4.4s4.4,1.8,4.4,4.5s-2.1,4.4-4.4,4.4S282.7,508.8,282.7,506.1z
					 M289.9,506.2c0-1.7-1.3-2.9-2.8-3c-1.5,0-2.8,1.2-2.8,2.9c0,1.7,1.3,3,2.8,3C288.6,509.1,289.9,507.9,289.9,506.2z"/>
				<path class="st29" d="M300.4,502.1l1.6,0l-0.1,7.2c0,4-1.8,5.5-4.6,5.4c-1.5,0-2.9-0.8-3.8-2.3l1.3-0.7c0.5,1,1.5,1.5,2.4,1.5
					c1.9,0,3-1,3-3.9l0-0.3c-0.6,0.9-1.8,1.5-3,1.5c-2.3,0-4.2-1.8-4.2-4.5c0-2.7,1.9-4.4,4.2-4.4c1.3,0,2.4,0.6,3,1.6L300.4,502.1z
					 M300.3,506.3c0-1.8-1.5-2.9-2.8-2.9c-1.5,0-2.8,1.2-2.8,2.9c0,1.7,1.2,3,2.7,3C299,509.2,300.3,508.1,300.3,506.3z"/>
				<path class="st29" d="M312.5,507.1l-6.8-0.1c0.2,1.5,1.3,2.3,2.7,2.3c1,0,2-0.5,2.5-1.3l1.3,0.6c-0.7,1.5-2.3,2.2-3.9,2.2
					c-2.4,0-4.3-1.8-4.3-4.5c0-2.7,2-4.4,4.4-4.4c2.4,0,4.2,1.8,4.1,4.4C312.6,506.6,312.5,506.8,312.5,507.1z M311,505.7
					c-0.2-1.4-1.2-2.3-2.6-2.3c-1.4,0-2.4,0.7-2.7,2.2L311,505.7z"/>
				<path class="st29" d="M314.7,510.6l0.1-13l1.6,0l-0.1,13L314.7,510.6z"/>
				<path class="st29" d="M329.7,502.3l1.7,0l-3.2,8.4l-1.3,0l-2.3-6.3l-2.3,6.2l-1.3,0l-3.1-8.4l1.7,0l2.1,6l2.2-6l1.5,0l2.1,6
					L329.7,502.3z"/>
				<path class="st29" d="M332.8,499.3c0-0.6,0.5-1,1.1-1c0.6,0,1.1,0.5,1.1,1.1c0,0.6-0.5,1-1.1,1
					C333.2,500.3,332.7,499.9,332.8,499.3z M333,510.8l0.1-8.4l1.6,0l-0.1,8.4L333,510.8z"/>
				<path class="st29" d="M345.2,507.4l-6.8-0.1c0.2,1.5,1.3,2.3,2.7,2.3c1,0,2-0.5,2.5-1.3l1.3,0.6c-0.7,1.5-2.3,2.2-3.9,2.2
					c-2.4,0-4.3-1.8-4.3-4.5c0-2.7,2-4.4,4.4-4.4c2.4,0,4.2,1.8,4.1,4.4C345.2,506.9,345.2,507.1,345.2,507.4z M343.7,506
					c-0.2-1.4-1.2-2.3-2.6-2.3c-1.4,0-2.4,0.7-2.7,2.2L343.7,506z"/>
				<path class="st29" d="M346.7,508.4l1.5,0c0,0.7,0.6,1.3,1.7,1.3c1.1,0,1.7-0.5,1.7-1.2c0-0.6-0.5-1-1.1-1.1l-1.1-0.3
					c-1.4-0.4-2.2-1.1-2.2-2.4c0-1.4,1.2-2.5,2.9-2.5c1.4,0,2.9,0.8,2.9,2.5l-1.5,0c0-0.6-0.7-1.1-1.3-1.1c-0.8,0-1.4,0.5-1.4,1.2
					c0,0.6,0.5,0.9,1.1,1l1.2,0.3c1.7,0.4,2.2,1.5,2.2,2.4c0,1.6-1.5,2.5-3.3,2.5C348.3,511.1,346.8,510.2,346.7,508.4z"/>
				<path class="st29" d="M363.1,507.5l-6.8-0.1c0.2,1.5,1.3,2.3,2.7,2.3c1,0,2-0.5,2.5-1.3l1.3,0.6c-0.7,1.5-2.3,2.2-3.9,2.2
					c-2.4,0-4.3-1.8-4.3-4.5c0-2.7,2-4.4,4.4-4.4c2.4,0,4.2,1.8,4.1,4.4C363.1,507,363.1,507.3,363.1,507.5z M361.6,506.1
					c-0.2-1.4-1.2-2.3-2.6-2.3c-1.4,0-2.4,0.7-2.7,2.2L361.6,506.1z"/>
			</g>
		</g>
	</g>
	<g>
		<defs>
			<rect id="SVGID_00000168103957346465863850000007251413202393533072_" width="375" height="520"/>
		</defs>
		<clipPath id="SVGID_00000080891820801659148100000014372286339684189581_">
			<use xlink:href="#SVGID_00000168103957346465863850000007251413202393533072_"  style="overflow:visible;"/>
		</clipPath>
		
			<rect x="244" y="55" style="clip-path:url(#SVGID_00000080891820801659148100000014372286339684189581_);fill:#ED726A;" width="131" height="29.8"/>
	</g>
	<g>
		<defs>
			<rect id="SVGID_00000147212896555392112290000008303882766028023182_" width="375" height="520"/>
		</defs>
		<clipPath id="SVGID_00000115473443136416672010000017046935849734822788_">
			<use xlink:href="#SVGID_00000147212896555392112290000008303882766028023182_"  style="overflow:visible;"/>
		</clipPath>
		<g style="clip-path:url(#SVGID_00000115473443136416672010000017046935849734822788_);">
			<g class="st16">
				<path class="st29" d="M270.8,75.1l-1.6,0l-1.1-9.5l-4,8.1l-1.4,0l-3.9-8.1l-1.2,9.4l-1.6,0l1.6-12.4l1.5,0l4.3,9.2l4.5-9.2
					l1.5,0L270.8,75.1z"/>
			</g>
			<g class="st16">
				<path class="st29" d="M279.8,66.8l1.6,0l-0.1,8.4l-1.6,0l0-1.5c-0.6,1-1.7,1.7-3.1,1.7c-2.2,0-4.1-1.9-4.1-4.5
					c0-2.5,1.9-4.4,4.2-4.4c1.3,0,2.4,0.6,3,1.6L279.8,66.8z M279.8,71c0-1.7-1.4-2.9-2.8-3c-1.5,0-2.8,1.3-2.8,2.9
					c0,1.6,1.2,3,2.7,3C278.4,73.9,279.8,72.7,279.8,71z"/>
				<path class="st29" d="M289.5,67l-0.3,1.5c-0.4-0.2-0.9-0.3-1.2-0.3c-1.7,0-2.4,1.8-2.4,4l0,3.1l-1.6,0l0.1-8.4l1.6,0l0,1.9
					c0.4-1.5,1.3-2.1,2.4-2.1C288.6,66.6,289.3,66.8,289.5,67z"/>
				<path class="st29" d="M290.8,63.8c0-0.6,0.5-1,1.1-1c0.6,0,1.1,0.5,1.1,1.1c0,0.6-0.5,1-1.1,1C291.3,64.8,290.8,64.4,290.8,63.8
					z M291,75.3l0.1-8.4l1.6,0l-0.1,8.4L291,75.3z"/>
				<path class="st29" d="M303.2,71.9l-6.8-0.1c0.2,1.5,1.3,2.3,2.7,2.3c1,0,2-0.5,2.5-1.3l1.3,0.6c-0.7,1.5-2.3,2.2-3.9,2.2
					c-2.4,0-4.3-1.8-4.3-4.5c0-2.7,2-4.4,4.4-4.4c2.4,0,4.2,1.8,4.1,4.4C303.3,71.4,303.2,71.6,303.2,71.9z M301.7,70.5
					c-0.2-1.4-1.2-2.3-2.6-2.3c-1.4,0-2.4,0.7-2.7,2.2L301.7,70.5z"/>
				<path class="st29" d="M313.1,70.6l0,4.9l-1.6,0l0-4.8c0-1.4-0.8-2.3-2-2.3c-1.2,0-2.6,0.7-2.6,2.5l0,4.6l-1.6,0l0.1-8.4l1.6,0
					l0,1.3c0.5-1,1.9-1.5,2.8-1.5C311.9,66.9,313.2,68.3,313.1,70.6z"/>
				<path class="st29" d="M329,70.8l0,4.9l-1.6,0l0-4.8c0-1.4-0.8-2.3-2-2.4c-1.5,0-2.3,1-2.3,2.9l0,4.2l-1.6,0l0-4.8
					c0-1.4-0.8-2.3-1.9-2.4c-1.2,0-2.4,0.8-2.4,2.5l0,4.6l-1.6,0l0.1-8.4l1.6,0l0,1.3c0.4-0.9,1.5-1.5,2.7-1.5
					c1.2,0,2.3,0.7,2.8,1.8c0.8-1.5,2.1-1.8,3-1.8C327.9,67,329,68.4,329,70.8z"/>
				<path class="st29" d="M338.2,67.3l1.6,0l-0.1,8.4l-1.6,0l0-1.5c-0.6,1-1.7,1.7-3.1,1.7c-2.2,0-4.1-1.9-4.1-4.5
					c0-2.5,1.9-4.4,4.2-4.4c1.3,0,2.4,0.6,3,1.6L338.2,67.3z M338.2,71.5c0-1.7-1.4-2.9-2.8-3c-1.5,0-2.8,1.3-2.8,2.9
					c0,1.6,1.2,3,2.7,3C336.8,74.4,338.2,73.2,338.2,71.5z"/>
				<path class="st29" d="M348.6,67.4l1.6,0l-0.1,8.4l-1.6,0l0-1.3c-0.5,1.1-1.9,1.5-2.8,1.5c-2.1,0-3.4-1.4-3.4-3.8l0-4.9l1.6,0
					l0,4.8c0,1.4,0.8,2.3,2,2.3c1.2,0,2.6-0.7,2.6-2.5L348.6,67.4z"/>
				<path class="st29" d="M360.8,72.4l-6.8-0.1c0.2,1.5,1.3,2.3,2.7,2.3c1,0,2-0.5,2.5-1.3l1.3,0.6c-0.7,1.5-2.3,2.2-3.9,2.2
					c-2.4,0-4.3-1.8-4.3-4.5s2-4.4,4.4-4.4c2.4,0,4.2,1.8,4.1,4.4C360.8,71.9,360.8,72.1,360.8,72.4z M359.2,71
					c-0.2-1.4-1.2-2.3-2.6-2.3c-1.4,0-2.4,0.7-2.7,2.2L359.2,71z"/>
				<path class="st29" d="M368.4,67.7l-0.3,1.5c-0.4-0.2-0.9-0.3-1.2-0.3c-1.7,0-2.4,1.8-2.4,4l0,3.1l-1.6,0l0.1-8.4l1.6,0l0,1.9
					c0.4-1.5,1.3-2.1,2.4-2.1C367.5,67.3,368.1,67.5,368.4,67.7z"/>
			</g>
		</g>
	</g>
	<g>
		<defs>
			<rect id="SVGID_00000099652066918845267090000016774129925547440772_" width="375" height="520"/>
		</defs>
		<clipPath id="SVGID_00000178886410788366861960000006296579766094547374_">
			<use xlink:href="#SVGID_00000099652066918845267090000016774129925547440772_"  style="overflow:visible;"/>
		</clipPath>
		<g style="clip-path:url(#SVGID_00000178886410788366861960000006296579766094547374_);">
			<g class="st16">
				<path class="st17" d="M307.6,321.3l-1.5-0.4c0.1-0.3,0.3-1,0.3-1.1c0.3-1.6-0.8-2.3-2.1-2.5l-12.4-2l0.3-1.6l12.4,2
					c2.1,0.3,3.8,1.7,3.4,4.4C307.9,320.3,307.7,320.9,307.6,321.3z"/>
			</g>
			<g class="st16">
				<path class="st17" d="M297.6,304.9l0.2-1.5l8.3,1.3l-0.2,1.5l-1.5-0.2c0.9,0.7,1.4,2,1.2,3.3c-0.3,2.2-2.5,3.8-5,3.4
					c-2.5-0.4-4.1-2.5-3.7-4.8c0.2-1.2,0.9-2.3,2-2.7L297.6,304.9z M301.8,305.5c-1.7-0.3-3.1,1-3.3,2.4c-0.2,1.5,0.9,2.9,2.5,3.2
					c1.6,0.3,3.1-0.7,3.3-2.3C304.5,307.3,303.5,305.8,301.8,305.5z"/>
			</g>
			<g class="st16">
				<path class="st17" d="M307.8,294.5l-0.3,2.1l-4.7,3.2l4.1,0.6l-0.2,1.5l-12.8-2l0.2-1.5l7.5,1.2l-2.5-3.3l0.3-2.2l3,4.1
					L307.8,294.5z"/>
			</g>
			<g class="st16">
				<path class="st17" d="M303.6,293.7c-2.6-0.4-4-2.7-3.7-5c0.4-2.4,2.4-4.1,5-3.7c2.6,0.4,4.1,2.7,3.7,5
					C308.3,292.4,306.3,294.1,303.6,293.7z M304.8,286.5c-1.7-0.3-3.1,0.8-3.3,2.4c-0.2,1.5,0.8,3,2.5,3.2c1.7,0.3,3.1-0.8,3.4-2.3
					C307.5,288.3,306.5,286.8,304.8,286.5z"/>
				<path class="st17" d="M306.7,274.2c2.6,0.4,4.1,2.6,3.7,4.9c-0.2,1.2-0.9,2.3-2,2.7l1.3,0.2l-0.2,1.5l-12.8-2l0.2-1.5l5.8,0.9
					c-0.9-0.7-1.2-2-1-3.2C302.1,275.3,304.1,273.7,306.7,274.2z M306.5,275.7c-1.7-0.3-3.1,0.8-3.3,2.3c-0.2,1.4,0.6,3,2.4,3.3
					c1.8,0.3,3.1-0.9,3.4-2.3C309.2,277.4,308.1,276,306.5,275.7z"/>
				<path class="st17" d="M308.7,272.9l0.2-1.4c0.7,0.1,1.4-0.4,1.6-1.4c0.2-1-0.3-1.8-0.9-1.9c-0.6-0.1-1,0.3-1.3,1l-0.4,1.1
					c-0.6,1.3-1.4,2-2.7,1.8c-1.4-0.2-2.3-1.6-2-3.2c0.2-1.4,1.2-2.7,2.9-2.5l-0.2,1.5c-0.6-0.1-1.2,0.5-1.3,1.2
					c-0.1,0.8,0.3,1.4,0.9,1.5c0.6,0.1,1-0.4,1.2-0.9l0.5-1.2c0.7-1.7,1.8-1.9,2.7-1.8c1.5,0.2,2.3,1.9,2,3.6
					C311.6,271.8,310.4,273.1,308.7,272.9z"/>
				<path class="st17" d="M309.7,251.1l4.8,0.8l-0.2,1.5l-4.7-0.7c-1.4-0.2-2.4,0.4-2.6,1.6c-0.3,1.5,0.7,2.4,2.5,2.7l4.2,0.7
					l-0.2,1.5l-4.7-0.7c-1.4-0.2-2.4,0.4-2.6,1.5c-0.2,1.2,0.4,2.5,2.2,2.7l4.5,0.7l-0.2,1.5l-8.3-1.3l0.2-1.5l1.3,0.2
					c-0.8-0.6-1.3-1.7-1.1-2.9c0.2-1.2,1-2.2,2.2-2.5c-1.4-1-1.5-2.3-1.3-3.2C305.8,251.7,307.4,250.7,309.7,251.1z"/>
				<path class="st17" d="M307.7,241.4l0.2-1.5l8.3,1.3l-0.2,1.5l-1.5-0.2c0.9,0.7,1.4,2,1.2,3.3c-0.3,2.2-2.5,3.8-5,3.4
					c-2.5-0.4-4.1-2.5-3.7-4.8c0.2-1.2,0.9-2.3,2-2.7L307.7,241.4z M311.8,242.1c-1.7-0.3-3.1,1-3.3,2.4c-0.2,1.5,0.9,2.9,2.5,3.2
					c1.6,0.3,3.1-0.7,3.3-2.3C314.5,243.9,313.5,242.4,311.8,242.1z"/>
				<path class="st17" d="M309.3,231.2l0.2-1.5l8.3,1.3l-0.2,1.5l-1.3-0.2c1,0.7,1.2,2.1,1.1,3c-0.3,2.1-1.9,3.1-4.2,2.8l-4.8-0.8
					l0.2-1.5l4.8,0.8c1.4,0.2,2.4-0.5,2.6-1.6c0.2-1.2-0.3-2.7-2.1-3L309.3,231.2z"/>
				<path class="st17" d="M316,219.9l-1.1,6.8c1.5,0,2.4-0.9,2.7-2.4c0.2-1-0.2-2-0.9-2.6l0.7-1.2c1.3,0.9,1.9,2.6,1.6,4.2
					c-0.4,2.4-2.4,4-5.1,3.6c-2.6-0.4-4-2.6-3.7-5c0.4-2.4,2.4-3.9,5-3.4C315.6,219.8,315.8,219.9,316,219.9z M314.4,221.2
					c-1.5,0-2.4,0.9-2.6,2.2c-0.2,1.4,0.4,2.5,1.8,3L314.4,221.2z"/>
				<path class="st17" d="M312.5,211.7l1.4,0.5c-0.3,0.4-0.4,0.8-0.5,1.2c-0.3,1.7,1.4,2.6,3.6,2.9l3,0.5l-0.2,1.6l-8.3-1.3l0.2-1.6
					l1.9,0.3c-1.4-0.7-1.9-1.6-1.7-2.7C312,212.5,312.3,211.9,312.5,211.7z"/>
			</g>
		</g>
	</g>
	<g>
		<defs>
			<rect id="SVGID_00000115512413954112609100000010542544284443052711_" width="375" height="520"/>
		</defs>
		<clipPath id="SVGID_00000057123697240233222020000015665312360070211977_">
			<use xlink:href="#SVGID_00000115512413954112609100000010542544284443052711_"  style="overflow:visible;"/>
		</clipPath>
		<g style="clip-path:url(#SVGID_00000057123697240233222020000015665312360070211977_);">
			<g>
				<defs>
					<rect id="SVGID_00000105391887467750971440000005395804055671226513_" width="375" height="520"/>
				</defs>
				<clipPath id="SVGID_00000154398774204188114810000014440721478142861495_">
					<use xlink:href="#SVGID_00000105391887467750971440000005395804055671226513_"  style="overflow:visible;"/>
				</clipPath>
				
					<line style="clip-path:url(#SVGID_00000154398774204188114810000014440721478142861495_);fill:none;stroke:#FFFFFF;stroke-width:5.625;" x1="374.5" y1="470.8" x2="484.1" y2="470.8"/>
			</g>
		</g>
	</g>
</g>
</svg>
