<?xml version="1.0" encoding="utf-8"?>
<!-- Generator: Adobe Illustrator 27.3.0, SVG Export Plug-In . SVG Version: 6.00 Build 0)  -->
<svg version="1.1" id="Ebene_1" xmlns="http://www.w3.org/2000/svg" xmlns:xlink="http://www.w3.org/1999/xlink" x="0px" y="0px"
	 viewBox="0 0 310 94" style="enable-background:new 0 0 310 94;" xml:space="preserve">
<style type="text/css">
	.st0{fill:#50545D;}
	.st1{fill:#ADB7C0;}
</style>
<g>
	<g>
		<path class="st0" d="M303.3,71.2c0.2-1.5,1.2-2.2,2.6-2.2c1.4,0,2.4,0.8,2.6,2.2H303.3z M310,71.8c0-2.6-1.7-4.3-4.1-4.3
			s-4.2,1.7-4.2,4.3c0,2.6,1.9,4.4,4.2,4.4c1.6,0,3.1-0.8,3.8-2.2l-1.3-0.5c-0.5,0.8-1.4,1.3-2.4,1.3c-1.4,0-2.5-0.8-2.7-2.2h6.7
			C310,72.3,310,72,310,71.8 M299.5,67.7H298V76h1.5V67.7z M298.8,65.7c0.6,0,1.1-0.4,1.1-1c0-0.6-0.5-1-1.1-1c-0.6,0-1.1,0.4-1.1,1
			C297.7,65.3,298.2,65.7,298.8,65.7 M291,74.7c-1.5,0-2.7-1.3-2.7-2.9c0-1.7,1.2-2.9,2.7-2.9c1.4,0,2.8,1.1,2.8,2.9
			C293.8,73.6,292.5,74.7,291,74.7 M293.8,69c-0.5-1-1.7-1.5-3-1.5c-2.3,0-4.1,1.7-4.1,4.3c0,2.6,1.9,4.3,4.1,4.3
			c1.2,0,2.4-0.6,2.9-1.5v0.2c0,2.8-1.1,3.8-3,3.8c-0.9,0-1.9-0.5-2.4-1.5l-1.3,0.7c0.8,1.4,2.2,2.2,3.7,2.2c2.7,0,4.5-1.5,4.5-5.4
			v-7.1h-1.5V69z M284.6,67.5c-1.1,0-1.9,0.6-2.3,2.1v-1.9h-1.6V76h1.6v-3c0-2.2,0.7-4,2.3-4c0.3,0,0.8,0.1,1.2,0.3l0.2-1.4
			C285.8,67.7,285.2,67.5,284.6,67.5 M276.5,72.3c0,1.8-1.4,2.5-2.5,2.5c-1.2,0-2-0.9-2-2.3v-4.7h-1.5v4.8c0,2.3,1.3,3.7,3.3,3.7
			c0.9,0,2.2-0.5,2.7-1.5V76h1.5v-8.3h-1.5V72.3z M267.6,67.5c-1.1,0-1.9,0.6-2.3,2.1v-1.9h-1.6V76h1.6v-3c0-2.2,0.7-4,2.3-4
			c0.3,0,0.8,0.1,1.2,0.3l0.2-1.4C268.8,67.7,268.2,67.5,267.6,67.5 M261,67.7h-1.5V76h1.5V67.7z M260.3,65.7c0.6,0,1.1-0.4,1.1-1
			c0-0.6-0.5-1-1.1-1c-0.6,0-1.1,0.4-1.1,1C259.2,65.3,259.7,65.7,260.3,65.7 M253.6,67.5c-0.9,0-2.2,0.5-2.7,1.5v-5.7h-1.5V76h1.5
			v-4.5c0-1.8,1.4-2.5,2.5-2.5s2,0.9,2,2.3V76h1.5v-4.8C257,68.9,255.7,67.5,253.6,67.5 M244.2,76.2c1.3,0,2.4-0.5,3.1-1.3l-1-1
			c-0.5,0.5-1.3,0.9-2.1,0.9c-1.6,0-2.9-1.2-2.9-2.9c0-1.7,1.3-2.9,2.9-2.9c0.9,0,1.6,0.3,2.1,0.9l1-1c-0.7-0.8-1.9-1.3-3.1-1.3
			c-2.4,0-4.4,1.7-4.4,4.3C239.8,74.5,241.9,76.2,244.2,76.2 M237.7,63.2h-1.5V76h1.5V63.2z M233.5,63.2H232V76h1.5V63.2z M225,74.7
			c-1.5,0-2.7-1.3-2.7-2.9c0-1.6,1.2-2.9,2.7-2.9c1.4,0,2.8,1.2,2.8,2.9C227.8,73.5,226.4,74.7,225,74.7 M227.8,69
			c-0.5-1-1.7-1.5-3-1.5c-2.3,0-4.1,1.9-4.1,4.3c0,2.5,1.9,4.3,4,4.3c1.3,0,2.5-0.7,3-1.7V76h1.5v-8.3h-1.5V69z M220.3,64.7v-1.4
			h-0.9c-2.2,0-3.1,1.5-3.1,3.6v0.8h-1.6V69h1.6V76h1.5V69h1.9v-1.3h-1.9v-1.1c0-1.1,0.4-2,1.8-2H220.3z M209.8,67.5
			c-0.9,0-2.2,0.5-2.7,1.5v-1.3h-1.5V76h1.5v-4.5c0-1.8,1.4-2.5,2.5-2.5c1.2,0,2,0.9,2,2.3V76h1.5v-4.8
			C213.2,68.9,211.9,67.5,209.8,67.5 M198.4,76.2c2.4,0,4.4-1.6,4.4-4.4v-8h-1.6v8c0,1.9-1.3,2.8-2.8,2.8c-1.5,0-2.8-0.9-2.8-2.8v-8
			H194v8C194,74.6,196,76.2,198.4,76.2 M181.7,74.7c-1.4,0-2.4-0.9-2.4-2.3c0-1.5,1.2-2.6,3-2.6h2.1v2.5
			C184.3,73.8,183.3,74.7,181.7,74.7 M187.5,74.7c-1,0-1.5-1-1.5-2.5v-2.3h1.5v-1.2h-1.5v-1.3h-1.5v1.3h-2.2c-1.3,0-2.1-0.7-2.1-1.9
			c0-1,0.7-1.8,1.7-1.8c0.7,0,1.4,0.4,1.8,1l1.3-0.8c-0.6-1-1.7-1.7-3-1.7c-1.9,0-3.2,1.2-3.2,3.1c0,1.1,0.5,2.2,1.4,2.6
			c-1.3,0.5-2.2,1.8-2.2,3.4c0,2.1,1.5,3.5,3.8,3.5c1.5,0,2.8-0.6,3.4-1.7c0.2,1,1.1,1.6,2.5,1.6h0.3v-1.4H187.5z M165,71.2
			c0.2-1.5,1.2-2.2,2.6-2.2c1.4,0,2.4,0.8,2.6,2.2H165z M171.7,71.8c0-2.6-1.7-4.3-4.1-4.3c-2.4,0-4.2,1.7-4.2,4.3
			c0,2.6,1.9,4.4,4.2,4.4c1.6,0,3.1-0.8,3.8-2.2l-1.3-0.5c-0.5,0.8-1.4,1.3-2.4,1.3c-1.4,0-2.5-0.8-2.7-2.2h6.7
			C171.7,72.3,171.7,72,171.7,71.8 M161.2,67.7h-1.5V76h1.5V67.7z M160.5,65.7c0.6,0,1.1-0.4,1.1-1c0-0.6-0.5-1-1.1-1
			c-0.6,0-1.1,0.4-1.1,1C159.4,65.3,159.9,65.7,160.5,65.7 M152.7,74.7c-1.5,0-2.7-1.3-2.7-2.9c0-1.7,1.2-2.9,2.7-2.9
			c1.4,0,2.8,1.1,2.8,2.9C155.5,73.6,154.1,74.7,152.7,74.7 M155.5,69c-0.5-1-1.7-1.5-3-1.5c-2.3,0-4.1,1.7-4.1,4.3
			c0,2.6,1.9,4.3,4.1,4.3c1.2,0,2.4-0.6,2.9-1.5V76h1.5V63.2h-1.5V69z M141.9,74.7c-1.5,0-2.7-1.3-2.7-2.9c0-1.6,1.2-2.9,2.7-2.9
			c1.4,0,2.8,1.2,2.8,2.9C144.7,73.5,143.4,74.7,141.9,74.7 M144.7,69c-0.5-1-1.7-1.5-3-1.5c-2.3,0-4.1,1.9-4.1,4.3
			c0,2.5,1.9,4.3,4,4.3c1.3,0,2.5-0.7,3-1.7V76h1.5v-8.3h-1.5V69z M140,65.8h4.4v-1.4H140V65.8z M131.8,74.7c-1.3,0-2.8-1.1-2.8-2.9
			c0-1.8,1.3-2.9,2.8-2.9c1.5,0,2.7,1.3,2.7,2.9C134.5,73.5,133.3,74.7,131.8,74.7 M131.9,67.5c-1.2,0-2.4,0.6-2.9,1.5v-1.3h-1.5V80
			h1.5v-5.3c0.5,1,1.7,1.5,3,1.5c2.3,0,4.1-1.7,4.1-4.3C136.1,69.3,134.2,67.5,131.9,67.5 M121,74.7c-1.5,0-2.8-1.2-2.8-2.9
			c0-1.7,1.3-2.9,2.8-2.9c1.5,0,2.8,1.2,2.8,2.9C123.8,73.5,122.5,74.7,121,74.7 M121,76.2c2.4,0,4.3-1.7,4.3-4.3
			c0-2.6-2-4.3-4.3-4.3s-4.3,1.7-4.3,4.3C116.7,74.5,118.7,76.2,121,76.2 M111.4,67.5c-0.9,0-2.2,0.5-2.7,1.5v-5.7h-1.5V76h1.5v-4.5
			c0-1.8,1.4-2.5,2.5-2.5s2,0.9,2,2.3V76h1.5v-4.8C114.7,68.9,113.4,67.5,111.4,67.5 M103.6,67.7v-3.1h-1.5v3.1h-1.5V69h1.5V76h1.5
			V69h1.8v-1.3H103.6z M98.5,67.5c-1.1,0-1.9,0.6-2.3,2.1v-1.9h-1.6V76h1.6v-3c0-2.2,0.7-4,2.3-4c0.3,0,0.8,0.1,1.2,0.3l0.2-1.4
			C99.6,67.7,99,67.5,98.5,67.5 M86.3,74.7c-2.6,0-4.5-2.2-4.5-4.8c0-2.6,2-4.8,4.5-4.8c2.6,0,4.6,2.2,4.6,4.8
			C90.9,72.5,88.9,74.7,86.3,74.7 M86.3,76.2c3.5,0,6.2-2.8,6.2-6.3c0-3.5-2.7-6.3-6.2-6.3c-3.5,0-6.1,2.9-6.1,6.3
			C80.1,73.4,82.8,76.2,86.3,76.2"/>
		<path class="st0" d="M279.4,45.1c1.1,0,1.7,0.8,1.7,1.7c0,0.9-0.5,1.7-1.8,1.7h-1.8v-3.4H279.4z M283.6,54.4l-2.9-4.2
			c1.6-0.3,2.7-1.9,2.7-3.5c0-1.9-1.1-3.7-3.7-3.7h-4.6v11.4h2.3v-4.1h0.8l2.7,4.1H283.6z M266.1,49.8h4.3v-2.1h-4.3v-2.7h4.9v-2
			h-7.2v11.4h7.3v-2h-5V49.8z M258.4,43h-2l-3.5,7.5l-3.5-7.5h-2L246,54.4h2.4l0.8-7.1l2.8,5.8h1.8l2.8-5.8l0.8,7.1h2.4L258.4,43z
			 M239.7,47.7h-4.3V43h-2.3v11.4h2.3v-4.6h4.3v4.6h2.3V43h-2.3V47.7z M224.9,54.6c1.9,0,3.6-0.9,4.7-2.4l-1.8-1.3
			c-0.6,0.9-1.6,1.5-2.8,1.5c-2.1,0-3.6-1.7-3.6-3.7c0-2,1.5-3.7,3.6-3.7c1.2,0,2.2,0.6,2.8,1.5l1.8-1.3c-1-1.4-2.7-2.4-4.7-2.4
			c-3.2,0-5.8,2.7-5.8,5.9C219.1,52,221.6,54.6,224.9,54.6 M211.8,54.6c2.2,0,4.1-1.2,4.1-3.5c0-1.9-1.5-2.8-3.2-3.3l-1.3-0.4
			c-1.2-0.3-1.3-0.9-1.3-1.2c0-0.8,0.7-1.4,1.6-1.4c1,0,1.6,0.6,1.6,1.4h2.3c0-2.2-1.7-3.5-3.8-3.5c-2.2,0-3.9,1.4-3.9,3.4
			c0,1,0.4,2.5,2.9,3.2l1.4,0.4c1,0.3,1.4,0.7,1.4,1.4c0,0.8-0.7,1.4-1.7,1.4c-1.1,0-1.9-0.7-1.9-1.5h-2.3
			C207.6,53.1,209.3,54.6,211.8,54.6 M196.3,43v2h3.1v9.4h2.3v-9.4h3.1v-2H196.3z M188.3,49.8h4.3v-2.1h-4.3v-2.7h4.9v-2H186v11.4
			h7.3v-2h-5V49.8z M178,45.1c1.1,0,1.7,0.8,1.7,1.7c0,0.9-0.5,1.7-1.8,1.7H176v-3.4H178z M182.2,54.4l-2.9-4.2
			c1.6-0.3,2.7-1.9,2.7-3.5c0-1.9-1.1-3.7-3.7-3.7h-4.6v11.4h2.3v-4.1h0.8l2.7,4.1H182.2z M165.9,48.7l4-5.7h-2.8l-3.2,4.7V43h-2.3
			v11.4h2.3v-4.6l3.7,4.6h3L165.9,48.7z M147.8,45.4l1.5,4.3h-2.9L147.8,45.4z M153.3,54.4L149.1,43h-2.5l-4.3,11.4h2.5l0.9-2.7h4.3
			l0.9,2.7H153.3z M134.8,49.8h4.3v-2.1h-4.3v-2.7h4.9v-2h-7.2v11.4h7.3v-2h-5V49.8z M124.5,45.1c1.1,0,1.7,0.8,1.7,1.7
			c0,0.9-0.5,1.7-1.8,1.7h-1.8v-3.4H124.5z M128.6,54.4l-2.9-4.2c1.6-0.3,2.7-1.9,2.7-3.5c0-1.9-1.1-3.7-3.7-3.7h-4.6v11.4h2.3v-4.1
			h0.8l2.7,4.1H128.6z M108.8,52.4v-7.3h2.2c1.9,0,2.9,1.7,2.9,3.7c0,2-1,3.6-2.9,3.6H108.8z M106.5,43v11.4h4.5
			c3.3,0,5.2-2.5,5.2-5.7c0-3.2-1.9-5.7-5.2-5.7H106.5z M99.6,50.1L95.5,43h-2.1v11.4h2.3v-7.2l4.1,7.2h2.1V43h-2.3V50.1z
			 M84.8,45.4l1.5,4.3h-2.9L84.8,45.4z M90.3,54.4L86,43h-2.5l-4.3,11.4h2.5l0.9-2.7h4.3l0.9,2.7H90.3z"/>
		<path class="st0" d="M156.4,33.6c0.8,0,1.4-0.6,1.4-1.3c0-0.8-0.6-1.3-1.4-1.3c-0.7,0-1.4,0.5-1.4,1.3
			C155,33.1,155.6,33.6,156.4,33.6 M145.7,31.4v-7.3h2.2c1.9,0,2.9,1.7,2.9,3.7s-1,3.6-2.9,3.6H145.7z M143.4,22v11.4h4.5
			c3.3,0,5.2-2.5,5.2-5.7c0-3.2-1.9-5.7-5.2-5.7H143.4z M134.4,28.9h4.3v-2.1h-4.3v-2.7h4.9v-2h-7.2v11.4h7.3v-2h-5V28.9z M126.7,22
			h-2l-3.5,7.5l-3.5-7.5h-2l-1.4,11.4h2.4l0.8-7.1l2.8,5.8h1.8l2.8-5.8l0.8,7.1h2.4L126.7,22z M106.5,33.6c0.8,0,1.4-0.6,1.4-1.3
			c0-0.8-0.6-1.3-1.4-1.3c-0.7,0-1.4,0.5-1.4,1.3C105.1,33.1,105.7,33.6,106.5,33.6 M98.7,24.1c1.1,0,1.7,0.8,1.7,1.7
			c0,0.9-0.5,1.7-1.8,1.7h-1.8v-3.4H98.7z M102.9,33.4l-2.9-4.2c1.6-0.3,2.7-1.9,2.7-3.5c0-1.9-1.1-3.7-3.7-3.7h-4.6v11.4h2.3v-4.1
			h0.8l2.7,4.1H102.9z M83.1,31.4v-7.3h2.2c1.9,0,2.9,1.7,2.9,3.7s-1,3.6-2.9,3.6H83.1z M80.8,22v11.4h4.5c3.3,0,5.2-2.5,5.2-5.7
			c0-3.2-1.9-5.7-5.2-5.7H80.8z"/>
	</g>
	<path class="st1" d="M0,87V94h59.3l-1.3-2.3H19.8V87H0z M0,72.5v6.9h51.4l-1.3-2.3H19.8v-4.6H0z M0,58V65h43.4l-1.3-2.3H19.8V58H0z
		 M0,43.5v6.9l35.4,0l1.2-2.3H19.8v-4.6H0z M0,29V36h43l1.2-2.3H19.8V29H0z M0,14.5v6.9h50.5l1.2-2.3h-32v-4.6H0z M0,0V7h58.1
		l1.2-2.3H19.8V0H0z"/>
</g>
</svg>
