<svg xmlns="http://www.w3.org/2000/svg" xmlns:xlink="http://www.w3.org/1999/xlink" width="60" height="60" viewBox="0 0 60 60">
  <defs>
    <clipPath id="clip-path">
      <path id="Pfad_657" data-name="Pfad 657" d="M0-9.947H21.79V-40.619H0Z" transform="translate(0 40.619)" fill="#ff726b" stroke="#fff" stroke-width="1"/>
    </clipPath>
  </defs>
  <g id="Gruppe_1095" data-name="Gruppe 1095" transform="translate(-793 -469)">
    <g id="Gruppe_1011" data-name="Gruppe 1011" transform="translate(793 469)">
      <circle id="Ellipse_15" data-name="Ellipse 15" cx="30" cy="30" r="30" fill="#ff726b"/>
    </g>
    <g id="Gruppe_1094" data-name="Gruppe 1094" transform="translate(812.308 484.114)" clip-path="url(#clip-path)">
      <g id="Gruppe_1093" data-name="Gruppe 1093" transform="translate(0.567 0.567)">
        <path id="Pfad_656" data-name="Pfad 656" d="M-6.7-3.35A10.327,10.327,0,0,0-17.029-13.681,10.327,10.327,0,0,0-27.357-3.35c0,7.748,10.328,18.94,10.328,18.94S-6.7,4.4-6.7-3.35Zm-13.772,0a3.442,3.442,0,0,1,3.443-3.443A3.442,3.442,0,0,1-13.585-3.35,3.442,3.442,0,0,1-17.029.093,3.442,3.442,0,0,1-20.471-3.35Z" transform="translate(27.357 13.681)" fill="#ff726b" stroke="#fff" stroke-width="1.5"/>
      </g>
    </g>
  </g>
</svg>
