<?xml version="1.0" encoding="UTF-8"?>
<svg xmlns="http://www.w3.org/2000/svg" version="1.1" viewBox="0 0 60 60">
  <defs>
    <style>
      .cls-1 {
        fill: #ed726a;
      }

      .cls-2 {
        fill: #fff;
      }

      .cls-3 {
        fill: none;
        stroke: #fff;
        stroke-width: 1.8px;
      }
    </style>
  </defs>
  <!-- Generator: Adobe Illustrator 28.7.3, SVG Export Plug-In . SVG Version: 1.2.0 Build 164)  -->
  <g>
    <g id="Komponente_30_1">
      <g id="Gruppe_1059">
        <g id="Gruppe_1011">
          <circle id="Ellipse_15" class="cls-1" cx="30" cy="30" r="30"/>
        </g>
      </g>
      <g>
        <g id="Gruppe_1088">
          <path id="Pfad_651" class="cls-3" d="M17.6,43.9h24.7v-24.7h-24.7v24.7Z"/>
        </g>
        <g>
          <rect class="cls-2" x="23.2" y="16.1" width="2.1" height="2.1"/>
          <rect class="cls-2" x="34.6" y="16.1" width="2.1" height="2.1"/>
        </g>
        <g>
          <g>
            <rect class="cls-2" x="21.5" y="27.5" width="2.1" height="2.1"/>
            <rect class="cls-2" x="26.4" y="27.5" width="2.1" height="2.1"/>
            <rect class="cls-2" x="31.4" y="27.5" width="2.1" height="2.1"/>
            <rect class="cls-2" x="36.4" y="27.5" width="2.1" height="2.1"/>
          </g>
          <g>
            <rect class="cls-2" x="21.5" y="32.5" width="2.1" height="2.1"/>
            <rect class="cls-2" x="26.4" y="32.5" width="2.1" height="2.1"/>
            <rect class="cls-2" x="31.4" y="32.5" width="2.1" height="2.1"/>
            <rect class="cls-2" x="36.4" y="32.5" width="2.1" height="2.1"/>
          </g>
          <g>
            <rect class="cls-2" x="21.5" y="37.5" width="2.1" height="2.1"/>
            <rect class="cls-2" x="26.4" y="37.5" width="2.1" height="2.1"/>
            <rect class="cls-2" x="31.4" y="37.5" width="2.1" height="2.1"/>
            <rect class="cls-2" x="36.4" y="37.5" width="2.1" height="2.1"/>
          </g>
        </g>
        <line class="cls-3" x1="17.6" y1="23.5" x2="42.3" y2="23.5"/>
      </g>
    </g>
  </g>
</svg>