<?xml version="1.0" encoding="utf-8"?>
<!-- Generator: Adobe Illustrator 27.3.0, SVG Export Plug-In . SVG Version: 6.00 Build 0)  -->
<svg version="1.1" id="Komponente_29_1" xmlns="http://www.w3.org/2000/svg" xmlns:xlink="http://www.w3.org/1999/xlink" x="0px"
	 y="0px" viewBox="0 0 60 60" style="enable-background:new 0 0 60 60;" xml:space="preserve">
<style type="text/css">
	.st0{fill:#ED726A;}
	.st1{fill:none;stroke:#FFFFFF;stroke-width:1.5;}
</style>
<g id="Gruppe_1058">
	<g id="Gruppe_1011" transform="translate(0 0)">
		<circle id="Ellipse_15" class="st0" cx="30" cy="30" r="30"/>
	</g>
</g>
<path class="st1" d="M40.6,36.3l-2.3,3.8c-0.1,0.1-0.3,0.3-0.4,0.3c-0.7,0.1-1.6,0.1-2.3,0c-3.4-0.4-7.1-2.7-10.3-5.7l0,0
	c-3-3-5.3-6.7-5.8-10.1c-0.1-0.7-0.1-1.6,0-2.3c0-0.1,0.1-0.3,0.3-0.4l3.8-2.3c0.3-0.1,0.6-0.1,0.7,0.1l3.8,5.4l0,0
	c0.1,0.1,0.1,0.6,0,0.7l-2.3,2.4c0.6,1,1.4,2.1,2.6,3.3l0,0c1.1,1.1,2.3,2,3.3,2.6l2.4-2.3l0,0c0.1-0.1,0.4-0.1,0.7,0l5.4,3.7
	C40.6,35.7,40.7,36,40.6,36.3L40.6,36.3z"/>
</svg>
