<?xml version="1.0" encoding="utf-8"?>
<!-- Generator: Adobe Illustrator 27.3.0, SVG Export Plug-In . SVG Version: 6.00 Build 0)  -->
<svg version="1.1" id="Ebene_1" xmlns="http://www.w3.org/2000/svg" xmlns:xlink="http://www.w3.org/1999/xlink" x="0px" y="0px"
	 viewBox="0 0 60 60" style="enable-background:new 0 0 60 60;" xml:space="preserve">
<style type="text/css">
	.st0{fill:#ED726A;}
	.st1{fill:none;stroke:#FFFFFF;stroke-width:1.5;stroke-linecap:round;stroke-linejoin:round;stroke-miterlimit:10;}
</style>
<g>
	<path class="st0" d="M30,0c16.6,0,30,13.4,30,30S46.6,60,30,60S0,46.6,0,30S13.4,0,30,0"/>
	<g>
		<path class="st1" d="M43.4,23.6v5.7c0,1.2-0.2,2.4-0.6,3.6l-0.5,1.3c-0.6,1.3-1.5,2.6-2.6,3.8l-1.1,1.2c-0.1,0.1-0.2,0.2-0.4,0.3
			c-3,2.6-6.4,4-8.1,4c-1.8,0-5.1-1.4-8.1-4c-0.1-0.1-0.3-0.2-0.4-0.4l-1.1-1.2c-1.1-1.2-2-2.5-2.6-3.8l-0.5-1.3
			c-0.4-1.2-0.6-2.4-0.6-3.6v-5.7c4.6-0.8,6.9-2.5,8.8-3.8C26.9,18.7,28,18,30,18H30c1.9,0,3,0.8,4.6,1.9
			C36.5,21.2,38.8,22.8,43.4,23.6z"/>
		<path class="st1" d="M24.4,30.9c0,0,5.6,3.2,11.2,0 M35.6,27.2c-2.8,0-2.8-2-5.6-2c-2.8,0-2.8,2-5.6,2"/>
		<path class="st1" d="M24.4,35.3c0,0,5.6,3.2,11.2,0"/>
		<path class="st1" d="M16.5,23.5c0,0-0.5-0.2-1.7-0.6C12.4,22,9.9,23.2,9,25.6c-0.9,2.3,0.3,4.9,2.7,5.8s5.6,2,5.6,2"/>
		<path class="st1" d="M43.5,23.5c0,0,0.5-0.2,1.7-0.6c2.3-0.9,4.9,0.4,5.8,2.7c0.9,2.3-0.3,4.9-2.7,5.8c-2.3,0.8-5.6,2-5.6,2"/>
	</g>
</g>
</svg>
