<?xml version="1.0" encoding="utf-8"?>
<!-- Generator: Adobe Illustrator 27.3.0, SVG Export Plug-In . SVG Version: 6.00 Build 0)  -->
<svg version="1.1" id="Ebene_1" xmlns="http://www.w3.org/2000/svg" xmlns:xlink="http://www.w3.org/1999/xlink" x="0px" y="0px"
	 viewBox="0 0 100 100" style="enable-background:new 0 0 100 100;" xml:space="preserve">
<style type="text/css">
	.st0{fill:#F2F2F0;}
	.st1{fill:none;stroke:#656F79;stroke-width:1.5;}
	.st2{fill:none;stroke:#656F79;stroke-width:1.5;stroke-miterlimit:10;}
	.st3{fill:none;stroke:#656F79;stroke-width:1.5;stroke-linecap:round;}
</style>
<g>
	<path class="st0" d="M50,100c27.6,0,50-22.4,50-50S77.6,0,50,0S0,22.4,0,50S22.4,100,50,100"/>
</g>
<g>
	<rect x="44.1" y="55.3" class="st1" width="11.8" height="11.7"/>
	<g>
		<path class="st1" d="M37.5,73.4C37.5,73.4,37.5,73.4,37.5,73.4l25,0.1c0,0,0,0,0-0.1c0-1.7,1.3-3.1,3-3.2c0-1.8-1.5-3.2-3.3-3.2
			H37.8c-1.8,0-3.2,1.4-3.3,3.2C36.2,70.3,37.5,71.7,37.5,73.4z M65.8,76.7c1.8,0,3.3-1.5,3.3-3.3c0-1.8-1.5-3.3-3.3-3.3
			c-1.8,0-3.3,1.5-3.3,3.3C62.5,75.2,64,76.7,65.8,76.7z M34.2,76.7c1.8,0,3.3-1.5,3.3-3.3c0-1.8-1.5-3.3-3.3-3.3
			c-1.8,0-3.3,1.5-3.3,3.3C31,75.2,32.4,76.7,34.2,76.7z M26.2,48.9c-1.8,0-3.3,1.5-3.3,3.3v3.3h54.1v-3.3c0-1.8-1.5-3.3-3.3-3.3
			H26.2z"/>
		<path class="st2" d="M59.1,32c0-4.8-4.1-8.6-9.1-8.6c-5,0-9.1,3.9-9.1,8.6H59.1z"/>
		<path class="st1" d="M59.1,32c0-4.8-4.1-8.6-9.1-8.6c-5,0-9.1,3.9-9.1,8.6H59.1z"/>
	</g>
	<path class="st3" d="M46.1,36.3l-2,3.5 M53.9,36.3l2,3.5 M50,36.3v5.4"/>
	<path class="st1" d="M52.2,23.6v-6.4 M47.8,23.6v-6.4"/>
</g>
</svg>
