<?xml version="1.0" encoding="utf-8"?>
<!-- Generator: Adobe Illustrator 27.3.0, SVG Export Plug-In . SVG Version: 6.00 Build 0)  -->
<svg version="1.1" id="Ebene_1" xmlns="http://www.w3.org/2000/svg" xmlns:xlink="http://www.w3.org/1999/xlink" x="0px" y="0px"
	 viewBox="0 0 100 100" style="enable-background:new 0 0 100 100;" xml:space="preserve">
<style type="text/css">
	.st0{clip-path:url(#SVGID_00000157986616439784812800000010320069130060634533_);fill:#AECEDA;}
	
		.st1{clip-path:url(#SVGID_00000157986616439784812800000010320069130060634533_);fill:none;stroke:#FFFFFF;stroke-width:1.5;stroke-linecap:round;stroke-linejoin:round;stroke-miterlimit:10;}
</style>
<g>
	<defs>
		<rect id="SVGID_1_" width="100" height="100"/>
	</defs>
	<clipPath id="SVGID_00000070080435135316395210000003000151241939813760_">
		<use xlink:href="#SVGID_1_"  style="overflow:visible;"/>
	</clipPath>
	<path style="clip-path:url(#SVGID_00000070080435135316395210000003000151241939813760_);fill:#AECEDA;" d="M50,100
		c27.6,0,50-22.4,50-50S77.6,0,50,0S0,22.4,0,50S22.4,100,50,100"/>
	
		<path style="clip-path:url(#SVGID_00000070080435135316395210000003000151241939813760_);fill:none;stroke:#FFFFFF;stroke-width:1.5;stroke-linecap:round;stroke-linejoin:round;stroke-miterlimit:10;" d="
		M24.7,64.8l9.7,9.7 M39.4,65.9l-6.7,6.7 M26.5,66.5l6.7-6.7 M54,35.4l3.5,3.5 M49.6,40l9.6,9.6 M45,44.5l3.5,3.5 M40.5,49l3.5,3.5
		 M36,53.5l3.5,3.5 M29.4,55.8l14.1,14.1 M68.4,31l5.5-5.5 M62.3,32.9l1.9-1.9c1.1-1.1,2.8-1,4,0.2c1.1,1.1,1.2,2.9,0.2,4l-1.9,1.9
		 M42,67.6l25.1-25.1c1.3-1.3,1.3-3.4,0-4.7l-5.8-5.8c-1.3-1.3-3.4-1.3-4.7,0L31.5,57.1"/>
</g>
</svg>
