<?xml version="1.0" encoding="utf-8"?>
<!-- Generator: Adobe Illustrator 27.3.0, SVG Export Plug-In . SVG Version: 6.00 Build 0)  -->
<svg version="1.1" id="Ebene_1" xmlns="http://www.w3.org/2000/svg" xmlns:xlink="http://www.w3.org/1999/xlink" x="0px" y="0px"
	 viewBox="0 0 60 60" style="enable-background:new 0 0 60 60;" xml:space="preserve">
<style type="text/css">
	.st0{fill:#ED726A;}
	.st1{fill:none;stroke:#FFFFFF;stroke-width:1.5;stroke-linecap:round;stroke-linejoin:round;}
</style>
<g>
	<path class="st0" d="M30,0c16.6,0,30,13.4,30,30S46.6,60,30,60S0,46.6,0,30S13.4,0,30,0"/>
	<path class="st1" d="M25.9,35.9l-6.4,6.4l-3.4,0.6l0.6-3.4l6.4-6.4 M33.2,32.1l7.5-7.5l4.7-1.2c0.6-0.2,0.8-0.8,0.3-1.3l-8.8-8.8
		c-0.5-0.5-1.1-0.4-1.3,0.3l-1.2,4.7l-7.5,7.5l-8.6,0.8c-0.7,0.1-0.8,0.6-0.4,1.1L31.2,41c0.5,0.5,1,0.3,1.1-0.4L33.2,32.1z
		 M27,26.1l5.9,5.9 M34.5,18.7l5.9,5.9"/>
</g>
</svg>
