<svg xmlns="http://www.w3.org/2000/svg" width="110.197" height="175" viewBox="0 0 110.197 175">
  <g id="Gruppe_1131" data-name="Gruppe 1131" transform="translate(0 56.694)">
    <g id="Gruppe_1117" data-name="Gruppe 1117" transform="translate(0 -56.694)">
      <path id="Pfad_669" data-name="Pfad 669" d="M0,0,0,13.458H108.228l1.969-3.8H43.076V0ZM0,26.923,0,35v5.38H94.726L96.7,36.587H43.076l0-9.665ZM0,53.848V67.3H81.222l1.972-3.794H43.079l0-9.662ZM0,80.771V94.229H67.723l1.969-3.8H43.076l0-9.662Zm0,26.92v13.461H83.194l-1.966-3.8H43.079l0-9.665Zm0,26.92,0,13.464H96.7l-1.969-3.8H43.076l0-9.668Zm0,26.923V175H110.2l-1.969-3.8H43.076v-9.665Z" fill="#adb6c0"/>
    </g>
  </g>
</svg>
